<?xml version="1.0" encoding="utf-8"?><svg viewBox="0 0 45 45" xmlns="http://www.w3.org/2000/svg" xmlns:xlink="http://www.w3.org/1999/xlink"><style>:root>svg{display:none}:root>svg:target{display:block}</style><svg fill="none" viewBox="0 0 32 32" id="X" xmlns="http://www.w3.org/2000/svg"><g clip-path="url(#ha)" stroke="#FF6911"><path d="M23 31H9c-4.4 0-8-3.6-8-8V9c0-4.4 3.6-8 8-8h14c4.4 0 8 3.6 8 8v14c0 4.4-3.6 8-8 8Z" stroke-width="2" stroke-miterlimit="10" stroke-linecap="round" stroke-linejoin="round"/><path d="M17.308 15.045 24.38 7h-1.676l-6.142 6.986L11.658 7H6l7.418 10.563L6 26h1.676l6.486-7.377L19.342 26H25l-7.692-10.955Zm-2.296 2.611-.752-1.051L21.5 25.5 10.855 8.235l4.826 6.754.751 1.052L10.855 11l9.276 13.822-5.12-7.166Z" fill="#FF6911"/></g><defs><clipPath id="ha"><path fill="#fff" d="M0 0h32v32H0z"/></clipPath></defs></svg><svg fill="none" viewBox="0 0 20 38" id="arrow" xmlns="http://www.w3.org/2000/svg"><path d="M18 36 1 19 18 2"/></svg><svg fill="none" viewBox="0 0 45 45" id="cross" xmlns="http://www.w3.org/2000/svg"><g clip-path="url(#ba)"><path d="M25.183 19.817V1h-5.366v18.817H1v5.366h18.817V44h5.366V25.183H44v-5.366H25.183Z" fill="#FF6911"/></g><defs><clipPath id="ba"><path fill="#fff" transform="translate(1 1)" d="M0 0h43v43H0z"/></clipPath></defs></svg><svg fill="none" viewBox="0 0 32 32" id="facebook" xmlns="http://www.w3.org/2000/svg"><g clip-path="url(#ca)" stroke="#FF6911" stroke-width="2" stroke-miterlimit="10" stroke-linecap="round" stroke-linejoin="round"><path d="M23 31H9c-4.4 0-8-3.6-8-8V9c0-4.4 3.6-8 8-8h14c4.4 0 8 3.6 8 8v14c0 4.4-3.6 8-8 8Z"/><path d="M26 16h-5v-2.8c0-.7.5-1.2 1.2-1.2H25V7h-4c-2.8 0-5 2.2-5 5v4h-4v5h4v10h5V21h3l2-5Z" fill="#FF6911"/></g><defs><clipPath id="ca"><path fill="#fff" d="M0 0h32v32H0z"/></clipPath></defs></svg><svg fill="none" viewBox="0 0 35 35" id="home" xmlns="http://www.w3.org/2000/svg"><g clip-path="url(#da)"><path d="m34.088 15.462-.002-.003L20.016.977A3.2 3.2 0 0 0 17.754 0a3.201 3.201 0 0 0-2.293.91L.986 14.973l-.014.014a3.226 3.226 0 0 0-.06 4.55 3.204 3.204 0 0 0 2.223.977l.569.008-.152 10.505a3.776 3.776 0 0 0 3.716 3.826l5.585.08a1.026 1.026 0 0 0 1.04-1.01l.12-8.236a1.723 1.723 0 0 1 1.745-1.696l3.294.048c.949.014 1.71.797 1.696 1.745l-.12 8.237a1.026 1.026 0 0 0 1.01 1.04l5.586.081a3.775 3.775 0 0 0 3.825-3.716l.153-10.505.527.007c.86.013 1.674-.31 2.292-.91a3.227 3.227 0 0 0 .068-4.555Zm-1.497 3.084c-.224.218-.52.335-.833.33l-1.553-.022a1.025 1.025 0 0 0-1.04 1.01l-.167 11.531a1.722 1.722 0 0 1-1.746 1.695l-4.56-.066.105-7.21a3.775 3.775 0 0 0-3.716-3.826l-3.294-.048a3.776 3.776 0 0 0-3.826 3.716l-.105 7.211-4.56-.066a1.722 1.722 0 0 1-1.695-1.745l.167-11.53a1.025 1.025 0 0 0-1.01-1.04l-1.526-.023a1.163 1.163 0 0 1-.85-.356 1.173 1.173 0 0 1 .024-1.657h.001L16.89 2.381c.224-.219.52-.336.833-.332.312.005.605.131.823.356L32.61 16.884l.006.007a1.174 1.174 0 0 1-.026 1.655Z" fill="#fff"/><path d="m34.088 15.462-.002-.003L20.016.977A3.2 3.2 0 0 0 17.754 0a3.201 3.201 0 0 0-2.293.91L.986 14.973l-.014.014a3.226 3.226 0 0 0-.06 4.55 3.204 3.204 0 0 0 2.223.977l.569.008-.152 10.505a3.776 3.776 0 0 0 3.716 3.826l5.585.08a1.026 1.026 0 0 0 1.04-1.01l.12-8.236a1.723 1.723 0 0 1 1.745-1.696l3.294.048c.949.014 1.71.797 1.696 1.745l-.12 8.237a1.026 1.026 0 0 0 1.01 1.04l5.586.081a3.775 3.775 0 0 0 3.825-3.716l.153-10.505.527.007c.86.013 1.674-.31 2.292-.91a3.227 3.227 0 0 0 .068-4.555Zm-1.497 3.084c-.224.218-.52.335-.833.33l-1.553-.022a1.025 1.025 0 0 0-1.04 1.01l-.167 11.531a1.722 1.722 0 0 1-1.746 1.695l-4.56-.066.105-7.21a3.775 3.775 0 0 0-3.716-3.826l-3.294-.048a3.776 3.776 0 0 0-3.826 3.716l-.105 7.211-4.56-.066a1.722 1.722 0 0 1-1.695-1.745l.167-11.53a1.025 1.025 0 0 0-1.01-1.04l-1.526-.023a1.163 1.163 0 0 1-.85-.356 1.173 1.173 0 0 1 .024-1.657h.001L16.89 2.381c.224-.219.52-.336.833-.332.312.005.605.131.823.356L32.61 16.884l.006.007a1.174 1.174 0 0 1-.026 1.655Z" stroke="#000"/></g><defs><clipPath id="da"><path fill="#fff" d="M0 0h35v35H0z"/></clipPath></defs></svg><svg fill="none" viewBox="0 0 32 32" id="instagram" xmlns="http://www.w3.org/2000/svg"><g clip-path="url(#ea)"><path d="M23 31H9c-4.4 0-8-3.6-8-8V9c0-4.4 3.6-8 8-8h14c4.4 0 8 3.6 8 8v14c0 4.4-3.6 8-8 8Z" stroke="#FF6911" stroke-width="2" stroke-miterlimit="10" stroke-linecap="round" stroke-linejoin="round"/><path d="M24.625 8.75a1.875 1.875 0 1 0 0-3.75 1.875 1.875 0 0 0 0 3.75ZM16.5 8a7.5 7.5 0 1 0 .002 15A7.5 7.5 0 0 0 16.5 8Zm0 12.5c-2.761 0 1 2.662 1-.1s-3.761.1-1 .1c2.76 0-1-2.762-1 0s3.76 0 1 0Z" fill="#FF6911"/></g><defs><clipPath id="ea"><path fill="#fff" d="M0 0h32v32H0z"/></clipPath></defs></svg><svg fill="none" viewBox="0 0 36 36" id="telegram" xmlns="http://www.w3.org/2000/svg"><g clip-path="url(#fa)"><path d="M18 36c9.941 0 18-8.059 18-18S27.941 0 18 0 0 8.059 0 18s8.059 18 18 18Z" fill="#0087D1"/><path d="m8.236 17.609 17.358-6.691c.805-.291 1.509.196 1.248 1.414l-2.953 13.922c-.219.984-.805 1.227-1.626.761l-4.5-3.316-2.17 2.09c-.24.241-.443.444-.908.444L15 21.655l8.343-7.538c.363-.32-.081-.5-.563-.181l-10.305 6.489-4.443-1.387c-.965-.306-.985-.964.203-1.43Z" fill="#fff"/></g><defs><clipPath id="fa"><path fill="#fff" d="M0 0h36v36H0z"/></clipPath></defs></svg><svg fill="none" viewBox="0 0 36 36" id="user" xmlns="http://www.w3.org/2000/svg"><path d="M30 31.5c0-5.625-5.373-7.313-12-7.313S6 27.563 6 31.5m12-12a7.5 7.5 0 1 1 0-15 7.5 7.5 0 0 1 0 15Z" stroke="#fff" stroke-width="2" stroke-linecap="round" stroke-linejoin="round"/></svg></svg>