<svg width="82" height="25" viewBox="0 0 82 25" fill="none" xmlns="http://www.w3.org/2000/svg">
<path d="M30.0669 24.2098L34.232 0.78125H40.7399L36.705 24.2098H30.0669Z" fill="#3C58BF"/>
<path d="M30.0669 24.2098L35.4034 0.78125H40.7399L36.705 24.2098H30.0669Z" fill="#293688"/>
<path d="M60.2634 1.04127C58.9618 0.520634 56.8793 0 54.2761 0C47.7682 0 43.0825 3.25397 43.0825 7.93968C43.0825 11.454 46.3364 13.2762 48.9396 14.4476C51.5428 15.619 52.3237 16.4 52.3237 17.4413C52.3237 19.0032 50.2412 19.7841 48.419 19.7841C45.8158 19.7841 44.384 19.3937 42.1713 18.4825L41.2602 18.0921L40.3491 23.4286C41.911 24.0794 44.7745 24.7302 47.7682 24.7302C54.6666 24.7302 59.2221 21.4762 59.2221 16.5302C59.2221 13.7968 57.5301 11.7143 53.6253 10.0222C51.2825 8.85079 49.8507 8.2 49.8507 7.02857C49.8507 5.9873 51.0221 4.94603 53.6253 4.94603C55.838 4.94603 57.3999 5.33651 58.5713 5.85714L59.2221 6.11746L60.2634 1.04127Z" fill="#3C58BF"/>
<path d="M60.2634 1.04127C58.9618 0.520634 56.8793 0 54.2761 0C47.7682 0 44.2539 3.25397 44.2539 7.93968C44.2539 11.454 46.3364 13.2762 48.9396 14.4476C51.5428 15.619 52.3237 16.4 52.3237 17.4413C52.3237 19.0032 50.2412 19.7841 48.419 19.7841C45.8158 19.7841 44.384 19.3937 42.1713 18.4825L41.2602 18.0921L40.3491 23.4286C41.911 24.0794 44.7745 24.7302 47.7682 24.7302C54.6666 24.7302 59.2221 21.4762 59.2221 16.5302C59.2221 13.7968 57.5301 11.7143 53.6253 10.0222C51.2825 8.85079 49.8507 8.2 49.8507 7.02857C49.8507 5.9873 51.0221 4.94603 53.6253 4.94603C55.838 4.94603 57.3999 5.33651 58.5713 5.85714L59.2221 6.11746L60.2634 1.04127Z" fill="#293688"/>
<path d="M71.4571 0.78125C69.8952 0.78125 68.7237 0.91141 68.0729 2.47332L58.311 24.2098H65.3396L66.6412 20.3051H74.9714L75.7523 24.2098H81.9999L76.5333 0.78125H71.4571ZM68.4634 16.4003C68.8539 15.2289 71.0666 9.50189 71.0666 9.50189C71.0666 9.50189 71.5872 8.07014 71.9777 7.15903L72.3682 9.37173C72.3682 9.37173 73.6698 15.2289 73.9301 16.5305H68.4634V16.4003Z" fill="#3C58BF"/>
<path d="M73.019 0.78125C71.4571 0.78125 70.2856 0.91141 69.6348 2.47332L58.311 24.2098H65.3396L66.6412 20.3051H74.9714L75.7523 24.2098H81.9999L76.5333 0.78125H73.019ZM68.4634 16.4003C68.9841 15.0987 71.0666 9.50189 71.0666 9.50189C71.0666 9.50189 71.5872 8.07014 71.9777 7.15903L72.3682 9.37173C72.3682 9.37173 73.6698 15.2289 73.9301 16.5305H68.4634V16.4003Z" fill="#293688"/>
<path d="M18.092 17.18L17.4412 13.7959C16.2698 9.89111 12.4952 5.59587 8.33008 3.51333L14.1872 24.3387H21.2158L31.7586 0.910156H24.7301L18.092 17.18Z" fill="#3C58BF"/>
<path d="M18.092 17.18L17.4412 13.7959C16.2698 9.89111 12.4952 5.59587 8.33008 3.51333L14.1872 24.3387H21.2158L31.7586 0.910156H26.0317L18.092 17.18Z" fill="#293688"/>
<path d="M0 0.78125L1.17143 1.04157C9.50159 2.99395 15.2286 7.93998 17.4413 13.7971L15.0984 2.73363C14.7079 1.17173 13.5365 0.78125 12.1048 0.78125H0Z" fill="#FFBC00"/>
<path d="M0 0.78125C8.33016 2.73363 15.2286 7.80982 17.4413 13.667L15.2286 4.4257C14.8381 2.86379 13.5365 1.95268 12.1048 1.95268L0 0.78125Z" fill="#F7981D"/>
<path d="M0 0.78125C8.33016 2.73363 15.2286 7.80982 17.4413 13.667L15.8794 8.59077C15.4889 7.02887 14.9683 5.46696 13.146 4.81617L0 0.78125Z" fill="#ED7C00"/>
<path d="M24.6001 16.3987L20.1747 11.9733L18.0922 16.9193L17.5716 13.6654C16.4001 9.76059 12.6255 5.46535 8.46045 3.38281L14.3176 24.2082H21.3462L24.6001 16.3987Z" fill="#32489D"/>
<path d="M36.705 24.2074L31.1082 18.4805L30.0669 24.2074H36.705Z" fill="#32489D"/>
<path d="M51.6729 16.1367C52.1936 16.6574 52.4539 17.0478 52.3237 17.5685C52.3237 19.1304 50.2412 19.9113 48.419 19.9113C45.8158 19.9113 44.384 19.5208 42.1713 18.6097L41.2602 18.2193L40.3491 23.5558C41.911 24.2066 44.7745 24.8574 47.7682 24.8574C51.9332 24.8574 55.3174 23.6859 57.2698 21.6034L51.6729 16.1367Z" fill="#32489D"/>
<path d="M59.2222 24.207H65.3396L66.6412 20.3023H74.9714L75.7523 24.207H81.9999L79.7872 14.7055L71.9777 7.15625L72.3682 9.23879C72.3682 9.23879 73.6698 15.0959 73.9301 16.3975H68.4634C68.9841 15.0959 71.0666 9.49911 71.0666 9.49911C71.0666 9.49911 71.5872 8.06736 71.9777 7.15625" fill="#32489D"/>
</svg>
