<svg width="125" height="125" viewBox="0 0 125 125" fill="none" xmlns="http://www.w3.org/2000/svg">
<path d="M13.5248 80.1582C13.553 80.5029 13.6941 80.8295 13.9274 81.0897C14.1606 81.3498 14.4734 81.5297 14.8196 81.6026L20.5601 82.8122C20.7627 83.7676 21.0197 84.7101 21.331 85.6302L16.9856 89.4744C16.7233 89.7067 16.5446 90.0154 16.4761 90.3546C16.4075 90.6939 16.4528 91.0457 16.6051 91.3579C17.3571 92.9174 18.2363 94.4155 19.2341 95.8374C19.4353 96.1215 19.7247 96.3347 20.0596 96.4457C20.3946 96.5566 20.7572 96.5593 21.0938 96.4535L26.6729 94.6986C27.34 95.4289 28.05 96.1221 28.7978 96.7736L27.0007 102.221C26.8923 102.55 26.8951 102.904 27.0087 103.231C27.1223 103.558 27.3407 103.841 27.6316 104.037C29.0878 105.012 30.6219 105.87 32.2191 106.604C32.5388 106.753 32.8991 106.797 33.2465 106.73C33.594 106.664 33.9101 106.489 34.148 106.233L38.0848 101.99C39.0287 102.292 39.9939 102.545 40.9724 102.743L42.2111 108.348C42.3643 109.041 42.9655 109.554 43.6886 109.612C44.5649 109.68 45.4429 109.741 46.3373 109.741C47.2318 109.741 48.1097 109.68 48.9861 109.612C49.339 109.585 49.6735 109.447 49.94 109.219C50.2064 108.991 50.3906 108.686 50.4653 108.348L51.704 102.743C52.6805 102.546 53.6446 102.294 54.5915 101.99L58.5284 106.233C58.7661 106.489 59.0822 106.664 59.4297 106.731C59.7773 106.798 60.1376 106.753 60.4573 106.604C62.0541 105.87 63.5881 105.011 65.0448 104.037C65.3356 103.841 65.554 103.558 65.6676 103.231C65.7813 102.904 65.7841 102.55 65.6756 102.221L63.8785 96.7736C64.6264 96.1221 65.3363 95.4289 66.0034 94.7003L71.5826 96.4551C71.9192 96.5612 72.2818 96.5586 72.6168 96.4476C72.9518 96.3367 73.2413 96.1233 73.4423 95.839C74.4401 94.4171 75.3192 92.9191 76.0712 91.3595C76.2236 91.0473 76.2688 90.6955 76.2003 90.3562C76.1317 90.017 75.953 89.7083 75.6907 89.476L71.3453 85.6318C71.655 84.7101 71.9136 83.7676 72.1162 82.8122L77.8568 81.6026C78.5667 81.453 79.0922 80.8659 79.1515 80.1598C79.219 79.3025 79.2816 78.4452 79.2816 77.5718C79.2816 76.6984 79.219 75.8411 79.1498 74.9854C79.1217 74.6408 78.9806 74.3141 78.7473 74.054C78.5141 73.7938 78.2013 73.6139 77.8551 73.541L72.1146 72.3315C71.9131 71.378 71.6557 70.4365 71.3437 69.5118L75.6891 65.6676C75.9514 65.4353 76.1301 65.1267 76.1986 64.7874C76.2672 64.4481 76.2219 64.0963 76.0696 63.7841C75.317 62.2249 74.4378 60.7269 73.4406 59.3046C73.2396 59.0204 72.9502 58.8069 72.6152 58.696C72.2802 58.585 71.9175 58.5824 71.5809 58.6885L66.0018 60.4434C65.3344 59.7129 64.625 59.0201 63.8769 58.3685L65.674 52.9206C65.7824 52.5919 65.7796 52.2378 65.666 51.9108C65.5524 51.5838 65.334 51.3011 65.0431 51.1047C63.5869 50.1303 62.0528 49.2718 60.4556 48.5376C60.136 48.3883 59.7756 48.3438 59.428 48.4108C59.0804 48.4777 58.7643 48.6525 58.5267 48.9091L54.5899 53.1522C53.6426 52.8485 52.6786 52.5972 51.7023 52.3995L50.4636 46.794C50.3888 46.4564 50.2048 46.1512 49.9387 45.9236C49.6726 45.6959 49.3387 45.5578 48.9861 45.5298C47.2225 45.393 45.4506 45.393 43.687 45.5298C43.334 45.5573 42.9995 45.6951 42.7331 45.9228C42.4666 46.1505 42.2824 46.456 42.2078 46.794L40.9691 52.3995C39.9906 52.5973 39.0254 52.8482 38.0832 53.1522L34.1463 48.9091C33.9084 48.653 33.5923 48.4785 33.2449 48.4115C32.8974 48.3446 32.5371 48.3888 32.2174 48.5376C30.6203 49.2718 29.0862 50.1303 27.6299 51.1047C27.3391 51.3011 27.1207 51.5838 27.0071 51.9108C26.8934 52.2378 26.8906 52.5919 26.9991 52.9206L28.7962 58.3685C28.0483 59.0199 27.3384 59.7131 26.6713 60.4434L21.0938 58.6885C20.7572 58.5821 20.3944 58.5846 20.0594 58.6956C19.7243 58.8066 19.4349 59.0202 19.2341 59.3046C18.2363 60.7266 17.3571 62.2246 16.6051 63.7841C16.4528 64.0963 16.4075 64.4481 16.4761 64.7874C16.5446 65.1267 16.7233 65.4353 16.9856 65.6676L21.331 69.5118C21.0199 70.4368 20.7626 71.3782 20.5601 72.3315L14.8196 73.541C14.1096 73.6906 13.5841 74.2777 13.5248 74.9838C13.4557 75.8411 13.3931 76.6984 13.3931 77.5718C13.3931 78.4452 13.4557 79.3025 13.5248 80.1582ZM20.5601 77.1565L22.3259 75.2492C22.6495 75.181 22.9446 75.0191 23.1726 74.7847C23.4006 74.5503 23.551 74.2542 23.6041 73.9351C23.8512 72.4521 24.2499 70.9964 24.7885 69.6067C24.9058 69.3045 24.9271 68.9748 24.8495 68.6606C24.7719 68.3464 24.5991 68.0623 24.3536 67.8455L24.6882 67.0947C25.0572 66.4046 26.2726 65.9571 26.6713 65.3315L27.0087 64.1535C27.6511 64.3545 28.0549 63.8324 28.4848 63.3209C29.4599 62.1573 30.5514 61.0915 31.743 60.1394C32.2668 59.7212 33.1806 59.9351 32.9714 59.3046H34.1463C34.7871 58.9137 35.6683 57.8945 36.3766 57.5358L36.7364 56.8006C37.1927 57.2911 37.5511 56.7664 38.182 56.5316C39.6155 56.002 41.1 55.6145 42.613 55.3751C42.9398 55.3232 43.243 55.1764 43.4831 54.9538C43.7231 54.7311 43.8889 54.443 43.9588 54.127L46.5256 55.3751C47.3014 55.3349 47.2591 54.9119 48.0316 54.9538L48.7159 54.127C48.7858 54.443 48.9516 54.7311 49.1916 54.9538C49.4317 55.1764 49.7349 55.3232 50.0617 55.3751C51.5804 55.6164 53.0712 56.0056 54.4944 56.5316C54.8038 56.6464 55.1416 56.6673 55.4634 56.5915C55.7852 56.5157 56.0761 56.3469 56.298 56.107L58.5738 57.5358C59.2804 57.8961 58.7873 57.9792 59.428 58.3685L60.4078 58.4022C60.2003 59.0327 60.4079 59.7212 60.9317 60.141C62.1233 61.0931 63.2148 62.1589 64.1899 63.3225C64.3991 63.5733 64.6811 63.7565 64.999 63.8478C65.3168 63.9391 65.6555 63.9343 65.9705 63.834L66.1039 65.6241C66.5042 66.2498 66.4896 66.4046 66.8569 67.0947L67.8846 68.0142C67.1751 67.9987 67.9009 68.3469 67.8233 68.6614C67.7458 68.9759 67.7671 69.3059 67.8846 69.6083C68.4232 70.9948 68.8218 72.4505 69.0689 73.9351C69.122 74.2542 69.2724 74.5503 69.5004 74.7847C69.7284 75.0191 70.0235 75.181 70.3471 75.2492L69.869 75.9182C69.8904 76.2962 69.5021 77.189 69.5021 77.5718C69.5021 77.9546 69.5235 78.67 69.5021 79.0464L70.3488 79.8944C70.0252 79.9627 69.7301 80.1245 69.5021 80.3589C69.2741 80.5934 69.1237 80.8894 69.0705 81.2085C68.8247 82.6863 68.428 84.1363 67.8862 85.5369C67.7689 85.8391 67.7476 86.1689 67.8252 86.4831C67.9028 86.7973 68.0756 87.0813 68.3211 87.2981L67.8252 88.4182C67.4562 89.1082 67.2556 89.2631 66.8569 89.8888L65.9705 91.3112C65.6555 91.2107 65.3168 91.2058 64.9989 91.2971C64.681 91.3885 64.3989 91.5717 64.1899 91.8227C63.2144 92.986 62.1229 94.0517 60.9317 95.0043C60.4079 95.4225 60.2003 96.1125 60.4078 96.7414L59.4297 97.977C58.789 98.3679 58.5274 98.6764 57.8208 99.035H56.2997C56.0769 98.796 55.7857 98.6277 55.4638 98.5519C55.142 98.4762 54.8042 98.4966 54.4944 98.6104C53.0745 99.1364 51.5837 99.5256 50.0633 99.7669C49.7365 99.8188 49.4333 99.9656 49.1933 100.188C48.9532 100.411 48.7874 100.699 48.7176 101.015L47.2786 99.7669C46.5028 99.8071 45.7921 100.225 45.0196 100.183L43.9604 101.015C43.8905 100.699 43.7248 100.411 43.4847 100.188C43.2446 99.9656 42.9414 99.8188 42.6146 99.7669C41.1013 99.5269 39.6163 99.1395 38.182 98.6104C37.8725 98.4956 37.5348 98.4747 37.2129 98.5505C36.8911 98.6263 36.9583 97.7371 36.7364 97.977L36.3783 96.7736C35.6893 96.4231 35.1375 96.8456 34.4774 96.4457L33.2465 95.8374C33.4541 95.2069 32.2685 95.4208 31.7447 95.001C30.553 94.0489 29.4615 92.9831 28.4865 91.8195C28.2769 91.5692 27.9948 91.3865 27.6771 91.2952C27.3594 91.204 27.0209 91.2084 26.7058 91.308L27.0087 90.3546C26.5975 89.711 25.2067 89.8272 24.8495 89.1535L24.3569 87.2949C24.6025 87.0779 24.7754 86.7935 24.853 86.479C24.9306 86.1645 24.9092 85.8345 24.7918 85.5321C24.2494 84.1322 23.8526 82.6827 23.6074 81.2053C23.5543 80.8862 23.4039 80.5901 23.1759 80.3557C22.9479 80.1213 22.6528 79.9594 22.3292 79.8912L21.0938 78.8594C21.074 78.4814 20.1702 78.5069 20.1702 78.1241C20.1702 77.7413 20.5387 77.5329 20.5601 77.1565ZM99.4089 36.1299C99.7123 36.0366 99.9816 35.8596 100.184 35.6201C100.387 35.3806 100.514 35.089 100.55 34.7805C100.649 33.9682 100.695 33.2331 100.695 32.535C100.695 31.837 100.649 31.1019 100.552 30.2896C100.516 29.9811 100.388 29.6895 100.186 29.45C99.9832 29.2105 99.714 29.0334 99.4106 28.9401L94.8428 27.5392C94.7067 27.175 94.555 26.8166 94.3882 26.4647L96.6021 22.323C96.7488 22.0476 96.811 21.7368 96.7812 21.4278C96.7514 21.1188 96.6309 20.8247 96.4341 20.581C95.4771 19.4005 94.3832 18.3323 93.1742 17.3979C92.9248 17.2054 92.6238 17.0874 92.3073 17.058C91.9908 17.0287 91.6724 17.0891 91.3903 17.2322L87.1454 19.394C86.7848 19.2323 86.4177 19.0848 86.0451 18.9516L84.6104 14.4914C84.5148 14.1951 84.3335 13.9322 84.0882 13.7344C83.843 13.5366 83.5443 13.4124 83.2283 13.3767C81.701 13.1869 80.1551 13.1869 78.6277 13.3767C78.3117 13.4124 78.0131 13.5366 77.7678 13.7344C77.5226 13.9322 77.3412 14.1951 77.2457 14.4914L75.8109 18.9516C75.437 19.0851 75.0697 19.2331 74.7106 19.3956L70.469 17.2338C70.187 17.0909 69.8687 17.0304 69.5523 17.0595C69.236 17.0886 68.9349 17.2061 68.6851 17.3979C67.4761 18.3323 66.3822 19.4005 65.4253 20.581C65.2278 20.8244 65.1067 21.1184 65.0766 21.4275C65.0465 21.7366 65.1087 22.0476 65.2556 22.323L67.4678 26.4647C67.3031 26.8154 67.1515 27.1741 67.0148 27.5392L62.4471 28.9401C62.1437 29.0334 61.8745 29.2105 61.6719 29.45C61.4693 29.6895 61.3421 29.9811 61.3056 30.2896C61.2084 31.1019 61.1623 31.837 61.1623 32.535C61.1623 33.2331 61.2084 33.9682 61.3056 34.7805C61.3421 35.089 61.4693 35.3806 61.6719 35.6201C61.8745 35.8596 62.1437 36.0366 62.4471 36.1299L67.0148 37.5309C67.1515 37.896 67.3031 38.2547 67.4695 38.6054L65.2556 42.7471C64.9558 43.3085 65.0217 43.9905 65.4236 44.4891C66.3806 45.6696 67.4745 46.7378 68.6835 47.6722C69.1924 48.0663 69.8925 48.129 70.4674 47.8379L74.709 45.6777C75.0681 45.8386 75.4354 45.9866 75.8093 46.1201L77.244 50.5803C77.3396 50.8766 77.5209 51.1395 77.7662 51.3373C78.0114 51.5351 78.3101 51.6593 78.626 51.695C79.4612 51.7915 80.214 51.8365 80.9288 51.8365C81.6437 51.8365 82.3965 51.7915 83.2283 51.6966C83.5443 51.6609 83.843 51.5367 84.0882 51.3389C84.3335 51.1411 84.5148 50.8782 84.6104 50.5819L86.0451 46.1217C86.419 45.9882 86.7863 45.8402 87.1454 45.6777L91.387 47.8395C91.6688 47.9832 91.9873 48.0442 92.3038 48.015C92.6204 47.9859 92.9215 47.868 93.1709 47.6754C94.3799 46.741 95.4738 45.6728 96.4308 44.4923C96.6282 44.2489 96.7493 43.9549 96.7794 43.6458C96.8095 43.3367 96.7474 43.0257 96.6004 42.7504L94.3866 38.6086C94.5529 38.2579 94.7045 37.8992 94.8412 37.5341L99.4089 36.1299ZM93.0507 34.7081C92.5302 34.8689 92.125 35.2694 91.9668 35.7809C91.7451 36.5015 91.4505 37.1987 91.0872 37.8623C90.9595 38.0932 90.8918 38.3513 90.8901 38.6138C90.8884 38.8763 90.9527 39.1352 91.0773 39.3678L90.2003 41.3594C89.8099 41.7824 89.1258 41.7151 88.6943 42.0947L87.9262 42.4447C87.6879 42.3234 87.4228 42.2609 87.1541 42.2625C86.8853 42.2642 86.6211 42.3301 86.3844 42.4544C85.7049 42.8091 84.9909 43.0968 84.2529 43.3133C83.9954 43.3891 83.7607 43.5251 83.5692 43.7095C83.3778 43.894 83.2353 44.1213 83.1542 44.3717L81.9172 47.2417C81.339 47.2771 80.9893 46.5418 80.4111 46.5064L78.7035 44.3717C78.6224 44.1213 78.4799 43.894 78.2884 43.7095C78.097 43.5251 77.8623 43.3891 77.6048 43.3133C76.867 43.0977 76.1535 42.8099 75.4749 42.4544C75.238 42.3298 74.9735 42.2638 74.7044 42.2621C74.4354 42.2604 74.17 42.3231 73.9315 42.4447L72.881 41.3594C72.4481 40.9784 71.1705 41.0468 70.7804 40.6241V39.3678C70.9046 39.1351 70.9687 38.8762 70.9669 38.6138C70.9652 38.3514 70.8978 38.0934 70.7705 37.8623C70.4072 37.1987 70.1126 36.5015 69.8909 35.7809C69.8133 35.5294 69.674 35.3003 69.4851 35.1133C69.2962 34.9263 69.0634 34.7872 68.807 34.7081L65.666 33.3827C65.628 32.8182 66.8189 31.6298 66.8569 31.0653L68.807 30.362C69.3275 30.2012 69.7327 29.8007 69.8909 29.2892C70.1149 28.5606 70.4114 27.8609 70.7705 27.2094C70.8981 26.9781 70.9657 26.7198 70.9674 26.4571C70.9691 26.1944 70.9049 25.9352 70.7804 25.7023L70.9674 24.7572C71.3578 24.3342 72.4495 24.0919 72.881 23.7123L73.9315 22.6253C74.4141 22.8714 74.9939 22.8666 75.4733 22.6157C76.1528 22.261 76.8668 21.9733 77.6048 21.7568C78.1269 21.604 78.5387 21.2067 78.7035 20.6984L80.9288 19.6292C81.507 19.5938 81.339 20.0005 81.9172 20.0358L83.1542 20.6984C83.3189 21.2067 83.7291 21.6024 84.2529 21.7568C84.9991 21.9755 85.7156 22.2651 86.3828 22.6157C86.6197 22.7403 86.8842 22.8063 87.1533 22.808C87.4223 22.8097 87.6877 22.747 87.9262 22.6253L87.9413 22.977C88.3745 23.3582 89.0585 24.0262 89.4473 24.4476L91.0773 25.7023C90.9531 25.935 90.889 26.1939 90.8907 26.4563C90.8925 26.7187 90.9599 26.9767 91.0872 27.2078C91.4463 27.8625 91.7428 28.5622 91.9668 29.2892C92.1233 29.7991 92.5302 30.2012 93.0507 30.362L93.7541 31.8006C93.7921 32.365 94.2615 32.8182 94.2235 33.3827L93.0507 34.7081ZM111.01 66.2547L108.18 65.2736C108.02 64.826 107.835 64.3873 107.625 63.9594L108.912 61.3135C109.043 61.0441 109.095 60.744 109.061 60.4473C109.028 60.1506 108.91 59.869 108.721 59.6343C107.895 58.6038 106.944 57.6748 105.889 56.8678C105.648 56.6837 105.36 56.5687 105.056 56.5357C104.752 56.5028 104.444 56.5532 104.168 56.6812L101.456 57.9374C101.019 57.7332 100.57 57.5528 100.112 57.3969L99.1059 54.6336C99.003 54.3519 98.8218 54.1037 98.5827 53.9168C98.3436 53.7299 98.0559 53.6116 97.7518 53.5753C96.4251 53.4032 95.0808 53.4032 93.7541 53.5753C93.4498 53.6111 93.1619 53.7291 92.9227 53.9161C92.6834 54.1031 92.5024 54.3516 92.4 54.6336L91.3952 57.3969C90.9357 57.5546 90.486 57.7347 90.0495 57.939L87.3398 56.6828C87.0636 56.5551 86.7565 56.5049 86.4528 56.5378C86.1491 56.5708 85.8608 56.6856 85.6201 56.8694C84.5675 57.6736 83.6138 58.6033 82.7869 59.6343C82.5987 59.8697 82.4812 60.1515 82.4474 60.4483C82.4137 60.7451 82.4651 61.0452 82.5958 61.3152L83.8823 63.9627C83.6732 64.3899 83.4884 64.828 83.3288 65.2752L80.4989 66.2579C80.2104 66.3584 79.9562 66.5353 79.7648 66.7688C79.5734 67.0023 79.4523 67.2832 79.4151 67.5801C79.3245 68.2926 79.2816 68.9312 79.2816 69.5295C79.2816 70.1279 79.3245 70.7648 79.4134 71.4806C79.4875 72.0854 79.9076 72.5985 80.4973 72.8027L83.3272 73.7839C83.4886 74.2327 83.6731 74.6718 83.8823 75.098L82.5958 77.7439C82.4643 78.0134 82.4125 78.3134 82.4462 78.6101C82.48 78.9068 82.598 79.1884 82.7869 79.4231C83.6105 80.451 84.5626 81.3822 85.6185 82.1897C86.1093 82.5645 86.7781 82.6368 87.3398 82.3763L90.0511 81.1201C90.486 81.3227 90.9357 81.5045 91.3952 81.6605L92.4017 84.4238C92.6109 84.9981 93.1363 85.4082 93.7557 85.4822C94.4887 85.5723 95.141 85.6141 95.7538 85.6141C96.3665 85.6141 97.0188 85.5723 97.7518 85.4854C98.0561 85.4496 98.344 85.3316 98.5832 85.1446C98.8224 84.9576 99.0035 84.7091 99.1059 84.4271L100.111 81.6637C100.57 81.5061 101.02 81.326 101.456 81.1217L104.166 82.3779C104.442 82.5067 104.749 82.5575 105.053 82.5245C105.357 82.4915 105.646 82.3761 105.886 82.1913C106.938 81.3871 107.892 80.4574 108.719 79.4264C109.103 78.947 109.177 78.2956 108.91 77.7455L107.624 75.098C107.831 74.6734 108.017 74.2343 108.177 73.7855L111.007 72.8027C111.595 72.5985 112.015 72.0854 112.091 71.4806C112.183 70.7648 112.226 70.1279 112.226 69.5295C112.226 68.9312 112.183 68.2942 112.094 67.5785C112.058 67.2812 111.937 66.9998 111.745 66.7659C111.554 66.532 111.299 66.355 111.01 66.2547ZM105.261 70.7711L106.304 71.0222C106.055 71.1086 105.831 71.2524 105.65 71.4414C105.47 71.6304 105.339 71.859 105.268 72.1079C105.055 72.8639 104.748 73.5916 104.354 74.2745C104.09 74.7297 104.071 75.283 104.3 75.7559L103.755 76.6535C103.481 76.9462 103.3 77.1234 103.002 77.3888L102.132 77.8726C101.893 77.7624 101.631 77.7097 101.367 77.7189C101.103 77.7281 100.845 77.7991 100.615 77.9257C99.9229 78.3085 99.1767 78.6077 98.3975 78.8184C98.1426 78.8877 97.9084 79.0158 97.7146 79.1918C97.5208 79.3679 97.3732 79.5867 97.284 79.8301L96.2244 80.1598C95.8239 80.1807 95.1189 80.1807 94.7184 80.1598L94.2268 79.8301C94.1383 79.5867 93.991 79.3676 93.7975 79.1915C93.604 79.0154 93.3698 78.8874 93.1149 78.8184C92.3407 78.6107 91.5955 78.3109 90.8961 77.9257C90.6658 77.7997 90.408 77.7292 90.1442 77.7199C89.8803 77.7107 89.618 77.763 89.3791 77.8726L87.9413 77.9257C87.6422 77.6594 88.214 77.8639 87.9413 77.5718L87.2113 75.7559C87.3246 75.5228 87.3788 75.2665 87.3693 75.0087C87.3599 74.7509 87.287 74.499 87.157 74.2745C86.7627 73.5921 86.4556 72.865 86.2428 72.1095C86.1718 71.8605 86.0406 71.6318 85.8603 71.4426C85.68 71.2534 85.4559 71.1092 85.2067 71.0222L84.6104 70.1166C84.5827 69.7257 84.5849 69.3319 84.6104 68.9408L85.2034 68.0353C85.4526 67.9491 85.6769 67.8054 85.857 67.6163C86.0371 67.4273 86.1677 67.1985 86.2378 66.9496C86.4515 66.1936 86.7591 65.466 87.1537 64.783C87.4172 64.3278 87.437 63.7745 87.208 63.3016L87.1883 61.9476C87.1883 61.9476 87.6431 61.4777 87.9413 61.2123L89.3758 61.1849C89.86 61.41 90.4267 61.3907 90.8928 61.1318C91.5847 60.749 92.3309 60.4498 93.11 60.2391C93.6272 60.0992 94.0423 59.7212 94.2235 59.2274H95.4714C95.87 59.2065 95.8258 59.2065 96.2244 59.2274H97.2807C97.3692 59.4708 97.5165 59.6898 97.71 59.8659C97.9036 60.042 98.1377 60.17 98.3926 60.2391C99.1669 60.4468 99.912 60.7466 100.611 61.1318C100.841 61.2592 101.099 61.3305 101.363 61.3398C101.627 61.349 101.89 61.2959 102.128 61.1849L102.248 61.9476C102.548 62.2146 102.73 62.3918 103.002 62.6829L104.296 63.3016C104.183 63.5347 104.129 63.7909 104.138 64.0488C104.148 64.3066 104.221 64.5584 104.351 64.783C104.743 65.4585 105.049 66.1872 105.265 66.948C105.408 67.453 105.795 67.8583 106.301 68.0353L105.056 69.3005C105.083 69.692 105.286 70.3796 105.261 70.7711Z" fill="#FF6911"/>
<path d="M46.3372 102.39C69.8688 97.9782 70.6218 87.5129 70.6218 77.7576C70.6218 68.0023 61.0339 53.8605 51.0435 53.8605C37.4893 50.9193 19.417 68.0023 19.417 77.7576C19.417 87.5129 35.2302 100.184 46.3372 102.39ZM46.3372 63.2815C54.5107 63.2815 61.1621 69.7764 61.1621 77.7576C61.1621 85.7387 54.5107 92.2337 46.3372 92.2337C38.1637 92.2337 31.5122 85.7387 31.5122 77.7576C31.5122 69.7764 38.1637 63.2815 46.3372 63.2815ZM80.9287 18.5664C76.3873 18.5664 65.3507 28.2863 65.3507 32.7208C65.3507 37.1553 77.3756 47.9782 81.917 47.9782C86.4584 47.9782 95.7536 37.1553 95.7536 32.7208C95.7536 28.2863 85.47 18.5664 80.9287 18.5664ZM80.9287 37.5462C78.2042 37.5462 75.987 35.3812 75.987 32.7208C75.987 30.0604 78.2042 27.8955 80.9287 27.8955C83.6532 27.8955 85.8703 30.0604 85.8703 32.7208C85.8703 35.3812 83.6532 37.5462 80.9287 37.5462ZM95.7536 56.8017C92.1198 56.8017 83.423 59.0076 81.917 69.7153C81.917 73.2636 88.6941 81.8017 95.7536 82.537C106.013 80.3311 106.013 79.5958 109.025 69.7153C109.025 66.167 99.3873 56.8017 95.7536 56.8017ZM95.7536 72.9322C93.9367 72.9322 92.4592 71.4894 92.4592 69.7153C92.4592 67.9412 93.9367 66.4984 95.7536 66.4984C97.5705 66.4984 99.048 67.9412 99.048 69.7153C99.048 71.4894 97.5705 72.9322 95.7536 72.9322Z" fill="#FF6911"/>
</svg>
