<svg width="125" height="125" viewBox="0 0 125 125" fill="none" xmlns="http://www.w3.org/2000/svg">
<path d="M39.126 107.119V103.028H85.8741V107.119H39.126Z" fill="#FF6911"/>
<path d="M77.6244 100.301H47.3757L52.188 88.0284H72.1247L77.6244 100.301Z" fill="#FF6911"/>
<path d="M19.1893 85.3011L17.8144 83.9375L103.748 75.0739V19.8466H21.2518L19.8768 20.5284L20.5643 75.0739V75.7557L17.1269 83.2557L16.4395 16.4375H105.123L107.873 17.8011L108.561 82.5739L107.186 85.3011H19.1893Z" fill="#FF6911"/>
<path d="M39.126 107.119V103.028H85.8741V107.119H39.126Z" stroke="#FF6911"/>
<path d="M77.6244 100.301H47.3757L52.188 88.0284H72.1247L77.6244 100.301Z" stroke="#FF6911"/>
<path d="M19.1893 85.3011L17.8144 83.9375L103.748 75.0739V19.8466H21.2518L19.8768 20.5284L20.5643 75.0739V75.7557L17.1269 83.2557L16.4395 16.4375H105.123L107.873 17.8011L108.561 82.5739L107.186 85.3011H19.1893Z" stroke="#FF6911"/>
<path d="M95.6062 76.1747L19.3183 83.3717H17.8789L20.038 74.0156H95.6062V76.1747Z" fill="#FF6911" stroke="#FF6911"/>
<path d="M104.806 14H19.1937C16.3299 14 14 16.4254 14 19.4071V82.5076C14 85.4891 16.3299 87.9146 19.1937 87.9146H27.5C28.2768 87.9146 35.2571 87.4944 35.2571 86.6857C35.2571 85.877 34.8393 84.9866 34.0625 84.9866H19.1937C17.8807 84.9866 16.8125 83.8746 16.8125 82.5076V19.4071C16.8125 18.0401 17.8807 16.928 19.1937 16.928H104.806C106.119 16.928 107.188 18.0401 107.188 19.4071V82.5076C107.188 83.8746 106.119 84.9866 104.806 84.9866H34.0625C33.2857 84.9866 32.6562 85.6419 32.6562 86.4506C32.6562 87.2593 26.0986 87.9146 26.8754 87.9146H49.145C48.8773 90.4858 47.7729 96.0557 43.2459 100.761H38.5138C37.1116 100.761 35.9711 101.948 35.9711 103.408V107.353C35.9711 108.813 37.1116 110 38.5138 110H81.2C81.9768 110 74.8981 109.345 74.8981 108.536C74.8981 107.727 74.2687 107.072 73.4919 107.072H38.7838V103.689H85.2163V107.072H73.2206C72.4437 107.072 74.5234 107.727 74.5234 108.536C74.5234 109.345 79.2776 110 80.0544 110H85.4863C86.8884 110 88.0289 108.813 88.0289 107.353V103.408C88.0289 101.948 86.8884 100.761 85.4863 100.761H80.7543C76.2524 96.0789 75.1359 90.4919 74.8601 87.9146H104.806C107.67 87.9146 110 85.4891 110 82.5076V19.4071C110 16.4254 107.67 14 104.806 14ZM76.988 100.761H47.012C50.828 95.7623 51.7539 90.4456 51.9746 87.9144H72.0252C72.2461 90.4458 73.172 95.7623 76.988 100.761Z" fill="#FF6911"/>
<path d="M86.0984 75.9695H102.592C103.37 75.9695 104 75.3072 104 74.4899V21.4796C104 20.6623 103.37 20 102.592 20H21.4083C21.2234 20 21.0402 20.0382 20.8694 20.1126C20.6985 20.1869 20.5432 20.2959 20.4124 20.4333C20.2817 20.5707 20.1779 20.7338 20.1072 20.9134C20.0364 21.0929 20 21.2853 20 21.4796V74.4899C20 75.3072 20.6304 75.9695 21.4083 75.9695H86.6532C87.4312 75.9695 98.4918 76.2018 98.4918 75.3844C98.4918 74.5671 94.0033 73.0102 93.2254 73.0102H22.8166V22.9593H101.183V73.0102H93.2254C92.4474 73.0102 91.8171 73.6725 91.8171 74.4899C91.8171 75.3072 85.3204 75.9695 86.0984 75.9695Z" fill="#FF6911"/>
<path d="M38.5498 30.6091C38.5498 29.8195 37.9308 29.1797 37.1668 29.1797H28.5979C28.4162 29.1797 28.2364 29.2166 28.0686 29.2884C27.9008 29.3603 27.7483 29.4656 27.6199 29.5983C27.4914 29.731 27.3896 29.8886 27.3201 30.0621C27.2506 30.2355 27.2148 30.4214 27.2148 30.6091V38.31C27.2148 39.0996 27.8339 39.7395 28.5979 39.7395H37.1668C37.9308 39.7395 38.5498 39.0996 38.5498 38.31V30.6091ZM35.7837 36.8806H29.9809V32.0385H35.7837V36.8806ZM44.6178 39.7395H67.7163C68.4803 39.7395 69.0993 39.0996 69.0993 38.31C69.0993 37.5204 68.4803 36.8806 67.7163 36.8806H44.6178C43.8538 36.8806 43.2348 37.5204 43.2348 38.31C43.2348 39.0996 43.854 39.7395 44.6178 39.7395ZM74.4223 29.1797H55.4221C54.6581 29.1797 54.039 29.8195 54.039 30.6091C54.039 31.3987 54.6581 32.0385 55.4221 32.0385H74.4223C75.1863 32.0385 75.8054 31.3987 75.8054 30.6091C75.8054 29.8195 75.1863 29.1797 74.4223 29.1797ZM44.6178 32.0385H48.9021C49.6661 32.0385 50.2851 31.3987 50.2851 30.6091C50.2851 29.8195 49.6661 29.1797 48.9021 29.1797H44.6178C43.8538 29.1797 43.2348 29.8195 43.2348 30.6091C43.2348 31.3987 43.854 32.0385 44.6178 32.0385ZM38.5498 44.4708C38.5498 43.6812 37.9308 43.0414 37.1668 43.0414H28.5979C28.4162 43.0414 28.2364 43.0783 28.0686 43.1502C27.9008 43.222 27.7483 43.3273 27.6199 43.46C27.4914 43.5928 27.3896 43.7503 27.3201 43.9238C27.2506 44.0972 27.2148 44.2831 27.2148 44.4708V52.1718C27.2148 52.9614 27.8339 53.6012 28.5979 53.6012H37.1668C37.9308 53.6012 38.5498 52.9614 38.5498 52.1718V44.4708ZM35.7837 50.7423H29.9809V45.9002H35.7837V50.7423ZM44.6178 53.6012H67.7163C68.4803 53.6012 69.0993 52.9614 69.0993 52.1718C69.0993 51.3821 68.4803 50.7423 67.7163 50.7423H44.6178C43.8538 50.7423 43.2348 51.3821 43.2348 52.1718C43.2348 52.9614 43.854 53.6012 44.6178 53.6012ZM74.4223 43.0414H55.4221C54.6581 43.0414 54.039 43.6812 54.039 44.4708C54.039 45.2604 54.6581 45.9002 55.4221 45.9002H74.4223C75.1863 45.9002 75.8054 45.2604 75.8054 44.4708C75.8054 43.6812 75.1863 43.0414 74.4223 43.0414ZM44.6178 45.9002H48.9021C49.6661 45.9002 50.2851 45.2604 50.2851 44.4708C50.2851 43.6812 49.6661 43.0414 48.9021 43.0414H44.6178C43.8538 43.0414 43.2348 43.6812 43.2348 44.4708C43.2348 45.2604 43.854 45.9002 44.6178 45.9002ZM37.1668 56.9033H28.5979C28.4162 56.9033 28.2364 56.9402 28.0686 57.0121C27.9008 57.0839 27.7483 57.1892 27.6199 57.3219C27.4914 57.4547 27.3896 57.6123 27.3201 57.7857C27.2506 57.9591 27.2148 58.145 27.2148 58.3327V66.0339C27.2148 66.8235 27.8339 67.4633 28.5979 67.4633H37.1668C37.9308 67.4633 38.5498 66.8235 38.5498 66.0339V58.3327C38.5498 57.5431 37.9308 56.9033 37.1668 56.9033ZM35.7837 64.6044H29.9809V59.7621H35.7837V64.6044ZM44.6178 67.4633H67.7163C68.4803 67.4633 69.0993 66.8235 69.0993 66.0339C69.0993 65.2442 68.4803 64.6044 67.7163 64.6044H44.6178C43.8538 64.6044 43.2348 65.2442 43.2348 66.0339C43.2348 66.8235 43.854 67.4633 44.6178 67.4633ZM75.8054 58.3327C75.8054 57.5431 75.1863 56.9033 74.4223 56.9033H55.4221C54.6581 56.9033 54.039 57.5431 54.039 58.3327C54.039 59.1223 54.6581 59.7621 55.4221 59.7621H74.4223C74.604 59.7621 74.7838 59.7252 74.9516 59.6533C75.1194 59.5815 75.2719 59.4762 75.4003 59.3435C75.5287 59.2108 75.6306 59.0532 75.7001 58.8797C75.7696 58.7063 75.8054 58.5204 75.8054 58.3327ZM44.6178 59.7621H48.9021C49.6661 59.7621 50.2851 59.1223 50.2851 58.3327C50.2851 57.5431 49.6661 56.9033 48.9021 56.9033H44.6178C43.8538 56.9033 43.2348 57.5431 43.2348 58.3327C43.2348 59.1223 43.854 59.7621 44.6178 59.7621ZM97.7849 54.3799C97.7722 54.0837 97.6706 53.7989 97.4942 53.5649C97.3179 53.331 97.0755 53.1596 96.8007 53.0744L80.7808 48.1073C80.5416 48.0331 80.2874 48.0272 80.0452 48.0903C79.8031 48.1534 79.582 48.2831 79.4054 48.4656C79.2288 48.6481 79.1033 48.8767 79.0423 49.127C78.9812 49.3772 78.9869 49.6399 79.0586 49.8872L83.8646 66.4444C83.95 66.7389 84.1251 66.9971 84.3638 67.1806C84.6026 67.3642 84.8922 67.4632 85.1897 67.4631C85.4661 67.463 85.7361 67.3773 85.9649 67.2172C86.1937 67.057 86.3709 66.8297 86.4735 66.5645L89.4572 58.8546L96.9169 55.7706C97.1833 55.6606 97.41 55.4676 97.5655 55.2184C97.721 54.9692 97.7977 54.6762 97.7849 54.3799ZM87.8796 56.4278C87.7057 56.4997 87.5477 56.6074 87.4152 56.7443C87.2828 56.8812 87.1786 57.0445 87.109 57.2243L85.3761 61.7023L82.4461 51.6084L92.2126 54.6366L87.8796 56.4278Z" fill="#FF6911"/>
</svg>
