<svg width="125" height="125" viewBox="0 0 125 125" fill="none" xmlns="http://www.w3.org/2000/svg">
<path fill-rule="evenodd" clip-rule="evenodd" d="M37.5772 98.5204L38.7586 100.608C38.7593 100.609 38.7601 100.611 38.7606 100.612C39.7604 102.39 39.1264 104.659 37.3585 105.657L33.1691 108.032C33.1676 108.033 33.1661 108.033 33.1646 108.034C31.3865 109.034 29.1175 108.4 28.1186 106.631L15.7988 84.8624C14.79 83.0828 15.424 80.812 17.1941 79.812L21.3886 77.4376L21.3899 77.4369C23.1591 76.4376 25.4289 77.0655 26.4363 78.8349L26.4384 78.8383L27.3959 80.5303L38.3486 74.1893C41.6523 72.2785 45.0281 71.0331 48.6567 72.2115C52.1833 73.355 57.9405 75.82 63.8163 76.8818C63.8825 76.8936 63.948 76.9102 64.0122 76.9309C66.989 77.8947 68.7983 80.9044 67.9855 83.9269C67.8645 84.3773 67.7056 84.7969 67.5108 85.183C68.134 85.0021 68.7443 84.7402 69.3445 84.3905L84.2827 75.6903C89.6901 72.5401 93.2952 72.8835 95.3359 74.2525C97.094 75.432 97.9089 77.4457 97.8564 79.4228C97.8033 81.4201 96.8512 83.3281 95.2847 84.2928L68.1784 100.982C65.3218 102.745 62.1927 103.159 58.9513 102.294L58.9496 102.293L39.8893 97.1852L37.5772 98.5204ZM36.1359 102.089L23.8187 80.3244L23.8178 80.3229C23.6277 79.992 23.203 79.8717 22.8711 80.0592L18.678 82.433L18.6767 82.4338C18.346 82.6205 18.2306 83.0452 18.419 83.3774L18.4194 83.3782L30.7397 105.148L30.7403 105.149C30.9278 105.481 31.3538 105.596 31.6873 105.41L35.8735 103.037L35.8754 103.036C36.2072 102.848 36.3228 102.422 36.1359 102.089ZM36.0937 95.8992L38.9237 94.2651C39.2694 94.0654 39.6805 94.0112 40.0664 94.1147L59.728 99.384C62.1404 100.028 64.4708 99.7309 66.5967 98.4189L66.598 98.418L93.7054 81.7283C94.4017 81.2995 94.7614 80.4364 94.8342 79.5538C94.9466 78.1915 94.3092 76.686 92.6242 76.3331C91.0454 76.0022 88.8241 76.5302 85.7988 78.2926L70.8608 86.9927C68.461 88.3912 65.9458 88.7781 63.2047 88.3417C63.2028 88.3414 63.2011 88.3412 63.1994 88.3408L61.3476 88.0394C61.3468 88.0394 54.784 86.3169 51.314 85.3844C50.5114 85.1687 50.035 84.3419 50.2507 83.5393C50.4664 82.7367 51.2932 82.2602 52.0958 82.4758C55.4838 83.3863 58.538 84.3848 61.827 85.0648C63.4827 85.2477 64.6961 84.5639 65.0767 83.1455L65.0769 83.1448C65.4628 81.7106 64.5637 80.3203 63.1706 79.8254C57.1828 78.7261 51.322 76.2418 47.7274 75.0762L47.7267 75.076C44.9417 74.1716 42.3921 75.3298 39.8565 76.7963L28.8794 83.1517L36.0937 95.8992ZM22.2654 82.6038C23.2162 82.4622 24.0992 83.1188 24.2407 84.0695C24.3765 85.0205 23.7199 85.909 22.7691 86.0449C21.8183 86.1864 20.9353 85.5242 20.7938 84.5733C20.6581 83.6225 21.3146 82.7395 22.2654 82.6038ZM96.7599 37.1092C97.4757 39.659 97.8588 42.3476 97.8588 45.125C97.8588 61.4817 84.579 74.7615 68.2223 74.7615C51.8654 74.7615 38.5856 61.4817 38.5856 45.125C38.5856 39.4619 40.1777 34.168 42.9376 29.666L39.7317 26.187C39.3359 25.7575 39.2241 25.1378 39.4451 24.5972C39.6659 24.0564 40.1794 23.6921 40.7627 23.6626L48.1967 23.2848C53.4725 18.4441 60.505 15.4883 68.2223 15.4883C76.7249 15.4883 84.3962 19.0762 89.8025 24.8199L97.0803 17.4887L97.0814 17.4875C99.7212 14.8342 104.03 14.821 106.683 17.4608C109.336 20.0999 109.352 24.3933 106.713 27.0599L106.712 27.0604C104.126 29.6701 100.572 33.2605 96.7599 37.1092ZM87.6794 26.9588C82.8184 21.7554 75.8976 18.5 68.2223 18.5C62.7301 18.5 57.6243 20.1667 53.3831 23.0213L54.3332 22.9729C54.78 22.9503 55.2137 23.1274 55.517 23.4565C55.8202 23.7855 55.9614 24.2322 55.9023 24.6757L55.8247 25.2583C59.421 23.0079 63.6709 21.7068 68.2223 21.7068C75.017 21.7068 81.1401 24.6064 85.4193 29.2355L87.6794 26.9588ZM83.2952 31.3751C79.5623 27.2861 74.1897 24.7186 68.2223 24.7186C63.3107 24.7186 58.802 26.4575 55.2792 29.3529L54.108 38.1448C54.0308 38.7237 53.626 39.2059 53.069 39.3817C52.5122 39.5577 51.9036 39.3959 51.5079 38.9663L49.5631 36.8558C48.4399 39.384 47.8159 42.1821 47.8159 45.125C47.8159 56.3875 56.9596 65.5312 68.2223 65.5312C79.4217 65.5312 88.5259 56.4897 88.6277 45.3142C84.7185 49.2549 81.0581 52.9379 78.4036 55.5924C75.7509 58.245 71.4439 58.245 68.7911 55.5924L57.0722 43.8625C54.4201 41.2106 54.4175 36.9185 57.0693 34.2529L57.0722 34.2501C59.7248 31.5975 64.0318 31.5975 66.6846 34.2501L73.5881 41.1538L83.2952 31.3751ZM91.4867 42.4312C91.5881 43.3151 91.6404 44.2139 91.6404 45.125C91.6404 58.0498 81.1471 68.543 68.2223 68.543C55.2973 68.543 44.8041 58.0498 44.8041 45.125C44.8041 40.9034 45.9237 36.9415 47.8814 33.5195C47.9226 33.4442 47.9706 33.3718 48.0256 33.3031C48.1189 33.1858 48.2277 33.0855 48.3471 33.0032C48.5562 32.8584 48.793 32.7732 49.0347 32.7463C49.2762 32.719 49.526 32.7496 49.762 32.8443C49.8968 32.898 50.025 32.9718 50.1421 33.0655C50.2106 33.1201 50.2733 33.1798 50.3301 33.2438L51.5467 34.564L52.6778 26.0728L44.1225 26.5076L45.9207 28.4588C45.9889 28.53 46.0491 28.607 46.1011 28.6883C46.2377 28.9016 46.3149 29.141 46.3335 29.3836C46.3524 29.6263 46.313 29.8747 46.2108 30.1066C46.172 30.1947 46.1246 30.2798 46.0683 30.3604C43.2442 34.5866 41.5973 39.665 41.5973 45.125C41.5973 59.8196 53.5275 71.7497 68.2223 71.7497C82.9169 71.7497 94.847 59.8196 94.847 45.125C94.847 43.2368 94.6501 41.3942 94.2757 39.6168C93.3489 40.5524 92.416 41.4937 91.4867 42.4312ZM76.274 53.4627C80.598 49.1387 101.848 27.6904 104.572 24.9411C106.042 23.4563 106.036 21.0655 104.559 19.596C103.083 18.1272 100.686 18.1352 99.2167 19.6114L74.6609 44.3483C74.3787 44.6324 73.9953 44.7926 73.5949 44.7933C73.1945 44.7941 72.8103 44.6352 72.5272 44.3523L64.5549 36.3798C63.078 34.9031 60.6804 34.9025 59.2032 36.3784C57.7265 37.8642 57.7242 40.2553 59.2017 41.733L70.9208 53.4627C72.3981 54.9399 74.7968 54.9399 76.274 53.4627Z" fill="#FF6911"/>
<path d="M17.4912 82.0724L20.1094 81.1996L22.7276 79.4542L36.6912 103.018L31.4548 106.509L17.4912 82.0724Z" fill="#FF6911"/>
<path d="M72.473 55.0178L57.6367 40.1815V37.5633L59.3821 34.9451H63.7458L73.3458 44.5451L100.4 18.3633L104.764 19.236L106.509 23.5996L75.9639 55.0178H72.473Z" fill="#FF6911"/>
<path d="M17.4912 82.0724L20.1094 81.1996L22.7276 79.4542L36.6912 103.018L31.4548 106.509L17.4912 82.0724Z" stroke="#FF6911"/>
<path d="M72.473 55.0178L57.6367 40.1815V37.5633L59.3821 34.9451H63.7458L73.3458 44.5451L100.4 18.3633L104.764 19.236L106.509 23.5996L75.9639 55.0178H72.473Z" stroke="#FF6911"/>
</svg>
