<svg width="125" height="125" viewBox="0 0 125 125" fill="none" xmlns="http://www.w3.org/2000/svg">
<path d="M110.939 32.1857L91.8138 13.0607C91.515 12.7618 91.1097 12.5938 90.687 12.5938H49.2495C46.6135 12.5938 44.4683 14.7389 44.4683 17.375V62.3682C44.1671 62.875 43.6587 63.1921 43.0977 63.1921H20.2943C19.9328 63.1923 19.5821 63.3154 19.2998 63.5412L13.1941 68.4117C13.0071 68.5609 12.8561 68.7504 12.7524 68.9661C12.6486 69.1817 12.5947 69.4179 12.5947 69.6572C12.5947 69.8965 12.6486 70.1327 12.7524 70.3483C12.8561 70.5639 13.0071 70.7534 13.1941 70.9027L19.2998 75.7748C19.5835 75.9995 19.9341 76.1222 20.2943 76.1222H23.5344C23.957 76.1221 24.3623 75.9542 24.6612 75.6553L25.9712 74.3484L27.2781 75.6553C27.577 75.954 27.9823 76.1219 28.4049 76.1219C28.8275 76.1219 29.2328 75.954 29.5317 75.6553L30.8401 74.3484L32.1502 75.6553C32.4491 75.954 32.8544 76.1219 33.277 76.1219C33.6996 76.1219 34.1049 75.954 34.4038 75.6553L35.7106 74.3484L37.0207 75.6553C37.3195 75.9542 37.7248 76.1221 38.1475 76.1222H43.1008C43.6571 76.1222 44.1687 76.441 44.4699 76.9494V106.625C44.4699 109.261 46.6151 111.406 49.2511 111.406H106.626C109.262 111.406 111.407 109.261 111.407 106.625V33.3125C111.407 32.8898 111.238 32.4845 110.939 32.1857ZM92.2808 18.0348L105.965 31.7188H92.2808V18.0348ZM43.0977 72.9347H38.8057L36.8374 70.9664C36.5385 70.6677 36.1332 70.4998 35.7106 70.4998C35.288 70.4998 34.8827 70.6677 34.5838 70.9664L33.2738 72.2749L31.9669 70.9664C31.8189 70.8183 31.6431 70.7007 31.4496 70.6205C31.2562 70.5403 31.0488 70.499 30.8393 70.499C30.6299 70.499 30.4225 70.5403 30.229 70.6205C30.0355 70.7007 29.8598 70.8183 29.7118 70.9664L28.4033 72.2749L27.0964 70.9664C26.9484 70.8183 26.7726 70.7007 26.5791 70.6205C26.3857 70.5403 26.1783 70.499 25.9688 70.499C25.7594 70.499 25.552 70.5403 25.3585 70.6205C25.165 70.7007 24.9893 70.8183 24.8413 70.9664L22.873 72.9331H20.8489L16.7434 69.6564L20.8505 66.378H43.0992C44.8938 66.378 46.5274 65.3644 47.3657 63.7324C48.5009 61.5131 50.2489 59.666 52.4024 58.4103C54.5558 57.1546 57.0243 56.543 59.5149 56.6482C66.215 56.9367 71.6768 62.4128 71.9493 69.1113C72.027 70.8663 71.746 72.6186 71.1237 74.2614C70.5014 75.9041 69.5508 77.4028 68.3299 78.6658C67.12 79.9372 65.6635 80.9486 64.0495 81.638C62.4355 82.3275 60.6978 82.6806 58.9427 82.6757C56.5469 82.6777 54.1974 82.0163 52.1545 80.7648C50.1116 79.5132 48.4552 77.7204 47.3689 75.5851C46.529 73.9499 44.8938 72.9347 43.0977 72.9347ZM106.625 108.219H49.2495C48.8268 108.219 48.4215 108.051 48.1226 107.752C47.8237 107.453 47.6558 107.048 47.6558 106.625V81.2302C50.6001 84.1349 54.5475 85.7915 58.6761 85.8624C58.7644 85.864 58.8527 85.8647 58.9411 85.8648C59.1294 85.8648 59.3171 85.8616 59.5043 85.8553C63.7387 85.7122 67.6701 83.9564 70.6281 80.8764C72.1485 79.3048 73.3323 77.4395 74.107 75.3946C74.8666 73.3895 75.2173 71.2532 75.1388 69.1113C75.1372 69.0688 75.1355 69.0263 75.1336 68.9838C74.9981 65.6527 73.8322 62.5651 71.9493 60.0347C70.1613 57.6317 67.7267 55.7312 64.9138 54.6018C63.2711 53.9422 61.4993 53.5456 59.6519 53.4655C55.1161 53.2774 50.8066 55.0273 47.6558 58.0969V17.375C47.6558 16.9523 47.8237 16.5469 48.1226 16.248C48.4215 15.9492 48.8268 15.7812 49.2495 15.7812H89.0933V31.7188C89.0933 31.8773 89.1049 32.0333 89.1274 32.1857C89.3539 33.723 90.6815 34.9062 92.2808 34.9062H108.218V106.625C108.218 107.048 108.05 107.453 107.751 107.752C107.453 108.051 107.047 108.219 106.625 108.219Z" fill="#FF6911"/>
<path d="M49.2495 108.219H106.625C107.047 108.219 107.453 108.051 107.751 107.752C108.05 107.453 108.218 107.048 108.218 106.625V34.9062H92.2808C90.6815 34.9062 89.3539 33.723 89.1274 32.1857C89.1049 32.0333 89.0933 31.8773 89.0933 31.7188V15.7812H49.3071H49.2495H48.5082L48.1226 16.248L47.6558 16.7227V17.375V58.0969C50.8066 55.0273 55.1161 53.2774 59.6519 53.4655C61.4993 53.5456 63.2711 53.9422 64.9138 54.6018C67.7267 55.7312 70.1613 57.6317 71.9493 60.0347C73.8322 62.5651 74.9981 65.6527 75.1336 68.9838C75.1355 69.0263 75.1372 69.0688 75.1388 69.1113C75.2173 71.2532 74.8666 73.3895 74.107 75.3946C73.3323 77.4395 72.1485 79.3048 70.6281 80.8764C67.6701 83.9564 63.7387 85.7122 59.5043 85.8553L59.0853 86.0429L58.6761 85.8624C54.5475 85.7915 50.6001 84.1349 47.6558 81.2302V106.625C47.6558 107.048 47.8237 107.453 48.1226 107.752C48.4215 108.051 48.8268 108.219 49.2495 108.219Z" fill="#FF6911"/>
<path d="M63.9922 74.4375C66.6283 74.4375 68.7734 72.2923 68.7734 69.6563C68.7734 67.0202 66.6283 64.875 63.9922 64.875C61.3561 64.875 59.2109 67.0186 59.2109 69.6563C59.2109 72.2939 61.3561 74.4375 63.9922 74.4375ZM63.9922 68.0625C64.4149 68.0627 64.8202 68.2308 65.1189 68.5299C65.4176 68.8289 65.5854 69.2344 65.5851 69.657C65.5849 70.0797 65.4168 70.485 65.1178 70.7838C64.8187 71.0825 64.4133 71.2502 63.9906 71.25C63.7813 71.2499 63.5741 71.2086 63.3808 71.1284C63.1874 71.0482 63.0118 70.9307 62.8639 70.7826C62.716 70.6346 62.5986 70.4588 62.5187 70.2654C62.4387 70.072 62.3975 69.8648 62.3976 69.6555C62.3977 69.4462 62.4391 69.2389 62.5193 69.0456C62.5995 68.8523 62.7169 68.6767 62.865 68.5287C63.0131 68.3808 63.1888 68.2635 63.3822 68.1835C63.5756 68.1035 63.7829 68.0624 63.9922 68.0625Z" fill="#FF6911"/>
</svg>
