<svg width="855" height="727" viewBox="0 0 855 727" fill="none" xmlns="http://www.w3.org/2000/svg">
<path d="M622.06 248.632L732.977 612.124L647.388 596.287L647.565 595.3L731.523 610.834L621.288 249.576L6.40114 199.505L248.547 521.484L588.095 584.299L587.918 585.286L247.972 522.399L247.852 522.236L4.24952 198.321L5.35934 198.413L622.06 248.632Z" fill="#27292A" fill-opacity="0.6"/>
<path d="M242.256 467.393C257.746 473.879 269.374 482.508 287.01 495.594C295.021 501.539 304.104 508.276 315.392 516.209C322.161 520.967 330.036 524.822 338.798 527.668L338.49 528.622C329.628 525.742 321.662 521.841 314.808 517.022C303.511 509.083 294.424 502.34 286.407 496.392C256.187 473.969 243.68 464.689 198.84 456.831L199.003 455.842C217.896 459.154 231.082 462.715 242.256 467.393Z" fill="#27292A" fill-opacity="0.6"/>
<path d="M721.577 576.716L721.992 577.639C721.821 577.712 704.656 584.945 682.07 590.469C661.2 595.571 631.289 600.213 607.329 593.351C585.87 587.207 569.341 573.458 554.757 561.326C543.516 551.975 532.898 543.146 521.426 538.741C511.845 535.063 499.86 533.009 484.787 532.459L484.813 531.455C500.002 532.01 512.095 534.088 521.784 537.805C533.417 542.269 544.099 551.155 555.408 560.563C569.914 572.628 586.354 586.305 607.603 592.387C631.345 599.182 661.055 594.568 681.801 589.498C704.305 583.994 721.408 576.786 721.577 576.716Z" fill="#27292A" fill-opacity="0.6"/>
<path d="M717.106 561.62L710.843 564.921L707.705 566.56L704.541 568.148C702.425 569.197 700.323 570.277 698.197 571.307L691.796 574.355C683.222 578.344 674.517 582.097 665.595 585.358L662.24 586.562L660.559 587.155L655.46 588.78C654.892 588.955 654.33 589.151 653.754 589.309L648.589 590.755C648.301 590.833 648.014 590.92 647.726 590.991L646.853 591.198L645.11 591.613C643.945 591.882 642.783 592.161 641.617 592.415L638.087 593.071L636.32 593.393C635.73 593.497 635.13 593.554 634.538 593.636L630.971 594.095C630.38 594.184 629.78 594.216 629.178 594.261L627.383 594.386C626.185 594.46 624.993 594.581 623.788 594.576L620.188 594.612C618.99 594.618 617.786 594.52 616.59 594.468L614.794 594.375C614.195 594.342 613.598 594.251 613.003 594.191C611.811 594.058 610.621 593.918 609.433 593.765L609.486 593.066C610.674 593.06 611.861 593.064 613.044 593.078C613.634 593.079 614.226 593.102 614.817 593.085L616.588 593.025L618.358 592.969C618.948 592.945 619.536 592.959 620.125 592.901L623.647 592.637C624.824 592.586 625.989 592.415 627.155 592.284L628.906 592.078C629.488 592.003 630.077 591.963 630.653 591.857L634.133 591.307C634.712 591.209 635.293 591.137 635.87 591.019L637.597 590.677L641.052 590.001C642.198 589.742 643.334 589.453 644.479 589.186L646.194 588.785L647.053 588.586C647.337 588.517 647.619 588.432 647.903 588.355L651.3 587.419C655.829 586.16 660.295 584.674 664.738 583.126L666.407 582.553C666.963 582.362 667.51 582.141 668.064 581.939L673.021 580.08C673.575 579.877 674.122 579.664 674.667 579.439L677.944 578.127L681.227 576.82L684.486 575.449L687.742 574.074L689.372 573.39L690.991 572.681C699.648 568.943 708.195 564.95 716.773 561.013L717.106 561.62Z" fill="#27292A" fill-opacity="0.6"/>
<path d="M706.331 526.332C704.305 527.273 702.27 528.167 700.226 529.054C698.176 529.928 696.118 530.78 694.054 531.618C689.922 533.294 685.759 534.895 681.57 536.434C673.175 539.466 664.678 542.248 656.04 544.599C651.722 545.776 647.378 546.885 642.99 547.815C641.898 548.068 640.794 548.28 639.694 548.501C638.594 548.721 637.496 548.953 636.387 549.141L633.067 549.733L629.732 550.249C625.274 550.887 620.785 551.362 616.269 551.601C611.755 551.809 607.185 551.754 602.669 551.342C598.163 550.959 593.677 550.323 589.225 549.539C584.772 548.754 580.346 547.799 575.978 546.644C567.23 544.366 558.656 541.501 550.233 538.322C546.018 536.741 541.824 535.116 537.643 533.489C533.461 531.865 529.271 530.266 525.048 528.802C520.829 527.326 516.554 526.021 512.202 525.101C511.116 524.846 510.017 524.694 508.927 524.494C508.378 524.402 507.827 524.353 507.278 524.279C506.727 524.211 506.177 524.129 505.625 524.101L503.967 523.976C503.414 523.94 502.863 523.952 502.309 523.934L501.477 523.919C501.202 523.916 500.925 523.941 500.649 523.949L498.992 524.026L498.895 523.207L500.587 523.064C500.869 523.044 501.153 523.008 501.433 523.002L502.282 522.984C502.849 522.979 503.416 522.948 503.981 522.964L505.681 523.031C506.25 523.04 506.812 523.109 507.377 523.161C507.94 523.219 508.507 523.257 509.068 523.336C510.189 523.508 511.318 523.633 512.426 523.862C516.884 524.678 521.254 525.88 525.553 527.253C534.141 530.03 542.513 533.314 550.956 536.331C555.175 537.84 559.409 539.298 563.674 540.645C567.936 541.991 572.229 543.227 576.559 544.315C577.642 544.577 578.722 544.862 579.81 545.104L583.07 545.842C585.254 546.289 587.435 546.75 589.632 547.111C594.017 547.871 598.431 548.484 602.861 548.846C603.414 548.893 603.968 548.955 604.52 548.994L607.823 549.181C608.374 549.216 608.926 549.201 609.478 549.215L611.965 549.245C612.242 549.245 612.518 549.23 612.793 549.226L616.11 549.133C620.532 548.916 624.949 548.453 629.342 547.847C638.137 546.628 646.832 544.732 655.44 542.522C659.747 541.423 664.019 540.198 668.279 538.92C672.538 537.645 676.772 536.291 680.986 534.867C689.417 532.05 697.762 528.943 705.978 525.579L706.331 526.332Z" fill="#27292A" fill-opacity="0.6"/>
<path d="M726.881 593.279L726.819 594.283C700.827 592.388 682.079 592.15 667.821 593.532L667.708 592.532C682.028 591.144 700.827 591.381 726.881 593.279Z" fill="#27292A" fill-opacity="0.6"/>
<path d="M692.4 481.672C678.577 480.269 664.717 479.193 650.86 478.33C643.931 477.907 636.997 477.572 630.067 477.315C623.135 477.054 616.206 476.896 609.281 476.873C605.821 476.859 602.358 476.884 598.902 476.955C597.175 476.989 595.444 477.014 593.719 477.078C591.991 477.13 590.266 477.186 588.543 477.28C581.649 477.607 574.778 478.147 568.004 479.115L560.384 480.373C559.539 480.523 558.704 480.71 557.866 480.877L552.832 481.903L545.999 483.611L545.388 483.793L542.942 484.53C541.313 485.033 539.667 485.474 538.08 486.081L534.477 487.366C534.077 487.51 533.672 487.641 533.286 487.813L528.586 489.761C522.383 492.504 516.431 495.769 510.684 499.38L508.54 500.754C507.824 501.212 507.106 501.665 506.41 502.156L502.202 505.046C499.438 507.044 496.665 509.028 493.947 511.103C488.483 515.21 483.089 519.452 477.665 523.669C474.961 525.779 472.233 527.894 469.452 529.951C466.683 532.016 463.87 534.033 461.019 536.002C455.326 539.952 449.411 543.62 443.264 546.919C442.492 547.324 441.731 547.748 440.948 548.137L438.608 549.317L436.233 550.431C435.444 550.807 434.632 551.141 433.833 551.499C430.619 552.888 427.34 554.149 423.998 555.235C420.658 556.326 417.238 557.202 413.78 557.877C412.051 558.207 410.309 558.504 408.561 558.728C407.692 558.864 406.808 558.921 405.933 559.019C405.056 559.119 404.174 559.163 403.296 559.223C396.257 559.67 389.176 559.129 382.306 557.753L382.478 556.618C385.914 557.028 389.356 557.245 392.793 557.281C396.228 557.303 399.653 557.139 403.043 556.751C403.89 556.649 404.739 556.562 405.58 556.422C406.424 556.286 407.266 556.179 408.103 556.014C409.781 555.728 411.447 555.371 413.101 554.984C413.924 554.774 414.75 554.573 415.572 554.356L418.021 553.657L420.446 552.882L422.853 552.053C429.247 549.763 435.376 546.808 441.306 543.491C447.244 540.18 452.936 536.437 458.536 532.55C461.329 530.596 464.088 528.592 466.809 526.537C469.538 524.491 472.223 522.38 474.945 520.28C480.372 516.082 485.786 511.846 491.315 507.715C494.059 505.633 496.879 503.622 499.689 501.603L503.986 498.667C504.696 498.171 505.433 497.707 506.168 497.24L508.369 495.835C514.266 492.131 520.447 488.813 526.886 486.028L531.76 484.051C532.162 483.875 532.581 483.746 532.995 483.597L536.724 482.3C538.368 481.688 540.068 481.243 541.748 480.74L544.904 479.816L545.542 479.659L551.929 478.116L557.081 477.107C557.94 476.944 558.796 476.759 559.658 476.613L567.435 475.428C574.401 474.522 581.382 474.065 588.363 473.821C595.342 473.58 602.319 473.574 609.286 473.723C616.254 473.869 623.218 474.151 630.172 474.534C637.128 474.921 644.074 475.43 651.012 476.002C657.951 476.571 664.882 477.255 671.804 477.998C678.727 478.737 685.637 479.58 692.543 480.518L692.4 481.672Z" fill="#27292A" fill-opacity="0.6"/>
<path d="M685.477 458.569C679.182 457.607 672.874 456.712 666.562 455.855C660.25 454.995 653.939 454.161 647.617 453.379C634.977 451.833 622.328 450.378 609.659 449.251C596.994 448.118 584.305 447.2 571.635 446.931C565.304 446.824 558.971 446.871 552.714 447.345C551.927 447.382 551.156 447.486 550.376 447.558L548.046 447.797L544.6 448.321C544.22 448.383 543.851 448.478 543.475 448.556L541.234 449.049L538.951 449.662C537.432 450.08 535.899 450.46 534.392 450.912C528.334 452.622 522.346 454.524 516.593 456.898C510.831 459.26 505.334 462.143 500.038 465.418C494.736 468.68 489.603 472.273 484.479 475.903L469.138 486.884C458.899 494.205 448.565 501.559 437.372 507.719C435.984 508.504 434.558 509.229 433.146 509.975L430.995 511.045L429.92 511.577L428.829 512.084C425.937 513.463 422.965 514.697 419.953 515.842L417.681 516.673L415.383 517.435C414.999 517.56 414.619 517.691 414.232 517.812L413.067 518.154C412.287 518.374 411.519 518.622 410.734 518.822C407.605 519.664 404.42 520.323 401.211 520.853L398.792 521.18C398.387 521.231 397.987 521.296 397.579 521.335L396.361 521.449C395.55 521.518 394.74 521.617 393.926 521.657L391.481 521.782C388.221 521.88 384.945 521.857 381.688 521.558C380.056 521.462 378.438 521.226 376.813 521.032C376 520.937 375.2 520.776 374.393 520.649L372.581 520.346L371.978 520.217C370.375 519.865 368.762 519.548 367.184 519.083L365.993 518.762C365.594 518.657 365.2 518.549 364.809 518.415L362.465 517.647C359.37 516.54 356.308 515.308 353.402 513.766L352.303 513.208L351.232 512.6C350.521 512.19 349.797 511.803 349.099 511.37L347.021 510.054C346.672 509.839 346.335 509.604 346.001 509.37L344.993 508.665C342.313 506.786 339.764 504.726 337.374 502.515C334.983 500.308 332.688 498.003 330.581 495.548C328.463 493.104 326.468 490.566 324.586 487.963C322.7 485.358 320.95 482.669 319.28 479.948C317.612 477.221 316.032 474.451 314.509 471.661C312.985 468.871 311.527 466.05 310.065 463.246C309.325 461.846 308.588 460.458 307.826 459.078C307.065 457.694 306.301 456.309 305.513 454.946C303.934 452.22 302.313 449.52 300.39 447.041C298.486 444.552 296.366 442.226 293.977 440.182C293.696 439.909 293.37 439.682 293.064 439.434L291.208 437.976L290.232 437.31L288.273 435.983L286.235 434.774C280.763 431.592 274.842 429.211 268.853 427.102L267.734 426.698L264.329 425.599C262.818 425.107 261.304 424.622 259.777 424.142L255.208 422.7C253.682 422.228 252.172 421.708 250.654 421.214C249.138 420.709 247.618 420.222 246.106 419.705L241.576 418.145C240.063 417.631 238.558 417.091 237.056 416.55L232.548 414.919C226.553 412.703 220.596 410.379 214.68 407.967C208.771 405.537 202.895 403.029 197.057 400.447L188.3 396.6C186.843 395.964 185.389 395.309 183.929 394.686L181.74 393.741L179.543 392.825C173.709 390.367 167.7 388.326 161.612 386.545C158.564 385.668 155.492 384.856 152.397 384.154C150.848 383.807 149.299 383.459 147.737 383.16C146.178 382.851 144.611 382.565 143.046 382.334L143.085 381.835C146.286 382.038 149.452 382.476 152.614 382.992C155.772 383.528 158.913 384.155 162.027 384.918C165.142 385.679 168.248 386.498 171.306 387.474C172.074 387.701 172.836 387.955 173.6 388.21C174.362 388.464 175.126 388.711 175.888 388.972C177.4 389.514 178.919 390.056 180.409 390.651L182.649 391.527L184.874 392.43C186.359 393.027 187.831 393.646 189.305 394.263L198.105 398.031C203.967 400.54 209.814 403.072 215.682 405.546C218.617 406.782 221.55 408.021 224.502 409.217C227.443 410.438 230.399 411.614 233.351 412.807C239.279 415.129 245.21 417.453 251.208 419.591C252.708 420.128 254.196 420.69 255.705 421.206L260.223 422.76L264.748 424.325L268.147 425.509L269.269 425.932C270.765 426.504 272.272 427.041 273.756 427.64C275.235 428.263 276.721 428.856 278.186 429.502L280.368 430.517C281.092 430.86 281.836 431.164 282.541 431.554L284.678 432.666C285.031 432.854 285.394 433.027 285.742 433.227L286.781 433.84L288.862 435.062L290.867 436.409L291.869 437.086L293.784 438.562C294.099 438.813 294.433 439.04 294.726 439.318L296.535 440.924C296.843 441.183 297.117 441.482 297.4 441.768L298.245 442.632C298.522 442.922 298.816 443.201 299.085 443.502L299.873 444.415C300.395 445.029 300.944 445.621 301.414 446.271C301.9 446.909 302.4 447.542 302.871 448.188L304.241 450.164C304.701 450.82 305.114 451.5 305.553 452.17L306.202 453.177L306.823 454.198C307.658 455.555 308.467 456.922 309.27 458.291C310.078 459.662 310.864 461.045 311.642 462.425C314.773 467.935 317.899 473.414 321.428 478.627C324.931 483.85 328.787 488.819 333.071 493.366C337.365 497.899 342.077 502.024 347.251 505.441C349.817 507.178 352.513 508.709 355.285 510.08C358.046 511.475 360.926 512.612 363.842 513.619L366.049 514.326C366.413 514.453 366.788 514.552 367.161 514.65L368.28 514.948C369.764 515.381 371.285 515.674 372.793 516.004L373.359 516.125L373.934 516.225L375.082 516.419C375.847 516.54 376.611 516.701 377.378 516.79C378.918 516.975 380.452 517.208 382 517.302C385.087 517.594 388.186 517.624 391.278 517.541L393.594 517.431C394.366 517.396 395.133 517.301 395.905 517.239L397.059 517.136C397.443 517.101 397.827 517.041 398.208 516.994L400.506 516.691C403.559 516.198 406.592 515.584 409.58 514.788C410.331 514.599 411.068 514.364 411.812 514.158L412.926 513.834C413.298 513.722 413.664 513.596 414.031 513.478L416.239 512.754L418.424 511.963C421.325 510.873 424.197 509.691 427.005 508.364L428.062 507.875L429.108 507.361L431.199 506.327C432.575 505.606 433.966 504.902 435.326 504.142C446.256 498.15 456.558 490.997 466.826 483.746L482.263 472.863C487.435 469.257 492.644 465.662 498.099 462.36C503.549 459.059 509.294 456.131 515.256 453.762C521.212 451.379 527.336 449.512 533.482 447.847C535.013 447.408 536.561 447.038 538.099 446.635L540.408 446.04L542.815 445.538C543.217 445.46 543.621 445.36 544.022 445.3L547.639 444.793L550.05 444.571C550.853 444.505 551.659 444.407 552.461 444.377C558.885 443.98 565.29 444.028 571.678 444.228C578.066 444.446 584.438 444.853 590.8 445.347C592.392 445.477 593.981 445.596 595.568 445.738L600.332 446.168C603.505 446.482 606.68 446.79 609.848 447.142C616.191 447.823 622.523 448.579 628.846 449.393C635.172 450.202 641.489 451.067 647.796 451.991C660.414 453.828 673.001 455.845 685.558 458.084L685.477 458.569Z" fill="#27292A" fill-opacity="0.6"/>
<path d="M678.713 436.524C654.686 433.725 630.666 430.867 606.633 428.137C594.616 426.787 582.603 425.384 570.585 424.141C558.552 422.9 546.542 421.549 534.512 421.005C522.496 420.463 510.422 420.697 498.648 422.698C495.71 423.207 492.786 423.798 489.908 424.534C487.027 425.277 484.185 426.138 481.39 427.127C475.795 429.143 470.302 431.513 464.826 433.93C453.88 438.778 442.987 443.851 431.785 448.279C426.184 450.492 420.514 452.563 414.745 454.376C408.977 456.185 403.112 457.751 397.134 458.889C391.16 460.011 385.07 460.711 378.935 460.754C378.553 460.757 378.169 460.774 377.785 460.765L374.331 460.656C373.562 460.613 372.798 460.536 372.031 460.479L370.881 460.386L370.307 460.337L369.734 460.26C368.208 460.042 366.668 459.875 365.172 459.56L362.911 459.132L359.544 458.363L358.431 458.068L356.208 457.47C355.471 457.256 354.739 457.018 354.006 456.795L352.908 456.454C352.542 456.341 352.182 456.205 351.821 456.079L349.648 455.317L347.501 454.484L346.429 454.064L345.371 453.61C344.668 453.305 343.96 453.012 343.257 452.696C340.468 451.423 337.733 450.036 335.054 448.552C332.388 447.044 329.78 445.452 327.225 443.777C322.128 440.412 317.261 436.747 312.489 433.021C310.099 431.162 307.729 429.293 305.327 427.483C302.926 425.677 300.497 423.921 297.977 422.366C297.353 421.959 296.703 421.615 296.068 421.244C295.425 420.884 294.77 420.563 294.116 420.228L293.123 419.779L292.625 419.556L292.118 419.366L291.105 418.981L290.047 418.643C287.221 417.746 284.311 417.061 281.374 416.483C275.492 415.339 269.504 414.604 263.508 413.872C257.511 413.144 251.491 412.435 245.489 411.559C239.485 410.679 233.491 409.641 227.555 408.3C224.586 407.63 221.632 406.9 218.702 406.068C215.766 405.259 212.862 404.329 209.981 403.344C208.546 402.83 207.106 402.336 205.688 401.772C204.978 401.492 204.263 401.233 203.558 400.941L201.448 400.065C200.74 399.78 200.048 399.468 199.354 399.159L195.192 397.301L193.133 396.319C187.632 393.726 182.267 390.86 177 387.851C171.73 384.847 166.549 381.711 161.301 378.716C156.054 375.719 150.731 372.86 145.257 370.3C139.792 367.726 134.209 365.41 128.551 363.269L128.795 362.6C134.503 364.653 140.153 366.881 145.683 369.388C151.217 371.893 156.605 374.703 161.908 377.645C167.212 380.586 172.432 383.656 177.719 386.583C182.999 389.518 188.366 392.28 193.836 394.824L195.886 395.784L197.958 396.691L200.031 397.595C200.72 397.898 201.412 398.202 202.109 398.476L204.198 399.325C204.896 399.607 205.603 399.859 206.306 400.128C207.71 400.673 209.135 401.15 210.555 401.646C213.409 402.599 216.283 403.494 219.188 404.272C222.087 405.072 225.017 405.774 227.957 406.414C233.84 407.697 239.787 408.679 245.757 409.508C251.729 410.332 257.729 410.992 263.744 411.678C269.754 412.368 275.785 413.096 281.791 414.234C284.791 414.812 287.788 415.502 290.739 416.426L291.844 416.776L293.514 417.399L295.129 418.119C295.826 418.473 296.529 418.814 297.208 419.193C297.879 419.582 298.569 419.947 299.217 420.364C301.853 421.978 304.341 423.762 306.779 425.584C309.216 427.408 311.603 429.273 313.994 431.119C318.763 434.825 323.571 438.44 328.584 441.738C331.096 443.376 333.654 444.937 336.262 446.406C338.883 447.854 341.552 449.204 344.275 450.442C344.956 450.748 345.648 451.034 346.333 451.329L347.363 451.771L350.498 452.985L352.612 453.722C352.965 453.841 353.316 453.973 353.671 454.085L354.741 454.414C355.455 454.63 356.165 454.858 356.882 455.067L359.043 455.646L360.123 455.932L361.216 456.179L363.397 456.676L365.594 457.089C367.061 457.395 368.528 457.549 369.996 457.765L370.548 457.84L371.104 457.888L372.214 457.98C372.954 458.036 373.69 458.113 374.433 458.155L377.774 458.261C378.144 458.268 378.516 458.253 378.89 458.25C384.835 458.214 390.773 457.541 396.632 456.447C402.49 455.339 408.265 453.804 413.962 452.022C419.66 450.238 425.278 448.196 430.839 446.006C441.962 441.617 452.844 436.623 463.833 431.786C469.334 429.38 474.871 427.01 480.579 424.973C483.446 423.97 486.364 423.094 489.31 422.346C492.258 421.602 495.241 421.003 498.241 420.503C510.258 418.538 522.481 418.384 534.586 419.003C546.704 419.628 558.744 421.057 570.755 422.368C576.768 423.031 582.781 423.723 588.788 424.437C594.794 425.144 600.8 425.88 606.801 426.625L642.808 431.154C654.81 432.672 666.802 434.233 678.798 435.81L678.713 436.524Z" fill="#27292A" fill-opacity="0.6"/>
<path d="M671.507 412.694C647.928 410.495 624.35 408.274 600.762 406.173L565.382 403.023L547.687 401.512L543.264 401.142L529.999 400.189C528.525 400.068 527.051 400.009 525.572 399.933L514.505 399.383L503.433 399.055L501.218 398.986L494.575 398.9C488.669 398.782 482.763 398.849 476.857 398.854C470.95 398.943 465.044 399.009 459.14 399.179C447.327 399.457 435.517 399.914 423.684 400.188C411.853 400.455 399.992 400.539 388.128 400.006C385.163 399.848 382.194 399.768 379.234 399.485L374.79 399.121L372.568 398.933C371.828 398.866 371.09 398.76 370.353 398.676C367.404 398.314 364.443 397.97 361.505 397.544L357.109 396.881L352.718 396.176C341.013 394.293 329.352 392.154 317.628 390.491C311.77 389.651 305.891 388.939 300.006 388.446C294.12 387.945 288.216 387.672 282.333 387.8C276.448 387.915 270.562 388.357 264.667 388.761C258.771 389.173 252.864 389.58 246.933 389.839C235.085 390.368 223.112 390.253 211.2 388.678L205.634 387.819L204.526 387.598L202.312 387.145C199.348 386.607 196.446 385.751 193.522 385.001C187.751 383.309 182.093 381.267 176.568 378.935C171.049 376.588 165.656 373.968 160.404 371.113C155.145 368.277 150.032 365.209 144.986 362.067C139.958 358.901 134.978 355.689 129.969 352.556C124.937 349.467 119.865 346.434 114.378 344.213L114.511 343.816C117.377 344.642 120.167 345.746 122.886 346.978C125.611 348.202 128.27 349.558 130.895 350.962C133.525 352.36 136.125 353.804 138.704 355.271L146.444 359.642C151.595 362.552 156.772 365.39 162.027 368.039C164.65 369.377 167.306 370.634 169.97 371.872C172.637 373.105 175.336 374.249 178.046 375.369C180.768 376.462 183.503 377.513 186.272 378.466C189.03 379.443 191.824 380.319 194.631 381.136C197.45 381.863 200.241 382.684 203.108 383.225L205.247 383.682L206.315 383.908L207.396 384.086L211.715 384.811C212.433 384.948 213.163 385.011 213.886 385.111L216.062 385.388L218.24 385.673C218.967 385.753 219.699 385.813 220.425 385.885L224.803 386.294L229.194 386.59C230.659 386.707 232.128 386.735 233.595 386.802C235.063 386.858 236.53 386.933 238 386.951L242.413 387.045L246.831 387.058C252.725 387.044 258.624 386.923 264.533 386.742C267.488 386.653 270.445 386.565 273.408 386.498C276.369 386.437 279.332 386.369 282.306 386.401C294.204 386.528 305.997 388.016 317.748 389.534L352.983 394.222L361.787 395.372C362.519 395.476 363.253 395.555 363.985 395.633L366.181 395.872L370.574 396.377C371.305 396.455 372.037 396.559 372.772 396.62L374.976 396.797L379.384 397.16C382.316 397.45 385.266 397.537 388.209 397.704C411.783 398.824 435.41 397.569 459.067 397.105C464.978 396.953 470.901 396.908 476.819 396.839C482.739 396.85 488.659 396.804 494.583 396.94L501.246 397.049L503.465 397.126L514.567 397.532L525.663 398.164C527.142 398.247 528.621 398.322 530.099 398.452L543.394 399.501L547.818 399.904L565.505 401.538C577.296 402.653 589.087 403.778 600.87 404.954L636.216 408.547L653.884 410.387L671.548 412.28L671.507 412.694Z" fill="#27292A" fill-opacity="0.6"/>
<path d="M664.075 388.743C652.165 387.289 640.239 385.922 628.311 384.634C616.377 383.366 604.437 382.192 592.487 381.178L583.52 380.46L574.551 379.845C568.572 379.523 562.583 379.171 556.613 379.189L554.376 379.18L552.131 379.222L547.642 379.321L538.662 379.561L520.695 380.084C508.715 380.416 496.735 380.759 484.746 381.025C478.751 381.156 472.754 381.221 466.75 381.24C463.748 381.24 460.747 381.222 457.741 381.196L450.98 381.049L448.726 380.965C442.716 380.788 436.696 380.326 430.698 379.749L429.57 379.647L428.447 379.517L421.711 378.726C420.217 378.538 418.729 378.31 417.236 378.102L412.765 377.458C400.859 375.629 389.056 373.248 377.287 370.81C365.518 368.364 353.788 365.8 342.002 363.598C330.214 361.426 318.358 359.647 306.437 358.931C300.473 358.582 294.49 358.428 288.507 358.38C282.522 358.327 276.537 358.353 270.545 358.424C258.568 358.557 246.577 358.783 234.57 358.716C222.562 358.648 210.523 358.328 198.502 357.059C192.497 356.411 186.488 355.551 180.556 354.165C179.817 353.989 179.07 353.825 178.336 353.637L171.767 351.865L165.258 349.901C164.535 349.678 163.823 349.43 163.104 349.198L158.808 347.765C157.378 347.283 155.963 346.756 154.541 346.254C151.693 345.261 148.881 344.167 146.06 343.098C140.447 340.897 134.869 338.612 129.354 336.194C123.836 333.783 118.356 331.289 112.921 328.706C110.201 327.425 107.49 326.123 104.783 324.82C102.073 323.54 99.3719 322.17 96.6451 321.047L96.9851 320.102C99.8647 321.152 102.589 322.38 105.356 323.574L113.617 327.185C119.124 329.578 124.641 331.949 130.197 334.207C131.588 334.764 132.968 335.356 134.365 335.901L138.544 337.56C139.934 338.12 141.343 338.634 142.742 339.173C144.146 339.699 145.539 340.253 146.95 340.754C149.764 341.776 152.57 342.824 155.41 343.774C156.826 344.255 158.236 344.758 159.661 345.217L163.935 346.579C164.649 346.805 165.357 347.044 166.072 347.26L172.522 349.156L179.016 350.857C179.739 351.036 180.461 351.19 181.182 351.355C184.069 352.016 186.997 352.528 189.929 353.01C191.402 353.214 192.871 353.452 194.347 353.631C195.825 353.805 197.301 354.01 198.786 354.149C204.711 354.775 210.67 355.201 216.638 355.479C222.604 355.771 228.584 355.949 234.569 356.045C246.535 356.24 258.519 356.178 270.511 356.204C276.507 356.221 282.507 356.237 288.511 356.342C294.514 356.457 300.523 356.603 306.535 356.987C318.57 357.739 330.512 359.508 342.354 361.611C354.198 363.737 365.968 366.179 377.743 368.523C389.514 370.875 401.302 373.09 413.137 374.886L422.024 376.118L428.703 376.903L429.816 377.032L430.932 377.134C436.882 377.694 442.824 378.193 448.802 378.413C460.744 378.972 472.724 379.14 484.703 379.17C496.685 379.213 508.664 379.014 520.641 378.732L538.61 378.307L547.599 378.118L552.093 378.043L554.343 378.014L556.601 378.036C562.621 378.049 568.612 378.438 574.608 378.793L583.589 379.441L592.561 380.18C604.522 381.213 616.466 382.432 628.401 383.704C640.337 384.974 652.269 386.318 664.19 387.755L664.075 388.743Z" fill="#27292A" fill-opacity="0.6"/>
<path d="M656.554 363.755C650.53 362.841 644.494 362.031 638.447 361.289C632.4 360.537 626.352 359.834 620.292 359.184C608.176 357.901 596.045 356.807 583.899 355.968C571.755 355.14 559.585 354.613 547.437 354.704C541.363 354.741 535.294 355.022 529.223 355.306C523.153 355.598 517.083 355.933 511.012 356.271L474.584 358.34C462.434 359.01 450.271 359.569 438.085 359.855C436.563 359.902 435.04 359.916 433.512 359.94C431.988 359.957 430.466 359.994 428.94 359.997L424.366 360.023C422.842 360.03 421.312 360.006 419.787 359.997C413.683 359.93 407.576 359.808 401.464 359.459C399.937 359.392 398.409 359.285 396.881 359.189C395.353 359.089 393.825 359 392.296 358.86C390.77 358.721 389.241 358.609 387.715 358.445L383.138 357.956L378.563 357.367C377.038 357.163 375.52 356.901 373.999 356.662C370.96 356.144 367.92 355.548 364.945 354.875C361.953 354.227 358.962 353.566 355.994 352.816L351.533 351.723C350.043 351.368 348.572 350.947 347.092 350.559L342.659 349.374C341.185 348.97 339.717 348.544 338.244 348.13L333.832 346.877L329.437 345.577C326.503 344.718 323.583 343.825 320.664 342.933L311.914 340.243C306.074 338.476 300.249 336.675 294.388 335.003L287.792 333.14L285.587 332.55L281.174 331.38C279.7 331.002 278.217 330.657 276.741 330.292C270.833 328.822 264.875 327.603 258.894 326.526C257.399 326.262 255.894 326.056 254.395 325.816L251.018 325.294C250.643 325.238 250.266 325.203 249.887 325.157L243.101 324.381L240.826 324.171C234.764 323.597 228.699 323.083 222.632 322.582L204.419 321.155C198.344 320.681 192.267 320.187 186.196 319.59C174.05 318.407 161.927 316.773 149.911 314.564L145.407 313.725C143.906 313.448 142.411 313.138 140.915 312.841C137.92 312.25 134.935 311.613 131.948 310.978C125.977 309.692 120.027 308.331 114.096 306.869C108.168 305.412 102.256 303.879 96.3761 302.236C93.4357 301.411 90.5005 300.573 87.5764 299.7C84.6484 298.837 81.7341 297.932 78.8296 296.977L78.9708 296.525C84.8299 298.192 90.7278 299.748 96.6406 301.217C102.555 302.689 108.483 304.095 114.427 305.436C120.366 306.788 126.329 308.031 132.296 309.254C135.282 309.849 138.268 310.45 141.261 311.001C142.759 311.276 144.248 311.581 145.748 311.843L150.242 312.645C151.738 312.924 153.239 313.15 154.739 313.401C156.24 313.645 157.738 313.903 159.242 314.12L163.751 314.805L168.266 315.431C174.293 316.241 180.33 316.935 186.382 317.56C192.435 318.163 198.495 318.715 204.561 319.255L222.767 320.856C228.835 321.408 234.906 321.979 240.968 322.604L243.242 322.835L250.071 323.676C250.83 323.759 251.585 323.879 252.342 324.001L254.609 324.355C256.116 324.599 257.634 324.81 259.139 325.078C265.151 326.186 271.151 327.383 277.088 328.829C278.574 329.187 280.063 329.527 281.546 329.902L285.984 331.039L288.203 331.602L294.838 333.384L303.666 335.816L312.482 338.278L321.304 340.697C324.246 341.494 327.187 342.298 330.132 343.06C341.911 346.162 353.748 348.973 365.661 351.313C368.641 351.937 371.596 352.464 374.574 352.925L376.814 353.247C377.561 353.35 378.302 353.483 379.054 353.566L383.549 354.125L388.06 354.586C389.564 354.741 391.075 354.845 392.579 354.975C394.085 355.116 395.596 355.22 397.107 355.324C398.617 355.43 400.127 355.545 401.639 355.62C413.734 356.315 425.876 356.601 438.023 356.68C450.171 356.774 462.326 356.614 474.482 356.334C480.559 356.168 486.637 355.989 492.712 355.757C498.787 355.515 504.863 355.28 510.937 354.997C517.01 354.725 523.087 354.451 529.168 354.221C535.249 354 541.332 353.782 547.428 353.809L551.997 353.838C553.521 353.849 555.042 353.91 556.567 353.947C558.09 353.995 559.611 354.012 561.134 354.088L565.698 354.289L567.98 354.393L570.262 354.526L574.822 354.78C577.861 354.965 580.902 355.18 583.939 355.387C596.091 356.283 608.22 357.452 620.337 358.776C626.397 359.425 632.449 360.129 638.495 360.882C644.545 361.636 650.587 362.423 656.621 363.305L656.554 363.755Z" fill="#27292A" fill-opacity="0.6"/>
<path d="M648.549 337.521C636.281 335.924 623.99 334.488 611.693 333.162C599.392 331.855 587.078 330.692 574.755 329.685C550.111 327.692 525.4 326.298 500.735 327.053C476.059 327.692 451.436 329.538 426.756 330.787C420.582 331.079 414.411 331.393 408.226 331.579C405.136 331.684 402.045 331.81 398.95 331.847C395.855 331.895 392.762 331.981 389.663 332.002C377.274 332.112 364.853 331.816 352.444 330.748L347.794 330.329L338.512 329.131L333.901 328.309C332.363 328.032 330.828 327.766 329.295 327.475L324.726 326.457L322.445 325.944C321.684 325.77 320.922 325.614 320.173 325.402L315.653 324.205C312.628 323.45 309.662 322.508 306.678 321.629L304.445 320.958L297.797 318.794C294.846 317.827 291.924 316.781 288.981 315.795L280.201 312.735C274.352 310.692 268.494 308.696 262.614 306.77L258.191 305.367C256.715 304.905 255.248 304.414 253.761 303.991L247.089 302.016C246.347 301.796 245.606 301.573 244.859 301.38C232.966 297.987 220.882 295.29 208.718 293.091C196.56 290.834 184.273 289.378 171.995 287.795L98.3328 278.463L61.4945 273.876L61.5493 273.391L98.3888 277.994L185.905 288.717C187.44 288.903 188.978 289.076 190.511 289.302L202.017 290.887L208.891 292.052C221.104 294.151 233.254 296.753 245.218 300.055C245.97 300.244 246.714 300.461 247.462 300.676L254.172 302.602C255.668 303.014 257.144 303.494 258.627 303.945L263.075 305.315C266.037 306.229 268.985 307.195 271.94 308.135L280.78 311.017C292.555 314.868 304.359 318.596 316.344 321.433L320.839 322.479C321.585 322.664 322.343 322.793 323.099 322.946L325.362 323.387L329.883 324.272C331.399 324.523 332.916 324.745 334.434 324.982L338.982 325.68L348.126 326.715L352.719 327.059L357.312 327.42C358.076 327.49 358.845 327.522 359.613 327.558L368.826 327.987L371.134 328.048C374.209 328.118 377.286 328.222 380.364 328.268L389.604 328.333C401.927 328.326 414.26 328.077 426.597 327.754C438.936 327.402 451.277 326.964 463.623 326.54C475.969 326.1 488.324 325.683 500.688 325.498L505.326 325.425L515.765 325.423L519.244 325.499C525.434 325.591 531.617 325.868 537.797 326.159L547.063 326.691L558.634 327.503L560.947 327.693L570.198 328.436L574.822 328.846C587.148 329.935 599.461 331.196 611.759 332.573C624.059 333.944 636.345 335.418 648.618 337.057L648.549 337.521Z" fill="#27292A" fill-opacity="0.6"/>
<path d="M639.966 309.708C627.499 308.354 615.029 307.064 602.553 305.804C590.076 304.565 577.593 303.375 565.111 302.217C552.627 301.066 540.138 299.96 527.648 298.893L508.907 297.351C502.656 296.839 496.421 296.362 490.171 296.035C477.671 295.406 465.156 295.216 452.646 295.29C440.136 295.374 427.627 295.727 415.118 296.098C402.606 296.46 390.09 296.901 377.552 297.049C365.016 297.221 352.456 297.132 339.894 296.448C333.617 296.07 327.339 295.561 321.083 294.782C319.519 294.583 317.955 294.403 316.396 294.16L314.056 293.814L312.887 293.643L311.718 293.444C310.167 293.171 308.606 292.924 307.061 292.628L302.431 291.729C290.089 289.33 277.835 286.525 265.612 283.639C241.166 277.882 216.812 271.758 192.149 267.181C179.821 264.889 167.432 262.944 154.992 261.424L145.656 260.345L117.601 257.308L42.7841 249.297L42.8844 248.299L117.692 256.386L145.747 259.387L155.101 260.459C167.561 261.977 179.985 263.845 192.339 266.101C204.697 268.341 216.985 270.975 229.232 273.751C241.48 276.525 253.686 279.469 265.927 282.224C278.168 284.98 290.451 287.521 302.791 289.688C315.096 292.025 327.519 293.191 339.996 293.832C352.471 294.442 364.972 294.547 377.478 294.439C389.986 294.335 402.499 294.068 415.02 293.836C421.28 293.718 427.545 293.62 433.811 293.559C440.075 293.49 446.342 293.469 452.611 293.504C465.149 293.54 477.693 293.853 490.225 294.583C496.49 294.934 502.754 295.441 508.996 295.975L527.734 297.593C540.227 298.707 552.713 299.863 565.195 301.064C577.679 302.269 590.157 303.516 602.633 304.794C615.11 306.058 627.584 307.35 640.054 308.712L639.966 309.708Z" fill="#27292A" fill-opacity="0.6"/>
<path d="M631.424 280.409L631.33 281.41C630.237 281.296 521.026 270.054 445.675 264.692C419.288 262.814 394.179 261.623 369.897 260.466C323.535 258.264 279.744 256.182 232.19 249.72C167.49 240.93 92.2698 231.181 24.9236 225.519L24.9962 224.517C92.3637 230.181 167.602 239.93 232.315 248.725C279.824 255.179 323.594 257.26 369.933 259.463C394.222 260.619 419.339 261.81 445.737 263.689C521.105 269.054 630.33 280.299 631.424 280.409Z" fill="#27292A" fill-opacity="0.6"/>
<path d="M252.196 437.673C253.826 438.356 255.426 439.058 256.997 439.785C291.977 455.945 322.749 491.795 323.056 492.155L322.278 492.796C321.974 492.437 291.341 456.759 256.571 440.697C221.777 424.622 171.258 419.502 170.753 419.454L170.84 418.454C171.333 418.494 217.587 423.183 252.196 437.673Z" fill="#27292A" fill-opacity="0.6"/>
<path d="M249.64 424.474C249.992 424.621 250.341 424.767 250.691 424.918C275.525 435.409 291.802 447.141 301.085 455.136C311.163 463.815 315.423 470.113 315.467 470.175L314.618 470.721C314.577 470.661 310.369 464.45 300.378 455.854C291.157 447.921 274.982 436.273 250.301 425.841C198.324 403.884 157.773 401.64 157.368 401.619L157.404 400.616C157.814 400.632 197.996 402.851 249.64 424.474Z" fill="#27292A" fill-opacity="0.6"/>
<path d="M238.005 450.473C240.273 451.423 242.526 452.428 244.761 453.483C260.14 460.752 274.539 470.382 290.08 483.783C316.942 506.952 330.591 514.464 330.728 514.536L330.246 515.414C330.111 515.339 316.379 507.793 289.415 484.533C267.368 465.517 235.628 443.153 185.446 438.963L185.519 437.961C204.464 439.546 221.711 443.651 238.005 450.473Z" fill="#27292A" fill-opacity="0.6"/>
<path d="M254.414 484.164C262.49 487.546 270.428 491.612 278.188 496.35C300.242 509.811 323.639 521.679 323.873 521.799L323.418 522.692C323.184 522.572 299.753 510.686 277.66 497.205C256.717 484.422 234.513 476.564 211.659 473.85L211.767 472.851C226.296 474.576 240.564 478.365 254.414 484.164Z" fill="#27292A" fill-opacity="0.6"/>
<path d="M303.878 511.178L303.526 512.117C252.062 492.788 223.814 489.659 223.535 489.629L223.629 488.629C223.911 488.66 252.272 491.792 303.878 511.178Z" fill="#27292A" fill-opacity="0.6"/>
<path d="M234.908 504.964L323.516 522.827L323.707 521.842L235.099 503.979L234.908 504.964Z" fill="#27292A" fill-opacity="0.6"/>
<path d="M567.176 570.182L566.801 571.112C566.615 571.037 547.789 563.506 525.481 558.782C503.14 554.047 459.353 546.974 458.914 546.903L459.063 545.911C459.502 545.983 503.317 553.06 525.681 557.801C548.084 562.547 566.989 570.107 567.176 570.182Z" fill="#27292A" fill-opacity="0.6"/>
<path d="M534.538 549.539C544.33 553.638 552.072 557.844 552.196 557.91L551.714 558.788C551.512 558.678 531.491 547.803 515.132 544.037C497.312 539.934 475.892 537.929 475.678 537.912L475.758 536.909C475.974 536.931 497.459 538.938 515.351 543.056C521.652 544.513 528.488 547.006 534.538 549.539Z" fill="#27292A" fill-opacity="0.6"/>
<path d="M699.587 504.495C695.934 505.197 692.267 505.832 688.591 506.42L685.836 506.864L683.074 507.28C681.232 507.56 679.392 507.829 677.547 508.082C670.172 509.117 662.774 510.023 655.358 510.762C640.528 512.276 625.619 513.266 610.67 513.459L605.062 513.528C603.193 513.531 601.322 513.494 599.452 513.479L593.847 513.393L585.473 513.209L577.103 513.085L571.524 513.068L568.736 513.053L565.949 513.078C558.515 513.117 551.085 513.325 543.692 513.849L540.916 514.042L535.384 514.573C534.467 514.675 533.55 514.801 532.631 514.913L529.879 515.261L527.143 515.695C526.23 515.845 525.315 515.977 524.411 516.152L520.344 516.978C519.892 517.068 519.449 517.194 518.998 517.299L516.315 517.958C515.866 518.06 515.426 518.187 514.985 518.322L513.663 518.71L511.681 519.3L511.03 519.524L508.432 520.429L507.783 520.657L507.146 520.916L505.872 521.429C504.157 522.077 502.515 522.886 500.85 523.645C497.584 525.263 494.429 527.163 491.281 529.073L481.848 534.876C475.531 538.72 469.147 542.496 462.518 545.869C459.208 547.559 455.856 549.18 452.432 550.656C449.014 552.145 445.553 553.551 442.017 554.773L440.695 555.241L439.361 555.675C438.47 555.962 437.582 556.256 436.687 556.534C434.886 557.052 433.094 557.602 431.266 558.043C429.455 558.534 427.615 558.916 425.777 559.32C424.859 559.52 423.929 559.67 423.003 559.844L421.615 560.099C421.153 560.189 420.684 560.242 420.219 560.312L417.421 560.716L414.606 561.02L413.196 561.168L411.782 561.265L408.954 561.45L406.116 561.519L404.695 561.551L400.431 561.472L397.588 561.314C390.017 560.782 382.463 559.362 375.217 556.908C367.97 554.471 361.052 550.988 354.783 546.577C348.519 542.165 342.896 536.847 338.146 530.873C335.777 527.881 333.624 524.726 331.673 521.467L330.949 520.241C330.706 519.834 330.468 519.423 330.246 519.001L328.896 516.494L327.637 513.945C327.213 513.097 326.853 512.222 326.455 511.363C326.263 510.931 326.062 510.503 325.88 510.065L325.345 508.75C324.992 507.874 324.618 507.004 324.305 506.112L323.333 503.451C323.038 502.542 322.735 501.632 322.48 500.717C321.953 498.888 321.511 497.044 321.149 495.193C320.771 493.343 320.488 491.489 320.239 489.632C319.29 482.199 319.142 474.775 319.038 467.395C318.993 463.702 318.953 460.015 318.934 456.33C318.915 452.645 318.944 448.962 319.001 445.279C319.115 437.918 319.34 430.564 319.56 423.214C319.776 415.863 319.987 408.517 320.027 401.172C320.039 397.5 320.019 393.829 319.894 390.158C319.772 386.491 319.557 382.825 319.15 379.184C318.949 377.364 318.682 375.549 318.341 373.754C317.996 371.958 317.571 370.179 316.988 368.457C316.705 367.592 316.36 366.756 315.981 365.908L314.863 363.375C314.506 362.526 314.086 361.702 313.682 360.87L312.465 358.379C309.117 351.782 305.251 345.443 301.315 339.146C297.375 332.852 293.354 326.6 289.549 320.214C285.741 313.833 282.153 307.314 279.01 300.589C278.227 298.906 277.497 297.202 276.737 295.507C275.993 293.808 275.293 292.094 274.57 290.39L270.29 280.138L261.777 259.615L244.916 218.504L245.207 218.39C250.779 232.11 256.419 245.808 262.088 259.491L270.635 280L274.969 290.231C275.701 291.932 276.413 293.643 277.164 295.334C277.928 297.017 278.666 298.713 279.456 300.388C282.624 307.08 286.233 313.565 290.068 319.917C293.897 326.273 297.947 332.501 301.922 338.781C305.889 345.065 309.795 351.406 313.23 358.007C314.899 361.34 316.554 364.645 317.886 368.166C318.501 369.941 318.952 371.757 319.318 373.58C319.68 375.406 319.968 377.24 320.186 379.081C320.632 382.761 320.878 386.45 321.034 390.135C321.188 393.822 321.244 397.508 321.262 401.193C321.286 408.561 321.137 415.919 320.985 423.275C320.831 430.627 320.67 437.979 320.617 445.326C320.593 449 320.595 452.671 320.645 456.344C320.692 460.015 320.813 463.685 321.063 467.348C321.579 474.668 322.53 481.965 323.954 489.093C324.316 490.875 324.688 492.647 325.121 494.4C325.321 495.281 325.567 496.148 325.784 497.022C326.029 497.885 326.258 498.756 326.529 499.609C326.778 500.47 327.066 501.315 327.347 502.161L328.271 504.715C328.567 505.57 328.926 506.405 329.261 507.245L329.771 508.505C329.942 508.925 330.136 509.336 330.317 509.749C330.692 510.572 331.038 511.413 331.441 512.223L332.634 514.664L333.917 517.06C334.125 517.462 334.352 517.854 334.584 518.245L335.27 519.419C337.117 522.537 339.166 525.536 341.396 528.393C345.858 534.112 351.143 539.195 357.049 543.439C362.957 547.681 369.474 551.108 376.374 553.526C383.265 555.955 390.487 557.472 397.787 558.104L400.528 558.303L403.279 558.4L404.655 558.447L406.029 558.436L408.78 558.418L411.527 558.285L412.903 558.216L414.273 558.094L417.013 557.846L419.743 557.497C420.198 557.434 420.656 557.39 421.108 557.315L422.465 557.09C423.369 556.932 424.279 556.806 425.178 556.624C426.978 556.258 428.782 555.916 430.561 555.469C432.352 555.07 434.117 554.559 435.892 554.085C436.774 553.831 437.65 553.553 438.528 553.291L439.846 552.886L441.152 552.447C448.132 550.142 454.909 547.244 461.493 543.969C468.092 540.714 474.49 537.063 480.81 533.264L490.288 527.53C493.466 525.637 496.662 523.743 500.035 522.098C501.736 521.324 503.415 520.498 505.17 519.835L507.124 519.048L510.438 517.896L511.102 517.667L511.777 517.467L513.122 517.067L514.466 516.662C514.912 516.523 515.363 516.389 515.817 516.282L518.537 515.588C518.99 515.477 519.443 515.347 519.9 515.253L521.273 514.962C528.588 513.38 536.017 512.374 543.464 511.721C550.914 511.08 558.384 510.679 565.854 510.553L568.658 510.488L571.46 510.462L577.064 510.435L585.471 510.506L593.871 510.708L599.447 510.811C601.306 510.843 603.16 510.902 605.019 510.916L610.594 510.906C618.029 510.892 625.457 510.636 632.887 510.349C640.312 509.961 647.737 509.556 655.149 508.95C658.856 508.676 662.558 508.327 666.263 508.013C669.965 507.653 673.666 507.297 677.362 506.899C684.755 506.103 692.147 505.238 699.511 504.202L699.587 504.495Z" fill="#27292A" fill-opacity="0.6"/>
<path d="M695.142 604.626C695.3 603.729 695.318 602.715 695.22 601.75C695.205 601.504 695.173 601.263 695.13 601.02C695.091 600.779 695.065 600.533 695.01 600.293L694.839 599.573L694.75 599.213L694.635 598.861C694.05 596.97 693.07 595.191 691.805 593.647C691.197 592.849 690.445 592.175 689.723 591.485L688.542 590.549C688.163 590.22 687.711 589.984 687.296 589.705C686.461 589.152 685.579 588.656 684.68 588.186C683.787 587.707 682.882 587.251 681.966 586.803C680.137 585.907 678.303 584.987 676.507 583.941C674.724 582.883 672.997 581.664 671.45 580.226C669.903 578.789 668.528 577.162 667.339 575.425C666.155 573.684 665.159 571.832 664.3 569.932C663.454 568.028 662.723 566.088 662.127 564.117C661.506 562.151 661.024 560.156 660.582 558.159C660.165 556.158 659.785 554.155 659.475 552.145C659.14 550.132 658.907 548.14 658.631 546.136C658.098 542.135 657.69 538.127 657.286 534.128C656.881 530.13 656.517 526.133 656.148 522.146C655.405 514.168 654.525 506.225 653.37 498.314C653.082 496.339 652.812 494.356 652.465 492.389C652.128 490.418 651.822 488.442 651.463 486.476L650.05 479.11L649.094 474.71C648.283 470.791 647.268 466.91 646.329 463.017C646.102 462.042 645.823 461.077 645.563 460.11L643.597 452.856C643.464 452.372 643.314 451.893 643.173 451.41L641.461 445.639L640.602 442.754L639.676 439.885C638.429 436.066 637.238 432.235 635.909 428.425L573.566 245.392L574.529 245.078L638.209 427.692C639.561 431.483 640.79 435.338 642.072 439.164L643.02 442.039L645.691 450.722C645.84 451.204 645.993 451.685 646.133 452.171L648.189 459.455C648.461 460.428 648.75 461.396 648.989 462.377C649.979 466.291 651.039 470.188 651.902 474.132L652.928 478.558L653.239 480.039L654.462 485.971C654.851 487.953 655.193 489.94 655.557 491.926C655.937 493.911 656.236 495.905 656.554 497.897C657.812 505.869 658.738 513.879 659.548 521.874L660.147 527.867L660.717 533.852C661.105 537.836 661.529 541.814 662.005 545.774C662.26 547.75 662.478 549.743 662.785 551.698C663.071 553.662 663.422 555.609 663.807 557.546C664.012 558.512 664.218 559.475 664.442 560.438C664.686 561.392 664.899 562.354 665.172 563.298C665.423 564.251 665.712 565.183 665.99 566.126C666.299 567.052 666.602 567.987 666.965 568.893C668.34 572.54 670.181 576.018 672.815 578.914C674.129 580.362 675.638 581.643 677.264 582.802C678.89 583.964 680.645 584.975 682.407 585.995L685.056 587.535C685.939 588.053 686.807 588.598 687.641 589.208C688.505 589.773 689.271 590.466 690.064 591.121C690.434 591.479 690.788 591.851 691.15 592.213L691.419 592.485C691.506 592.579 691.583 592.684 691.665 592.78L692.16 593.371C693.448 594.969 694.473 596.771 695.159 598.703L695.293 599.063L695.401 599.431L695.613 600.168C695.675 600.415 695.728 600.669 695.786 600.918C695.847 601.169 695.897 601.421 695.931 601.674C696.1 602.698 696.198 603.699 696.143 604.792L695.142 604.626Z" fill="#27292A" fill-opacity="0.6"/>
<path d="M329.369 537.375L330.151 536.742L313.002 516.198L312.219 516.831L329.369 537.375Z" fill="#27292A" fill-opacity="0.6"/>
<path d="M302.231 532.106C299.858 528.602 297.324 525.193 294.722 521.84C292.113 518.494 289.441 515.194 286.669 511.983C283.881 508.783 281.053 505.617 278.079 502.586C276.621 501.044 275.091 499.574 273.577 498.085C272.83 497.331 272.034 496.628 271.26 495.902C270.479 495.184 269.711 494.453 268.922 493.745L264.103 489.558C262.468 488.156 260.942 486.633 259.437 485.093C256.484 481.962 253.785 478.604 251.36 475.074C246.486 468.012 242.68 460.339 239.093 452.664C237.296 448.825 235.544 444.976 233.658 441.219C231.771 437.462 229.732 433.797 227.268 430.45C222.232 423.632 217.14 416.852 210.947 411.186C207.848 408.36 204.506 405.794 201.021 403.404C197.537 401.011 193.918 398.8 190.269 396.598C186.625 394.395 182.932 392.244 179.305 389.91C175.678 387.587 172.157 384.972 169.016 381.929C165.863 378.895 163.208 375.396 160.908 371.744L160.055 370.369C159.761 369.916 159.528 369.431 159.259 368.964L157.706 366.139C157.436 365.672 157.21 365.189 156.975 364.71L156.271 363.271C155.806 362.308 155.319 361.354 154.875 360.386C151.335 352.625 148.329 344.69 145.418 336.74C142.512 328.788 139.749 320.802 136.898 312.858L134.731 306.915L132.491 301.003L130.137 295.145L128.886 292.251C128.467 291.286 128.064 290.317 127.596 289.378L126.246 286.538C126.131 286.301 126.024 286.061 125.904 285.829L124.786 283.764C123.836 281.913 122.685 280.131 121.605 278.32C120.492 276.524 119.348 274.741 118.221 272.954L114.759 267.624C110.098 260.539 105.371 253.495 100.598 246.475C95.8242 239.455 91.0494 232.438 86.2264 225.449L71.7434 204.494L72.179 204.195L79.7 214.485L87.1531 224.822C92.1049 231.725 97.0557 238.631 101.928 245.591C106.799 252.554 111.657 259.522 116.397 266.578L119.926 271.889C121.079 273.676 122.247 275.455 123.387 277.255C124.5 279.076 125.674 280.849 126.684 282.758L127.467 284.169L127.857 284.876C127.983 285.113 128.092 285.355 128.214 285.594L129.621 288.476C130.103 289.432 130.516 290.412 130.95 291.387L132.236 294.31L134.648 300.207L136.938 306.14L139.153 312.093C142.074 320.036 144.855 328.015 147.762 335.938C150.68 343.855 153.688 351.741 157.189 359.376C157.631 360.33 158.1 361.265 158.557 362.21L159.246 363.625C159.473 364.097 159.698 364.572 159.959 365.025L161.464 367.771C161.721 368.223 161.95 368.699 162.234 369.133L163.055 370.462C165.267 373.986 167.785 377.312 170.77 380.192C173.746 383.083 177.1 385.592 180.653 387.873C184.201 390.166 187.881 392.32 191.539 394.536C195.193 396.751 198.845 399.015 202.389 401.47C205.928 403.923 209.354 406.578 212.538 409.512C215.716 412.451 218.611 415.667 221.316 418.995C224.019 422.326 226.561 425.752 229.054 429.198C231.599 432.724 233.655 436.515 235.532 440.341C237.41 444.17 239.126 448.044 240.883 451.889C244.381 459.574 248.066 467.174 252.785 474.149C255.134 477.64 257.746 480.951 260.603 484.038C262.056 485.559 263.54 487.058 265.12 488.451L269.884 492.725C270.669 493.452 271.434 494.199 272.207 494.936C272.974 495.681 273.766 496.4 274.506 497.17C276.003 498.692 277.523 500.194 278.965 501.769C281.908 504.863 284.699 508.09 287.449 511.346C292.898 517.899 298.034 524.697 302.683 531.828L302.231 532.106Z" fill="#27292A" fill-opacity="0.6"/>
<path d="M40.3157 201.437C40.7373 202.008 82.6663 258.792 94.8212 277.406C101.668 287.888 108.613 301.802 115.329 315.258C122.9 330.427 130.053 344.754 136.485 353.128C148.453 368.707 159.005 378.335 171.172 387.997C181.56 396.252 191.353 410.446 206.17 431.935C208.523 435.344 210.952 438.871 213.537 442.591C232.012 469.18 275.981 526.206 276.424 526.779L275.617 527.383C275.174 526.81 231.191 469.764 212.7 443.154C210.113 439.429 207.683 435.905 205.329 432.496C190.564 411.087 180.81 396.942 170.54 388.783C158.313 379.071 147.707 369.395 135.679 353.733C129.187 345.279 122.011 330.91 114.417 315.699C107.712 302.269 100.781 288.382 93.9658 277.95C81.8264 259.361 39.9175 202.6 39.4959 202.028L40.3157 201.437Z" fill="#27292A" fill-opacity="0.6"/>
<path d="M289.51 504.006C287.95 502.864 286.559 501.583 285.204 500.251L284.201 499.244L283.234 498.202C282.576 497.517 281.977 496.787 281.354 496.07C278.916 493.173 276.723 490.085 274.685 486.902C270.687 480.489 267.406 473.663 264.775 466.612L260.886 456.097C259.558 452.61 258.227 449.122 256.779 445.694C255.326 442.27 253.803 438.879 252.004 435.662C250.208 432.447 248.114 429.425 245.557 426.793L244.602 425.803L243.596 424.853C242.94 424.208 242.219 423.62 241.526 423.008C240.177 421.838 238.642 420.866 237.038 419.936C233.826 418.092 230.431 416.449 227.047 414.779C223.658 413.11 220.259 411.423 216.908 409.621C213.558 407.816 210.26 405.896 207.064 403.793C203.867 401.694 200.784 399.392 197.912 396.835C195.039 394.28 192.37 391.475 190.041 388.395C189.736 388.021 189.466 387.618 189.191 387.224L188.363 386.036C187.834 385.228 187.334 384.403 186.829 383.579C186.373 382.729 185.887 381.888 185.458 381.034C185.047 380.174 184.612 379.325 184.222 378.459C182.639 374.999 181.289 371.46 180.078 367.888C177.691 360.733 175.823 353.466 174.058 346.202C172.305 338.932 170.661 331.661 168.88 324.434C167.093 317.211 165.173 310.024 162.724 303.025C161.501 299.527 160.143 296.078 158.595 292.72C157.825 291.039 156.996 289.388 156.112 287.768L155.436 286.561C155.214 286.157 154.983 285.756 154.741 285.357L153.302 282.947C149.456 276.525 145.471 270.169 141.456 263.832C137.438 257.495 133.384 251.181 129.296 244.887C125.225 238.581 121.129 232.287 117.008 226.011L104.62 207.195L105.139 206.854L111.596 216.097L117.988 225.381C122.238 231.578 126.464 237.789 130.669 244.016C139.033 256.499 147.349 269.017 155.227 281.832L156.7 284.239C156.947 284.636 157.19 285.045 157.422 285.461L158.132 286.701C159.061 288.361 159.933 290.052 160.74 291.767C162.362 295.196 163.762 298.713 165.031 302.259C167.57 309.361 169.551 316.603 171.397 323.854C173.233 331.107 174.874 338.388 176.644 345.625C178.416 352.856 180.289 360.056 182.647 367.079C183.83 370.585 185.139 374.046 186.666 377.399C187.043 378.238 187.46 379.057 187.854 379.889C188.264 380.709 188.715 381.492 189.143 382.294C189.62 383.07 190.09 383.85 190.587 384.613L191.368 385.737C191.629 386.11 191.883 386.492 192.169 386.848C196.58 392.697 202.295 397.557 208.492 401.67C211.591 403.739 214.812 405.642 218.097 407.442C221.389 409.236 224.744 410.931 228.123 412.621C231.496 414.319 234.903 415.978 238.226 417.927C238.637 418.179 239.054 418.419 239.465 418.681C239.873 418.95 240.283 419.205 240.687 419.483C241.086 419.773 241.493 420.045 241.885 420.35L242.764 421.055L243.033 421.295C243.745 421.941 244.478 422.552 245.164 423.234L246.202 424.237L247.198 425.288C247.878 425.975 248.475 426.736 249.107 427.468C249.422 427.835 249.695 428.232 249.993 428.614C250.277 429.001 250.59 429.375 250.853 429.778C251.385 430.581 251.956 431.36 252.432 432.189L253.176 433.418C253.421 433.828 253.639 434.253 253.87 434.672C255.697 438.023 257.211 441.487 258.624 444.973C261.421 451.952 263.857 459.036 266.33 466.082C268.781 473.094 271.881 479.895 275.695 486.307C277.642 489.487 279.745 492.578 282.088 495.49C282.679 496.212 283.252 496.952 283.882 497.643L284.807 498.697L285.768 499.716C287.059 501.06 288.417 502.375 289.871 503.506L289.51 504.006Z" fill="#27292A" fill-opacity="0.6"/>
<path d="M307.164 513.999C305.65 512.818 304.296 511.53 302.993 510.17C302.66 509.838 302.35 509.484 302.034 509.138C301.723 508.787 301.395 508.45 301.096 508.089C300.498 507.364 299.868 506.666 299.308 505.913C296.999 502.954 294.968 499.789 293.205 496.485L291.93 493.984L290.502 490.782L290.248 490.128L289.747 488.82L289.247 487.51C289.071 487.074 288.954 486.623 288.802 486.182L287.948 483.513L287.182 480.845C286.679 479.066 286.185 477.283 285.702 475.501C283.768 468.373 281.953 461.219 279.618 454.256C278.448 450.781 277.131 447.356 275.531 444.089C273.928 440.827 272.007 437.719 269.59 435.069C267.199 432.42 264.167 430.35 261.049 428.388C257.918 426.44 254.65 424.633 251.409 422.754C244.927 419.012 238.469 414.939 232.922 409.714C230.14 407.125 227.615 404.25 225.381 401.173C224.298 399.615 223.227 398.029 222.323 396.378C221.411 394.729 220.453 393.103 219.667 391.401C216.34 384.664 213.803 377.62 211.656 370.508C209.507 363.391 207.75 356.196 206.062 349.001C204.378 341.807 202.793 334.604 201.047 327.453L200.39 324.772L199.694 322.104C199.252 320.311 198.718 318.58 198.203 316.839C197.6 315.112 197.046 313.377 196.364 311.671C196.031 310.818 195.725 309.954 195.366 309.108L194.31 306.561C191.441 299.788 188.18 293.151 184.772 286.591C177.928 273.476 170.432 260.675 162.711 248.012C154.998 235.342 146.996 222.832 138.784 210.463L139.469 210.008C141.605 213.054 143.709 216.116 145.8 219.19C147.887 222.267 149.947 225.361 152 228.456C156.097 234.657 160.134 240.897 164.104 247.182C168.069 253.469 171.926 259.823 175.7 266.221C179.469 272.625 183.139 279.089 186.64 285.648L187.95 288.11L189.232 290.585C190.098 292.23 190.911 293.903 191.744 295.564C192.577 297.224 193.355 298.919 194.164 300.595L195.313 303.141C195.692 303.991 196.085 304.834 196.439 305.699L197.523 308.276C197.892 309.133 198.207 310.012 198.552 310.881C199.254 312.609 199.834 314.388 200.458 316.153C201.002 317.949 201.567 319.747 202.014 321.536L202.728 324.222L203.406 326.916C207.01 341.271 209.825 355.753 214.088 369.823C216.232 376.844 218.709 383.768 221.934 390.332C222.696 391.995 223.624 393.572 224.501 395.171C225.376 396.776 226.386 398.271 227.417 399.768C229.546 402.707 231.949 405.459 234.619 407.954L235.624 408.885C235.965 409.191 236.314 409.486 236.657 409.789C237.338 410.4 238.062 410.964 238.765 411.552C240.206 412.687 241.674 413.791 243.192 414.84C246.217 416.944 249.378 418.875 252.59 420.753C255.8 422.637 259.066 424.464 262.265 426.481C263.862 427.49 265.446 428.548 266.96 429.719C268.473 430.885 269.938 432.193 271.219 433.639C273.793 436.528 275.771 439.831 277.396 443.225C279.015 446.631 280.318 450.143 281.468 453.683C283.756 460.767 285.493 467.958 287.347 475.099L288.731 480.454L289.443 483.125L290.232 485.748C290.371 486.183 290.479 486.631 290.64 487.057L291.576 489.637L291.811 490.283L293.154 493.442L294.359 495.918C296.026 499.184 297.963 502.325 300.177 505.274C300.708 506.025 301.313 506.724 301.88 507.45C302.164 507.812 302.48 508.151 302.776 508.503C303.077 508.85 303.375 509.206 303.693 509.539C304.929 510.9 306.258 512.214 307.66 513.363L307.164 513.999Z" fill="#27292A" fill-opacity="0.6"/>
<path d="M327.13 523.04C326.179 524.801 326.822 523.502 326.589 523.882L326.513 523.836L326.359 523.746L326.057 523.558C325.856 523.43 325.657 523.304 325.465 523.172C325.073 522.91 324.692 522.638 324.313 522.36C323.561 521.803 322.831 521.218 322.124 520.607C320.707 519.387 319.379 518.07 318.134 516.679C315.658 513.889 313.529 510.799 311.795 507.508C310.057 504.226 308.713 500.725 307.745 497.171C306.741 493.653 305.809 490.122 304.884 486.59C303.054 479.523 301.328 472.439 299.209 465.498C298.143 462.03 296.973 458.598 295.559 455.282C295.186 454.463 294.832 453.633 294.448 452.821L293.845 451.615C293.643 451.216 293.451 450.802 293.23 450.43C292.379 448.893 291.359 447.422 290.263 445.993C288.072 443.13 285.591 440.432 283.131 437.71C280.657 434.993 278.163 432.275 275.73 429.488C273.3 426.703 270.937 423.844 268.696 420.891C266.461 417.931 264.35 414.877 262.408 411.712C260.46 408.552 258.704 405.278 257.143 401.914C255.581 398.547 254.239 395.104 253.006 391.639C250.554 384.7 248.509 377.663 246.591 370.611C242.747 356.513 239.327 342.336 234.851 328.495C232.609 321.582 230.104 314.744 226.929 308.237C226.545 307.417 226.121 306.62 225.699 305.821C225.289 305.019 224.845 304.22 224.401 303.419C223.517 301.817 222.653 300.205 221.759 298.61L219.087 293.81L216.391 289.022C209.193 276.259 201.85 263.569 194.513 250.875L172.475 212.806L173.352 212.307L179.052 221.718L184.716 231.151L196.003 250.039C203.48 262.658 210.921 275.298 218.248 288.01L220.991 292.781L223.71 297.564C224.619 299.159 225.508 300.766 226.399 302.367C226.846 303.17 227.291 303.969 227.719 304.797C228.152 305.616 228.591 306.437 228.986 307.273C232.256 313.924 234.806 320.843 237.091 327.81C241.644 341.758 245.114 355.957 248.988 370.002C250.939 377.017 252.91 384.027 255.317 390.871C256.521 394.292 257.827 397.672 259.335 400.948C260.845 404.229 262.545 407.426 264.44 410.52C266.327 413.614 268.383 416.612 270.568 419.523C272.759 422.43 275.078 425.252 277.472 428.015C279.87 430.78 282.343 433.489 284.813 436.222C287.281 438.962 289.747 441.722 292.002 444.714C293.124 446.212 294.191 447.775 295.098 449.452C295.338 449.867 295.531 450.289 295.735 450.708L296.35 451.965C296.742 452.81 297.1 453.666 297.475 454.515C298.899 457.941 300.053 461.446 301.097 464.966C303.168 472.01 304.828 479.122 306.59 486.192C307.46 489.73 308.332 493.265 309.279 496.781C310.173 500.278 311.414 503.664 313.054 506.882C314.686 510.099 316.703 513.131 319.067 515.878C320.246 517.252 321.511 518.56 322.863 519.775C323.54 520.381 324.233 520.965 324.953 521.52C325.313 521.797 325.677 522.066 326.048 522.326C326.234 522.455 326.421 522.583 326.609 522.706L326.891 522.889L327.101 523.021C326.919 523.43 327.609 522.161 326.708 523.95L327.13 523.04Z" fill="#27292A" fill-opacity="0.6"/>
<path d="M305.836 454.987C304.617 452.528 303.512 450.044 302.446 447.536C301.372 445.032 300.38 442.497 299.405 439.959C297.471 434.87 295.753 429.706 294.239 424.485C293.842 423.185 293.494 421.873 293.139 420.561C292.783 419.249 292.421 417.938 292.113 416.617C291.798 415.297 291.456 413.98 291.158 412.656L290.301 408.671C290.151 408.007 290.027 407.342 289.908 406.673L289.544 404.669L288.829 400.671L288.127 396.685L287.358 392.711C285.261 382.12 282.63 371.624 279.502 361.272C277.924 356.101 276.22 350.964 274.337 345.893C272.454 340.823 270.377 335.819 268.02 330.956C267.409 329.751 266.803 328.544 266.179 327.345C265.53 326.153 264.899 324.954 264.236 323.767C262.923 321.391 261.587 319.028 260.22 316.676C257.497 311.971 254.695 307.306 251.902 302.629C246.315 293.283 240.794 283.86 235.871 274.136C230.923 264.438 226.098 254.694 221.319 244.926C216.536 235.159 211.781 225.379 207.048 215.59L207.964 215.166C212.753 224.927 217.565 234.677 222.404 244.416C227.257 254.147 232.081 263.894 237.045 273.563C241.968 283.243 247.485 292.614 253.091 301.949C255.891 306.618 258.704 311.285 261.445 315.997C262.819 318.351 264.167 320.723 265.491 323.107C266.159 324.297 266.796 325.502 267.45 326.699C268.084 327.91 268.702 329.133 269.321 330.352C271.714 335.27 273.818 340.307 275.723 345.405C277.626 350.506 279.353 355.667 280.949 360.86C282.559 366.052 283.962 371.298 285.28 376.564C286.605 381.828 287.748 387.132 288.803 392.451L289.568 396.444L290.265 400.45L290.972 404.441L291.328 406.431C291.441 407.094 291.562 407.757 291.708 408.415L292.532 412.373C292.819 413.688 293.148 415 293.455 416.313C293.753 417.63 294.105 418.933 294.452 420.238C294.796 421.541 295.134 422.849 295.522 424.146C296.999 429.34 298.673 434.486 300.532 439.568C301.475 442.104 302.435 444.636 303.475 447.133C304.507 449.634 305.585 452.129 306.753 454.552L305.836 454.987Z" fill="#27292A" fill-opacity="0.6"/>
<path d="M373.866 554.737C373.022 554.257 372.251 553.709 371.492 553.131C370.738 552.551 369.998 551.947 369.294 551.309C367.883 550.033 366.54 548.673 365.287 547.239C362.812 544.349 360.562 541.247 358.671 537.944C357.717 536.299 356.817 534.621 355.986 532.911C355.146 531.205 354.409 529.454 353.699 527.693C352.288 524.168 351.112 520.556 350.173 516.892C349.667 515.068 349.286 513.216 348.874 511.37L348.355 508.588C348.273 508.122 348.175 507.661 348.105 507.193L347.892 505.796C347.759 504.863 347.61 503.932 347.488 502.997L347.167 500.192L347.009 498.789L346.893 497.382L346.674 494.57C346.613 493.631 346.581 492.694 346.535 491.754C346.5 490.816 346.434 489.879 346.422 488.939L346.392 486.126C346.383 485.187 346.369 484.25 346.389 483.32C346.425 479.593 346.503 475.869 346.657 472.151C347.001 464.716 347.518 457.299 348.254 449.916C348.958 442.53 349.842 435.172 350.696 427.823C351.545 420.477 352.406 413.139 353.002 405.791C353.303 402.116 353.514 398.437 353.588 394.762C353.664 391.087 353.621 387.407 353.305 383.753C352.995 380.101 352.443 376.465 351.446 372.954L351.04 371.649C350.896 371.216 350.778 370.775 350.599 370.356L349.851 368.449L349.554 367.835C349.158 367.018 348.791 366.183 348.305 365.414L347.619 364.239L346.846 363.079C344.812 359.956 342.635 356.936 340.348 354.004C338.055 351.076 335.605 348.286 333.065 345.545C330.524 342.804 327.917 340.028 325.579 337.013C323.242 333.998 321.153 330.812 319.244 327.549L317.855 325.084C317.626 324.669 317.383 324.27 317.167 323.843L316.513 322.565C316.288 322.142 316.088 321.71 315.887 321.282L315.284 319.99C314.901 319.123 314.527 318.252 314.156 317.383C312.716 313.893 311.46 310.349 310.285 306.796C309.112 303.24 308.032 299.665 306.996 296.082C305.956 292.499 304.954 288.913 303.961 285.323C302.967 281.737 301.989 278.147 301.014 274.558C300.035 270.971 299.043 267.389 298.03 263.812C297.012 260.238 295.964 256.673 294.88 253.117C294.325 251.346 293.786 249.566 293.208 247.798C292.65 246.025 292.068 244.26 291.489 242.495C290.301 238.973 289.067 235.467 287.74 231.988C286.398 228.517 285.003 225.067 283.496 221.657L283.896 221.477C285.545 224.831 287.1 228.235 288.547 231.681C289.992 235.127 291.348 238.607 292.655 242.107C295.264 249.105 297.546 256.212 299.76 263.33C301.953 270.455 304.073 277.596 306.152 284.737C308.248 291.875 310.372 298.996 312.746 306.015C313.945 309.52 315.215 312.994 316.654 316.382C317.021 317.224 317.393 318.065 317.774 318.902L318.37 320.14C318.567 320.552 318.765 320.969 318.982 321.368C319.802 322.982 320.756 324.592 321.654 326.203C323.539 329.38 325.504 332.5 327.713 335.443C329.896 338.404 332.335 341.193 334.812 344.027C337.283 346.862 339.702 349.788 341.939 352.833C343.039 354.366 344.156 355.888 345.193 357.459C345.719 358.238 346.265 359.006 346.776 359.796L348.308 362.162L349.07 363.347L349.797 364.593C350.311 365.41 350.698 366.285 351.115 367.149L351.427 367.797L352.212 369.793C352.401 370.234 352.526 370.692 352.674 371.142L353.115 372.496C354.202 376.133 354.82 379.869 355.194 383.598C355.91 391.067 355.792 398.543 355.437 405.962C355.095 413.391 354.489 420.782 353.892 428.162C352.682 442.919 351.44 457.633 350.957 472.357C350.808 476.037 350.729 479.718 350.694 483.399C350.674 484.321 350.687 485.232 350.698 486.15L350.727 488.894C350.729 489.807 350.782 490.721 350.809 491.634C350.844 492.548 350.864 493.462 350.914 494.374C351.152 498.02 351.389 501.67 351.9 505.29L352.066 506.649C352.122 507.104 352.205 507.551 352.271 508.002L352.695 510.709C353.05 512.499 353.342 514.306 353.765 516.081C354.566 519.644 355.486 523.188 356.685 526.647C357.881 530.104 359.251 533.507 360.883 536.795C362.517 540.08 364.405 543.251 366.576 546.24C367.666 547.728 368.824 549.177 370.075 550.545C371.325 551.909 372.652 553.236 374.116 554.36L373.866 554.737Z" fill="#27292A" fill-opacity="0.6"/>
<path d="M322.797 224.215C325.803 231.056 328.666 237.932 331.414 244.868C334.143 251.808 336.761 258.798 338.908 265.972L339.677 268.678L340.367 271.394C340.804 273.208 341.237 275.023 341.628 276.839C342.437 280.47 343.194 284.103 343.956 287.733C345.481 294.99 347.015 302.234 348.901 309.378C349.35 311.171 349.884 312.938 350.381 314.715L351.203 317.355L351.618 318.674L352.073 319.977C352.383 320.842 352.663 321.724 352.996 322.577L354.005 325.141C354.164 325.573 354.365 325.983 354.552 326.402L355.116 327.656C355.31 328.075 355.481 328.494 355.692 328.908L357.561 332.636C357.98 333.46 358.429 334.275 358.861 335.094C359.715 336.741 360.649 338.338 361.562 339.949C363.441 343.141 365.418 346.277 367.571 349.29C369.725 352.304 372.03 355.211 374.447 358.035C376.862 360.865 379.391 363.615 381.866 366.452C383.098 367.884 384.32 369.287 385.503 370.808C386.738 372.347 387.65 374.076 388.497 375.808C390.086 379.324 391.058 383.006 391.794 386.691L392.29 389.464L392.681 392.243C392.742 392.707 392.817 393.17 392.867 393.633L393.011 395.026L393.296 397.812L393.5 400.596C393.569 401.524 393.642 402.453 393.677 403.384C393.752 405.241 393.879 407.099 393.904 408.953C394.017 412.667 394.033 416.376 394.017 420.083L393.945 425.643L393.787 431.196C393.684 434.899 393.535 438.597 393.369 442.292L392.922 453.369C392.798 457.059 392.698 460.745 392.617 464.432C392.558 468.117 392.501 471.799 392.528 475.481C392.644 490.188 393.479 504.895 396.532 519.18L397.135 521.849C397.336 522.737 397.584 523.616 397.805 524.499C398.232 526.275 398.795 528.007 399.307 529.757C399.577 530.628 399.891 531.484 400.174 532.352L400.605 533.649C400.749 534.082 400.923 534.503 401.085 534.929L402.06 537.485C402.409 538.327 402.78 539.16 403.136 540.001L403.672 541.262C403.86 541.677 404.066 542.086 404.262 542.498L405.447 544.968L406.747 547.382L407.392 548.594L408.095 549.772L409.507 552.132L411.783 555.574L412.599 556.687L414.222 558.921L412.393 560.397L410.539 558.23L409.614 557.14L408.749 556.006L407.025 553.73L405.43 551.367L404.634 550.182L403.896 548.964L402.434 546.511L401.091 543.996C400.868 543.577 400.64 543.159 400.423 542.735L399.814 541.447C399.413 540.587 399.001 539.73 398.61 538.864L397.516 536.239C397.339 535.799 397.143 535.365 396.978 534.923L396.487 533.591C396.162 532.701 395.828 531.815 395.528 530.918C394.965 529.113 394.346 527.321 393.87 525.495C393.623 524.584 393.349 523.68 393.123 522.763L392.47 520.011C390.789 512.659 389.831 505.194 389.298 497.739C389.196 495.874 389.068 494.009 389.014 492.146L388.914 489.351L388.874 486.555C388.858 485.624 388.859 484.694 388.866 483.762L388.879 480.971C388.918 479.114 388.929 477.253 388.997 475.397C389.203 467.973 389.663 460.579 390.168 453.201C390.636 445.821 391.142 438.458 391.402 431.092L391.581 425.566L391.676 420.041C391.707 416.359 391.707 412.674 391.609 408.992C391.59 407.151 391.472 405.316 391.404 403.476C391.375 402.558 391.305 401.641 391.242 400.723L391.05 397.973L390.783 395.234L390.647 393.866C390.602 393.409 390.529 392.958 390.472 392.503L390.099 389.778L389.624 387.076C388.927 383.494 387.995 379.952 386.524 376.666C385.744 375.057 384.914 373.459 383.8 372.073C382.691 370.638 381.462 369.207 380.26 367.801C377.824 364.988 375.296 362.216 372.863 359.342C370.423 356.473 368.089 353.503 365.909 350.431C363.735 347.351 361.733 344.161 359.819 340.929C358.892 339.298 357.944 337.673 357.079 336.01C356.639 335.181 356.185 334.361 355.76 333.524L353.872 329.755C353.659 329.336 353.477 328.898 353.279 328.471L352.694 327.179C352.502 326.747 352.294 326.319 352.131 325.878L351.096 323.253C350.754 322.377 350.468 321.482 350.154 320.601L349.691 319.273L349.269 317.934L348.435 315.255C347.932 313.457 347.388 311.668 346.934 309.862C345.024 302.65 343.483 295.379 341.952 288.119C341.183 284.489 340.435 280.861 339.616 277.253C338.788 273.65 337.958 270.049 336.881 266.537C334.734 259.486 332.098 252.538 329.348 245.648C326.596 238.757 323.663 231.917 320.623 225.149L322.797 224.215Z" fill="#27292A" fill-opacity="0.6"/>
<path d="M532.63 574.651C530.814 569.634 528.719 564.706 526.235 559.971C523.752 555.239 520.874 550.694 517.498 546.527C514.128 542.363 510.254 538.582 505.903 535.42C501.561 532.254 496.748 529.721 491.682 527.904L490.796 527.587L491.726 527.509C494.208 527.197 496.723 527.109 499.229 527.234C501.738 527.361 504.239 527.72 506.703 528.244C511.634 529.298 516.398 531.05 520.968 533.159C525.543 535.266 529.915 537.76 534.199 540.358C538.486 542.957 542.665 545.71 546.831 548.458C550.996 551.209 555.158 553.948 559.365 556.597C563.57 559.252 567.833 561.795 572.205 564.121C576.573 566.45 581.053 568.554 585.645 570.335C587.942 571.225 590.271 572.029 592.626 572.736C594.982 573.433 597.367 574.033 599.769 574.521C602.171 575.008 604.594 575.396 607.03 575.644C609.472 575.851 611.915 576.074 614.369 576.087L616.21 576.133L618.05 576.095L619.891 576.055C620.198 576.045 620.505 576.043 620.813 576.031L621.732 575.97C622.959 575.886 624.185 575.816 625.409 575.724L629.077 575.339C633.958 574.738 638.816 573.921 643.627 572.863C648.439 571.802 653.186 570.489 657.906 569.074C662.626 567.652 667.287 566.042 671.897 564.299C676.513 562.569 681.083 560.71 685.598 558.728C690.116 556.754 694.585 554.669 699 552.474C701.211 551.382 703.408 550.262 705.584 549.104C707.763 547.955 709.938 546.783 712.064 545.55L712.289 545.894C708.135 548.575 703.862 551.057 699.517 553.426C695.171 555.791 690.76 558.038 686.282 560.163C677.317 564.387 668.11 568.169 658.624 571.222C657.445 571.623 656.251 571.979 655.058 572.341C653.866 572.701 652.672 573.067 651.465 573.384C650.258 573.708 649.063 574.059 647.851 574.36L644.212 575.256C639.341 576.372 634.412 577.305 629.425 577.92L625.678 578.325C624.424 578.427 623.167 578.502 621.911 578.592L620.968 578.658C620.653 578.67 620.337 578.676 620.022 578.686L618.13 578.734L616.24 578.779L614.344 578.739C611.818 578.732 609.29 578.518 606.765 578.305C604.239 578.041 601.732 577.628 599.247 577.117C596.763 576.603 594.302 575.974 591.874 575.247C589.449 574.515 587.056 573.676 584.699 572.754C582.342 571.833 580.021 570.832 577.738 569.753C575.459 568.668 573.215 567.511 571.006 566.307C566.584 563.898 562.293 561.279 558.085 558.561C553.877 555.843 549.755 553.008 545.634 550.196C537.387 544.594 529.198 538.898 520.326 534.462C515.899 532.25 511.283 530.383 506.479 529.194C501.683 528.012 496.703 527.51 491.764 527.913L491.807 527.518C496.908 529.346 501.758 531.898 506.131 535.087C510.512 538.273 514.417 542.078 517.805 546.268C521.2 550.461 524.092 555.027 526.588 559.778C529.084 564.533 531.185 569.478 533.007 574.508L532.63 574.651Z" fill="#27292A" fill-opacity="0.6"/>
<path d="M479.371 535.792C489.439 540.007 496.389 554.344 502.652 568.722L501.715 569.109C495.353 554.497 488.276 539.93 478.105 536.382L478.432 535.435C478.747 535.545 479.063 535.663 479.371 535.792Z" fill="#27292A" fill-opacity="0.6"/>
<path d="M471.178 563.459L472.08 563.004L462.389 544.656L461.486 545.111L471.178 563.459Z" fill="#27292A" fill-opacity="0.6"/>
<path d="M442.6 558.164L443.465 557.644L440.943 553.613L440.078 554.133L442.6 558.164Z" fill="#27292A" fill-opacity="0.6"/>
<path d="M544.955 552.038C553.856 562.304 559.096 569.136 564.797 580.192L563.891 580.639C558.239 569.675 553.034 562.891 544.185 552.687L544.955 552.038Z" fill="#27292A" fill-opacity="0.6"/>
<path d="M470.237 540.862C469.317 541.165 468.389 541.229 467.442 541.199C466.497 541.162 465.557 540.964 464.651 540.668C463.744 540.364 462.871 539.955 462.054 539.454C461.239 538.95 460.496 538.352 459.783 537.72C459.444 537.39 459.086 537.074 458.773 536.718L458.29 536.197L457.837 535.656C457.529 535.298 457.261 534.915 456.985 534.535C456.7 534.158 456.458 533.763 456.201 533.373C455.198 531.801 454.353 530.15 453.615 528.465C452.877 526.779 452.282 525.044 451.74 523.314C451.233 521.605 450.694 519.905 450.233 518.183L449.517 515.608L448.85 513.021C448.397 511.299 447.997 509.566 447.588 507.834C447.195 506.101 446.802 504.367 446.439 502.625C446.09 500.884 445.713 499.147 445.392 497.401C444.737 493.913 444.113 490.42 443.531 486.926C442.93 483.432 442.397 479.934 441.888 476.431L441.13 471.179C440.885 469.428 440.635 467.679 440.414 465.923C439.955 462.416 439.509 458.914 439.076 455.407L437.839 444.887L435.469 423.845L434.857 418.597C434.653 416.845 434.401 415.109 434.176 413.362C434.061 412.492 433.921 411.625 433.794 410.757C433.659 409.889 433.548 409.016 433.388 408.156L432.94 405.566C432.782 404.707 432.589 403.855 432.411 403.001C431.659 399.596 430.699 396.245 429.336 393.055C427.987 389.856 426.21 386.833 424.217 383.93C423.725 383.202 423.191 382.493 422.682 381.777C422.176 381.054 421.627 380.364 421.089 379.664C420.033 378.255 418.881 376.914 417.726 375.572C415.41 372.895 412.935 370.323 410.604 367.565C408.263 364.816 406.124 361.856 404.293 358.734L403.605 357.563C403.492 357.366 403.369 357.174 403.268 356.976L402.959 356.372L401.732 353.96C401.337 353.149 400.99 352.319 400.62 351.501C400.259 350.68 399.87 349.862 399.568 349.021C398.248 345.686 397.079 342.306 396.065 338.889L395.315 336.325C395.062 335.472 394.811 334.617 394.6 333.754L393.264 328.594C391.573 321.734 389.83 314.885 388.007 308.057C386.168 301.233 384.28 294.418 382.308 287.629C380.338 280.837 378.303 274.065 376.117 267.338C373.938 260.611 371.672 253.906 369.154 247.294C368.551 245.629 367.868 243.998 367.216 242.356C366.879 241.537 366.573 240.706 366.21 239.899L365.145 237.467C363.744 234.218 362.139 231.06 360.376 227.996L360.858 227.709C362.709 230.766 364.394 233.918 365.872 237.152L366.992 239.574C367.375 240.379 367.697 241.206 368.054 242.019C368.746 243.656 369.469 245.281 370.108 246.936C370.76 248.59 371.438 250.232 372.065 251.893L373.935 256.879C375.124 260.22 376.334 263.556 377.455 266.92C382.025 280.351 386.115 293.925 389.919 307.571C391.818 314.395 393.636 321.242 395.399 328.099C397.164 334.914 399.178 341.674 401.765 348.184C402.066 349.009 402.444 349.798 402.784 350.6C403.141 351.397 403.469 352.209 403.848 352.998C404.631 354.557 405.381 356.136 406.27 357.635C407.986 360.672 409.985 363.541 412.221 366.26C414.452 368.984 416.887 371.598 419.198 374.351C421.509 377.101 423.718 379.957 425.76 382.91C427.819 385.858 429.666 388.994 431.149 392.303C432.632 395.612 433.691 399.081 434.525 402.556C436.186 409.523 437.15 416.542 438.239 423.527L441.366 444.479L444.56 465.402L446.194 475.847C446.466 477.587 446.754 479.324 447.046 481.062L447.9 486.27C448.473 489.742 449.087 493.205 449.732 496.664C450.041 498.394 450.379 500.119 450.701 501.844L451.716 507.015C452.424 510.456 453.128 513.896 453.911 517.318C454.286 519.032 454.704 520.74 455.099 522.452C455.521 524.125 455.935 525.791 456.505 527.399C457.054 529.017 457.686 530.604 458.463 532.107C458.854 532.857 459.274 533.591 459.742 534.29L460.089 534.82L460.46 535.326C460.702 535.674 460.983 535.98 461.245 536.307C462.352 537.561 463.65 538.651 465.156 539.391C465.91 539.76 466.712 540.031 467.544 540.205C468.369 540.369 469.257 540.426 470.066 540.319L470.237 540.862Z" fill="#27292A" fill-opacity="0.6"/>
<path d="M402.203 230.977C405.458 237.231 408.528 243.567 411.499 249.955C412.982 253.149 414.438 256.356 415.861 259.578C416.558 261.196 417.267 262.808 417.949 264.434L419.974 269.314C422.632 275.84 425.085 282.46 427.115 289.241C427.612 290.938 428.05 292.661 428.519 294.372L429.748 299.488L432.151 309.718C433.758 316.532 435.393 323.332 437.162 330.086C438.939 336.837 440.882 343.545 443.188 350.101C443.734 351.753 444.373 353.365 444.986 354.987C445.283 355.804 445.627 356.596 445.965 357.393L446.957 359.794L448.605 363.31C448.798 363.695 449.011 364.067 449.215 364.446L450.429 366.722L451.777 368.942C455.42 374.855 459.889 380.309 464.244 385.886C468.587 391.465 472.843 397.217 476.044 403.564L476.662 404.743L477.215 405.953C477.582 406.762 477.955 407.564 478.312 408.376L479.746 412.096L480.143 413.36L480.941 415.889C481.201 416.733 481.418 417.582 481.658 418.428C481.898 419.275 482.115 420.123 482.338 420.974C482.558 421.823 482.786 422.672 482.995 423.524C484.712 430.33 486.335 437.15 487.946 443.965C489.559 450.781 491.19 457.591 492.88 464.385L495.425 474.573L498.027 484.745C498.453 486.441 498.913 488.13 499.352 489.825L500.02 492.365C500.247 493.206 500.493 494.038 500.728 494.871C501.632 498.224 502.73 501.517 503.932 504.767L505.36 508.393C505.512 508.797 505.716 509.183 505.89 509.579C506.631 511.143 507.291 512.749 508.155 514.248L509.379 516.536L510.74 518.743C510.971 519.108 511.182 519.486 511.429 519.84L513.305 522.484L513.71 522.99C515.794 525.754 518.244 528.229 520.86 530.552C521.518 531.132 522.191 531.693 522.86 532.263L524.899 533.964C526.269 535.092 527.612 536.303 528.848 537.628L528.111 538.312C525.593 535.947 522.583 534.045 519.807 531.778C517.012 529.539 514.372 527.042 512.094 524.248L511.651 523.737L509.624 521.04C509.358 520.679 509.128 520.293 508.875 519.919L507.4 517.664L506.074 515.329C505.155 513.785 504.444 512.151 503.653 510.548C503.464 510.143 503.249 509.749 503.086 509.336L501.555 505.637C500.296 502.313 499.156 498.952 498.21 495.542C497.967 494.694 497.703 493.841 497.476 492.992L496.818 490.445C496.382 488.744 495.932 487.049 495.511 485.347L494.23 480.242L493.004 475.128C492.195 471.717 491.394 468.302 490.642 464.879C489.116 458.038 487.655 451.184 486.204 444.334C484.74 437.486 483.336 430.627 481.713 423.824C481.516 422.974 481.298 422.126 481.089 421.277C480.879 420.428 480.673 419.581 480.444 418.735C480.216 417.894 480.009 417.039 479.768 416.206L478.997 413.717L478.61 412.472L477.218 408.813C476.869 408.015 476.501 407.226 476.143 406.432L475.604 405.242L474.997 404.082C474.592 403.312 474.184 402.539 473.762 401.776L472.409 399.532C471.973 398.773 471.468 398.058 470.987 397.328C470.496 396.604 470.036 395.861 469.5 395.165L467.939 393.048L466.315 390.973C465.778 390.281 465.222 389.599 464.654 388.927C464.088 388.251 463.534 387.574 462.953 386.906C460.667 384.225 458.333 381.563 456.067 378.828C453.784 376.108 451.594 373.278 449.58 370.319L448.096 368.079L446.732 365.746C446.512 365.354 446.276 364.965 446.064 364.572L444.262 360.966C442.773 357.724 441.448 354.416 440.273 351.076C437.921 344.392 436.005 337.601 434.235 330.799C432.462 323.992 430.891 317.154 429.354 310.315L427.051 300.065L425.889 294.948C425.456 293.275 425.056 291.593 424.595 289.918C424.096 288.252 423.625 286.581 423.102 284.92C422.555 283.263 422.025 281.603 421.465 279.952L419.719 275.011L417.886 270.096L415.977 265.202C415.338 263.572 414.66 261.955 414.007 260.331C412.685 257.086 411.331 253.848 409.941 250.625C407.164 244.18 404.27 237.777 401.298 231.417L402.203 230.977Z" fill="#27292A" fill-opacity="0.6"/>
<path d="M561.327 566.744C558.828 563.86 556.851 560.671 555.039 557.39L553.736 554.903C553.318 554.065 552.937 553.213 552.533 552.37C552.121 551.528 551.77 550.664 551.398 549.808L550.857 548.517L550.588 547.872L550.341 547.217C547.657 540.25 545.661 533.06 544.162 525.795C543.978 524.885 543.769 523.982 543.605 523.069L542.674 517.585L540.6 503.95C539.478 496.684 538.291 489.43 536.983 482.201C535.691 474.969 534.2 467.773 532.551 460.619L531.268 455.26L529.519 448.6L529.139 447.278L527.602 441.99C527.339 441.109 527.042 440.241 526.765 439.368L525.916 436.748C525.627 435.878 525.365 434.996 525.04 434.139L523.165 428.963C523.015 428.527 522.841 428.106 522.667 427.682L521.112 423.857C520.453 422.143 519.643 420.496 518.888 418.825L517.738 416.326C517.333 415.504 516.894 414.701 516.472 413.883L515.195 411.446C514.981 411.041 514.775 410.633 514.553 410.228L513.875 409.017L508.438 399.332C504.804 392.879 501.135 386.441 497.59 379.917C495.832 376.646 494.103 373.36 492.472 370.015C490.85 366.669 489.31 363.282 487.886 359.849C486.483 356.41 485.156 352.941 483.942 349.437C483.323 347.689 482.76 345.928 482.166 344.172L480.478 338.893L473.92 317.75C469.542 303.664 465.114 289.594 460.188 275.688L458.336 270.475L455.445 262.696L452.407 254.972C449.603 248.15 446.641 241.388 443.24 234.838L444.139 234.377C447.632 240.937 450.682 247.699 453.567 254.519L456.68 262.242L457.67 264.834L459.642 270.018L461.54 275.229C466.582 289.129 471.149 303.178 475.614 317.249L482.273 338.355L483.982 343.61C484.579 345.349 485.147 347.097 485.77 348.829C486.991 352.297 488.321 355.723 489.728 359.12C491.153 362.506 492.693 365.846 494.314 369.152C495.944 372.454 497.679 375.709 499.441 378.953C502.994 385.43 506.696 391.845 510.364 398.287L515.848 407.955L516.531 409.165C516.757 409.568 516.968 409.989 517.188 410.4L518.49 412.88C518.919 413.708 519.368 414.53 519.782 415.367L520.954 417.904C521.728 419.601 522.551 421.276 523.22 423.012L524.276 425.595L524.802 426.888C524.98 427.317 525.158 427.747 525.31 428.187L527.216 433.423C527.547 434.29 527.813 435.181 528.105 436.06L528.965 438.706C529.249 439.59 529.55 440.466 529.816 441.356L531.378 446.691L531.764 448.026L533.538 454.732L534.837 460.123C536.508 467.323 538.021 474.554 539.327 481.814C540.65 489.07 541.854 496.342 542.99 503.621L545.087 517.263L546.015 522.665C546.178 523.563 546.385 524.454 546.567 525.349L547.132 528.031C547.22 528.481 547.326 528.924 547.441 529.363L548.441 533.351C548.66 534.239 548.943 535.108 549.187 535.989L549.95 538.619L550.809 541.222C551.36 542.967 552.011 544.674 552.628 546.393L552.861 547.037L553.118 547.674L553.63 548.946C553.965 549.796 554.282 550.654 554.659 551.489L555.742 554.008L556.888 556.502C558.449 559.8 560.155 563.079 562.123 566.131L561.327 566.744Z" fill="#27292A" fill-opacity="0.6"/>
<path d="M595.34 588.98C595.171 588.899 595.065 588.825 594.947 588.754C594.826 588.682 594.714 588.606 594.616 588.521C594.415 588.358 594.184 588.203 594.01 588.021L593.449 587.489C593.263 587.31 593.109 587.112 592.94 586.925L592.439 586.349C592.277 586.154 592.137 585.951 591.982 585.748L591.535 585.141C591.387 584.938 591.235 584.736 591.108 584.52C590.591 583.673 590.017 582.839 589.578 581.956L588.885 580.64L588.713 580.311L588.558 579.975L587.639 577.956L587.339 577.279L586.024 573.841C585.685 572.921 585.413 571.984 585.109 571.053C584.817 570.119 584.5 569.193 584.26 568.248C583.191 564.497 582.345 560.697 581.623 556.884L580.608 551.159L579.763 545.418C579.456 543.506 579.271 541.585 579.04 539.666C578.828 537.748 578.576 535.827 578.395 533.915C578.011 530.087 577.623 526.262 577.292 522.432L575.29 499.472C574.633 491.824 573.955 484.186 573.03 476.589C572.105 468.992 570.887 461.435 569.107 454.01L568.405 451.234C568.173 450.307 567.948 449.38 567.662 448.467L566.454 444.342L565.997 442.983C565.376 441.177 564.807 439.352 564.085 437.575C563.393 435.789 562.727 434.003 561.964 432.227C559.014 425.112 555.846 418.083 552.56 411.099C549.276 404.112 545.871 397.172 542.566 390.173C539.252 383.177 536.082 376.1 533.201 368.909C532.834 368.013 532.481 367.111 532.14 366.204L531.1 363.494L529.089 358.061L525.117 347.185L517.237 325.416C506.769 296.38 496.363 267.321 485.977 238.257L486.937 237.931C497.508 266.931 508.097 295.925 518.747 324.896L526.763 346.613L530.802 357.46L532.846 362.869L533.896 365.555C534.245 366.451 534.596 367.348 534.967 368.235C540.748 382.506 547.866 396.236 554.546 410.202C557.886 417.187 561.114 424.23 564.126 431.367C564.902 433.138 565.597 434.961 566.309 436.77C567.058 438.569 567.639 440.428 568.294 442.257L568.776 443.636L569.205 445.029L570.057 447.817C570.356 448.743 570.594 449.683 570.842 450.624L571.587 453.439C573.489 460.971 574.784 468.617 575.835 476.264C576.883 483.912 577.683 491.569 578.46 499.22L580.698 522.155L581.856 533.61C582.042 535.521 582.289 537.41 582.504 539.312L582.836 542.161C582.893 542.634 582.936 543.112 583.004 543.586L584.008 550.676L584.972 556.319C585.665 560.069 586.436 563.801 587.312 567.501C587.504 568.436 587.773 569.346 588.013 570.262C588.266 571.175 588.499 572.099 588.752 573.013L589.582 575.73L589.791 576.412L590.033 577.078L590.503 578.416L590.736 579.086L590.854 579.421L590.991 579.747L591.533 581.053C591.87 581.941 592.299 582.769 592.701 583.625C592.897 584.056 593.157 584.44 593.374 584.857C593.488 585.06 593.595 585.272 593.72 585.469L594.101 586.049C594.232 586.238 594.351 586.447 594.492 586.622L594.913 587.168C595.05 587.362 595.212 587.503 595.362 587.674C595.44 587.761 595.516 587.836 595.595 587.902C595.672 587.974 595.758 588.05 595.804 588.091L595.34 588.98Z" fill="#27292A" fill-opacity="0.6"/>
<path d="M639.725 596.749C637.473 596.882 635.473 596.041 633.667 594.948C632.779 594.381 631.958 593.722 631.18 593.023C630.425 592.305 629.693 591.556 629.056 590.742C627.756 589.129 626.643 587.396 625.688 585.594C624.726 583.792 623.944 581.921 623.218 580.038C622.868 579.094 622.536 578.14 622.244 577.181C621.927 576.226 621.664 575.257 621.399 574.295C621.116 573.332 620.907 572.357 620.664 571.386C620.428 570.414 620.252 569.434 620.043 568.459C619.274 564.547 618.79 560.606 618.361 556.702C617.933 552.787 617.577 548.874 617.269 544.963C616.966 541.05 616.709 537.138 616.462 533.231C616.208 529.324 615.994 525.416 615.77 521.514C615.544 517.612 615.308 513.713 615.045 509.817C613.967 494.243 612.523 478.672 609.29 463.388C607.683 455.753 605.616 448.203 602.977 440.848C600.287 433.472 597.53 426.098 594.811 418.721L562.034 330.22L545.593 285.988L529.096 241.776L530.052 241.44L546.576 285.642L563.156 329.824L604.734 440.24C607.494 447.659 609.633 455.275 611.404 462.958C614.902 478.342 616.809 493.998 618.133 509.62C618.789 517.435 619.373 525.247 619.913 533.049C620.185 536.949 620.481 540.844 620.798 544.734C621.104 548.626 621.454 552.508 621.871 556.378C622.297 560.255 622.756 564.096 623.423 567.893C623.765 569.79 624.132 571.682 624.568 573.553C624.79 574.486 625.01 575.423 625.279 576.343C625.41 576.804 625.525 577.272 625.67 577.728L626.096 579.098C626.683 580.916 627.325 582.725 628.128 584.449C628.919 586.175 629.805 587.861 630.884 589.41C631.417 590.191 632 590.924 632.619 591.633C633.253 592.322 633.931 592.968 634.664 593.547C635.398 594.122 636.188 594.624 637.03 595.012C637.453 595.193 637.884 595.38 638.328 595.501C638.549 595.565 638.772 595.622 638.996 595.661C639.21 595.704 639.462 595.737 639.632 595.746L639.725 596.749Z" fill="#27292A" fill-opacity="0.6"/>
<g filter="url(#filter0_f_5624_1657)">
<rect x="733.568" y="610.711" width="15" height="380.336" transform="rotate(165.471 733.568 610.711)" fill="black"/>
</g>
<g filter="url(#filter1_f_5624_1657)">
<rect x="236.776" y="518.141" width="15" height="380.336" transform="rotate(145.532 236.776 518.141)" fill="black"/>
</g>
<g filter="url(#filter2_f_5624_1657)">
<rect x="15.6206" y="210.465" width="15" height="628.943" transform="rotate(-86.5196 15.6206 210.465)" fill="black"/>
</g>
<g filter="url(#filter3_f_5624_1657)">
<rect x="425.951" y="573.172" width="15" height="306.147" transform="rotate(-80.3244 425.951 573.172)" fill="black"/>
</g>
<g filter="url(#filter4_f_5624_1657)">
<rect x="219.75" y="532.266" width="15" height="116.525" transform="rotate(-80.3244 219.75 532.266)" fill="black"/>
</g>
<defs>
<filter id="filter0_f_5624_1657" x="590.633" y="209.539" width="175.936" height="437.934" filterUnits="userSpaceOnUse" color-interpolation-filters="sRGB">
<feFlood flood-opacity="0" result="BackgroundImageFix"/>
<feBlend mode="normal" in="SourceGraphic" in2="BackgroundImageFix" result="shape"/>
<feGaussianBlur stdDeviation="16.5" result="effect1_foregroundBlur_5624_1657"/>
</filter>
<filter id="filter1_f_5624_1657" x="-23.8428" y="171.578" width="293.619" height="388.051" filterUnits="userSpaceOnUse" color-interpolation-filters="sRGB">
<feFlood flood-opacity="0" result="BackgroundImageFix"/>
<feBlend mode="normal" in="SourceGraphic" in2="BackgroundImageFix" result="shape"/>
<feGaussianBlur stdDeviation="16.5" result="effect1_foregroundBlur_5624_1657"/>
</filter>
<filter id="filter2_f_5624_1657" x="-17.3794" y="162.492" width="694.694" height="119.156" filterUnits="userSpaceOnUse" color-interpolation-filters="sRGB">
<feFlood flood-opacity="0" result="BackgroundImageFix"/>
<feBlend mode="normal" in="SourceGraphic" in2="BackgroundImageFix" result="shape"/>
<feGaussianBlur stdDeviation="16.5" result="effect1_foregroundBlur_5624_1657"/>
</filter>
<filter id="filter3_f_5624_1657" x="392.951" y="525.387" width="370.313" height="132.238" filterUnits="userSpaceOnUse" color-interpolation-filters="sRGB">
<feFlood flood-opacity="0" result="BackgroundImageFix"/>
<feBlend mode="normal" in="SourceGraphic" in2="BackgroundImageFix" result="shape"/>
<feGaussianBlur stdDeviation="16.5" result="effect1_foregroundBlur_5624_1657"/>
</filter>
<filter id="filter4_f_5624_1657" x="186.75" y="484.48" width="183.388" height="100.371" filterUnits="userSpaceOnUse" color-interpolation-filters="sRGB">
<feFlood flood-opacity="0" result="BackgroundImageFix"/>
<feBlend mode="normal" in="SourceGraphic" in2="BackgroundImageFix" result="shape"/>
<feGaussianBlur stdDeviation="16.5" result="effect1_foregroundBlur_5624_1657"/>
</filter>
</defs>
</svg>
