<svg width="869" height="671" viewBox="0 0 869 671" fill="none" xmlns="http://www.w3.org/2000/svg">
<path d="M238.114 471.307L95.2953 119.125L181.954 127.283L181.866 128.283L96.8581 120.28L238.799 470.297L855.702 465.46L585.869 166.303L242.078 133.949L242.166 132.95L586.36 165.341L586.494 165.492L857.951 466.448L856.837 466.455L238.114 471.307Z" fill="#27292A" fill-opacity="0.6"/>
<path d="M596.948 219.62C580.942 214.538 568.593 206.978 549.861 195.512C541.353 190.304 531.707 184.402 519.758 177.505C512.592 173.368 504.406 170.229 495.426 168.174L495.647 167.196C504.73 169.277 513.012 172.453 520.268 176.643C532.226 183.546 541.877 189.453 550.392 194.664C582.487 214.31 595.77 222.44 641.131 226.277L641.057 227.277C621.943 225.658 608.494 223.285 596.948 219.62Z" fill="#27292A" fill-opacity="0.6"/>
<path d="M109.8 153.379L109.305 152.496C109.469 152.408 125.922 143.677 147.927 136.164C168.26 129.226 197.639 121.941 222.115 126.644C244.036 130.854 261.722 143.078 277.329 153.864C289.357 162.178 300.718 170.027 312.537 173.394C322.407 176.205 334.526 177.184 349.589 176.392L349.653 177.394C334.475 178.192 322.245 177.198 312.263 174.359C300.279 170.947 288.848 163.047 276.747 154.682C261.226 143.955 243.634 131.796 221.928 127.629C197.676 122.973 168.494 130.212 148.282 137.108C126.357 144.593 109.963 153.294 109.8 153.379Z" fill="#27292A" fill-opacity="0.6"/>
<path d="M115.597 168.017L121.542 164.171L124.521 162.26L127.532 160.397C129.545 159.163 131.543 157.901 133.569 156.686L139.673 153.081C147.859 148.344 156.195 143.831 164.792 139.79L168.026 138.292L169.647 137.552L174.582 135.479C175.132 135.254 175.675 135.009 176.234 134.801L181.25 132.901C181.529 132.797 181.808 132.686 182.089 132.589L182.94 132.305L184.639 131.737C185.775 131.365 186.907 130.984 188.046 130.627L191.505 129.66L193.236 129.182C193.814 129.026 194.407 128.916 194.989 128.781L198.5 128.007C199.081 127.865 199.676 127.78 200.272 127.682L202.049 127.398C203.235 127.217 204.411 126.991 205.612 126.888L209.195 126.532C210.388 126.42 211.595 126.41 212.792 126.355L214.589 126.288C215.189 126.268 215.791 126.305 216.389 126.312C217.589 126.339 218.786 126.372 219.982 126.419L219.992 127.12C218.81 127.232 217.627 127.333 216.447 127.425C215.859 127.476 215.267 127.506 214.681 127.576L212.922 127.792L211.164 128.005C210.579 128.082 209.991 128.12 209.41 128.23L205.925 128.807C204.757 128.962 203.612 129.237 202.462 129.471L200.737 129.832C200.164 129.958 199.581 130.05 199.017 130.208L195.6 131.065C195.031 131.214 194.459 131.338 193.895 131.506L192.205 132L188.824 132.981C187.706 133.342 186.6 133.73 185.483 134.098L183.81 134.65L182.973 134.924C182.696 135.019 182.422 135.128 182.147 135.23L178.846 136.465C174.447 138.122 170.132 139.999 165.843 141.937L164.232 142.656C163.695 142.895 163.17 143.164 162.637 143.415L157.864 145.708C157.331 145.959 156.805 146.22 156.282 146.492L153.134 148.091L149.981 149.684L146.858 151.34L143.737 153L142.174 153.825L140.624 154.676C132.334 159.169 124.177 163.907 115.983 168.592L115.597 168.017Z" fill="#27292A" fill-opacity="0.6"/>
<path d="M129.469 202.206C131.403 201.088 133.351 200.017 135.308 198.951C137.271 197.899 139.246 196.867 141.227 195.848C145.193 193.812 149.197 191.847 153.233 189.941C161.325 186.174 169.541 182.646 177.935 179.537C182.131 177.98 186.36 176.489 190.648 175.172C191.712 174.823 192.793 174.514 193.869 174.196C194.946 173.879 196.018 173.55 197.106 173.264L200.36 172.379L203.637 171.568C208.019 170.537 212.449 169.664 216.925 169.023C221.403 168.415 225.959 168.063 230.494 168.072C235.017 168.053 239.541 168.286 244.046 168.672C248.551 169.057 253.044 169.614 257.497 170.376C266.414 171.867 275.208 173.958 283.881 176.375C288.22 177.574 292.541 178.819 296.851 180.068C301.161 181.314 305.476 182.533 309.813 183.616C314.146 184.711 318.521 185.63 322.937 186.159C324.041 186.317 325.15 186.371 326.254 186.472C326.808 186.515 327.362 186.515 327.915 186.54C328.47 186.559 329.025 186.591 329.578 186.57L331.239 186.547C331.794 186.534 332.342 186.473 332.895 186.442L333.725 186.383C334 186.361 334.273 186.311 334.548 186.279L336.191 186.054L336.36 186.862L334.688 187.155C334.409 187.199 334.129 187.261 333.851 187.292L333.006 187.385C332.442 187.441 331.88 187.522 331.316 187.557L329.617 187.641C329.05 187.682 328.484 187.664 327.916 187.663C327.35 187.655 326.782 187.667 326.216 187.638C325.085 187.567 323.949 187.543 322.825 187.414C318.312 186.998 313.852 186.188 309.448 185.204C300.647 183.202 292.016 180.676 283.338 178.422C279.001 177.294 274.655 176.219 270.287 175.257C265.922 174.295 261.536 173.446 257.127 172.748C256.025 172.584 254.923 172.395 253.818 172.251L250.505 171.806C248.29 171.555 246.077 171.291 243.856 171.126C239.421 170.759 234.97 170.541 230.525 170.575C229.97 170.577 229.413 170.565 228.86 170.575L225.553 170.683C225.002 170.697 224.452 170.761 223.902 170.797L221.422 170.987C221.146 171.012 220.873 171.051 220.599 171.08L217.303 171.468C212.918 172.078 208.56 172.931 204.239 173.926C195.587 175.923 187.095 178.585 178.717 181.552C174.525 183.03 170.379 184.631 166.25 186.282C162.121 187.931 158.025 189.656 153.954 191.449C145.808 195.006 137.772 198.843 129.887 202.924L129.469 202.206Z" fill="#27292A" fill-opacity="0.6"/>
<path d="M103.044 137.352L103.016 136.348C129.074 135.922 147.769 134.491 161.847 131.846L162.048 132.832C147.909 135.489 129.163 136.925 103.044 137.352Z" fill="#27292A" fill-opacity="0.6"/>
<path d="M147.319 245.449C161.211 245.617 175.112 245.455 188.991 245.082C195.931 244.887 202.867 244.603 209.792 244.242C216.719 243.886 223.635 243.427 230.534 242.834C233.983 242.54 237.429 242.207 240.865 241.829C242.583 241.641 244.304 241.462 246.017 241.245C247.733 241.04 249.447 240.83 251.155 240.583C257.992 239.644 264.788 238.495 271.449 236.928L278.926 234.997C279.755 234.772 280.57 234.512 281.39 234.271L286.312 232.801L292.966 230.492L293.559 230.256L295.93 229.305C297.507 228.659 299.108 228.073 300.634 227.327L304.108 225.727C304.494 225.548 304.886 225.381 305.255 225.176L309.763 222.817C315.697 219.533 321.335 215.751 326.738 211.643L328.752 210.084C329.424 209.564 330.098 209.049 330.749 208.498L334.683 205.245C337.258 203.009 339.843 200.786 342.366 198.477C347.442 193.9 352.437 189.196 357.465 184.513C359.971 182.17 362.499 179.821 365.086 177.525C367.661 175.222 370.283 172.962 372.948 170.747C378.267 166.307 383.831 162.127 389.661 158.294C390.393 157.822 391.114 157.332 391.859 156.874L394.085 155.491L396.351 154.17C397.104 153.725 397.883 153.32 398.647 152.893C401.725 151.223 404.878 149.675 408.11 148.296C411.34 146.913 414.669 145.736 418.053 144.756C419.746 144.273 421.454 143.823 423.175 143.444C424.029 143.231 424.904 143.096 425.767 142.921C426.631 142.743 427.506 142.621 428.375 142.483C435.347 141.411 442.448 141.32 449.413 142.08L449.343 143.225C445.884 143.122 442.436 143.213 439.01 143.482C435.586 143.766 432.189 144.234 428.848 144.923C428.013 145.099 427.175 145.261 426.35 145.476C425.522 145.686 424.692 145.868 423.873 146.106C422.227 146.541 420.599 147.044 418.987 147.577C418.186 147.859 417.381 148.133 416.581 148.423L414.204 149.337L411.858 150.324L409.534 151.364C403.369 154.214 397.527 157.703 391.916 161.535C386.296 165.36 380.96 169.595 375.728 173.965C373.12 176.159 370.55 178.401 368.022 180.691C365.487 182.971 363 185.313 360.476 187.646C355.443 192.31 350.428 197.012 345.289 201.618C342.741 203.936 340.11 206.19 337.492 208.451L333.473 211.758C332.81 212.315 332.117 212.842 331.427 213.373L329.359 214.968C323.815 219.182 317.954 223.037 311.789 226.384L307.11 228.787C306.725 228.998 306.319 229.163 305.92 229.349L302.321 230.973C300.738 231.729 299.084 232.322 297.456 232.973L294.394 234.175L293.773 234.388L287.548 236.493L282.506 237.956C281.666 238.195 280.83 238.455 279.984 238.677L272.343 240.55C265.485 242.072 258.573 243.148 251.642 244.012C244.712 244.873 237.763 245.5 230.81 245.972C223.856 246.446 216.895 246.785 209.935 247.023C202.972 247.256 196.008 247.366 189.047 247.414C182.085 247.465 175.12 247.4 168.159 247.276C161.198 247.156 154.241 246.932 147.279 246.611L147.319 245.449Z" fill="#27292A" fill-opacity="0.6"/>
<path d="M156.27 267.845C162.625 268.243 168.987 268.573 175.351 268.865C181.714 269.16 188.075 269.43 194.441 269.645C207.169 270.061 219.897 270.385 232.615 270.38C245.332 270.382 258.052 270.167 270.695 269.307C277.011 268.851 283.315 268.24 289.505 267.211C290.285 267.105 291.044 266.932 291.814 266.791L294.113 266.346L297.499 265.517C297.873 265.422 298.231 265.294 298.599 265.183L300.787 264.492L303.007 263.679C304.483 263.127 305.975 262.613 307.437 262.028C313.319 259.786 319.113 257.359 324.632 254.483C330.162 251.617 335.38 248.257 340.364 244.523C345.354 240.803 350.148 236.767 354.928 232.696L369.231 220.393C378.778 212.19 388.417 203.946 399.017 196.814C400.33 195.909 401.686 195.06 403.026 194.191L405.073 192.934L406.096 192.309L407.138 191.707C409.896 190.075 412.746 188.582 415.644 187.174L417.833 186.144L420.054 185.18C420.426 185.021 420.793 184.857 421.167 184.702L422.298 184.258C423.054 183.969 423.797 183.655 424.562 183.385C427.603 182.268 430.717 181.328 433.866 180.515L436.246 179.974C436.645 179.887 437.038 179.787 437.441 179.711L438.644 179.49C439.446 179.349 440.244 179.178 441.051 179.066L443.475 178.724C446.714 178.336 449.979 178.068 453.249 178.076C454.884 178.026 456.516 178.117 458.151 178.166C458.97 178.188 459.781 178.277 460.596 178.332L462.428 178.472L463.04 178.547C464.668 178.755 466.303 178.928 467.916 179.25L469.131 179.464C469.537 179.534 469.94 179.605 470.341 179.705L472.744 180.261C475.925 181.088 479.085 182.042 482.116 183.32L483.261 183.778L484.382 184.289C485.126 184.634 485.882 184.954 486.615 185.324L488.802 186.449C489.169 186.632 489.525 186.837 489.879 187.04L490.946 187.652C493.783 189.286 496.505 191.111 499.082 193.1C501.66 195.086 504.151 197.178 506.468 199.435C508.795 201.681 511.008 204.032 513.114 206.457C515.224 208.884 517.206 211.406 519.112 213.968C521.016 216.536 522.836 219.154 524.601 221.797C526.367 224.441 528.071 227.12 529.777 229.783C530.638 231.112 531.495 232.429 532.377 233.736C533.258 235.047 534.142 236.358 535.049 237.645C536.864 240.22 538.718 242.766 540.855 245.064C542.973 247.373 545.291 249.501 547.853 251.325C548.157 251.572 548.502 251.769 548.829 251.988L550.807 253.276L551.839 253.852L553.907 255L556.045 256.022C561.778 258.705 567.888 260.55 574.04 262.118L575.192 262.42L578.681 263.212C580.23 263.567 581.781 263.916 583.344 264.258L588.023 265.288C589.586 265.622 591.136 266.006 592.691 266.363C594.247 266.73 595.804 267.081 597.356 267.461L602.007 268.612C603.559 268.989 605.107 269.393 606.65 269.799L611.286 271.022C617.454 272.696 623.594 274.48 629.702 276.356C635.803 278.251 641.879 280.226 647.924 282.278L656.988 285.331C658.497 285.835 660.003 286.359 661.512 286.848L663.776 287.595L666.046 288.312C672.076 290.241 678.243 291.739 684.466 292.972C687.579 293.574 690.711 294.109 693.857 294.533C695.43 294.742 697.004 294.95 698.587 295.109C700.166 295.277 701.753 295.423 703.332 295.515L703.337 296.014C700.131 296.097 696.939 295.943 693.744 295.71C690.551 295.457 687.366 295.113 684.197 294.629C681.026 294.148 677.86 293.609 674.727 292.909C673.941 292.751 673.16 292.566 672.376 292.38C671.595 292.195 670.812 292.017 670.03 291.825C668.476 291.419 666.914 291.014 665.377 290.554L663.068 289.881L660.772 289.18C659.239 288.718 657.718 288.231 656.196 287.748L647.094 284.778C641.033 282.801 634.983 280.8 628.919 278.857C625.886 277.887 622.854 276.914 619.808 275.985C616.77 275.031 613.721 274.123 610.674 273.197C604.563 271.412 598.448 269.625 592.284 268.029C590.743 267.627 589.21 267.2 587.662 266.821L583.023 265.674L578.377 264.518L574.886 263.641L573.73 263.32C572.189 262.883 570.641 262.483 569.109 262.017C567.581 261.529 566.048 261.07 564.531 260.557L562.268 259.74C561.516 259.463 560.748 259.226 560.012 258.901L557.784 257.984C557.415 257.828 557.038 257.687 556.674 257.519L555.584 257.001L553.403 255.969L551.286 254.806L550.228 254.221L548.189 252.922C547.853 252.699 547.5 252.503 547.184 252.252L545.239 250.814C544.909 250.583 544.61 250.309 544.302 250.05L543.383 249.264C543.081 249 542.765 248.748 542.47 248.473L541.604 247.633C541.029 247.068 540.429 246.527 539.903 245.922C539.362 245.33 538.809 244.744 538.282 244.142L536.742 242.296C536.225 241.683 535.753 241.042 535.256 240.414L534.52 239.469L533.81 238.508C532.858 237.23 531.931 235.94 531.009 234.648C530.083 233.355 529.176 232.047 528.279 230.742C524.67 225.532 521.069 220.353 517.09 215.475C513.136 210.584 508.853 205.978 504.182 201.83C499.502 197.697 494.442 194.007 488.983 191.065C486.273 189.563 483.451 188.278 480.569 187.159C477.695 186.015 474.725 185.139 471.731 184.396L469.47 183.888C469.096 183.794 468.713 183.728 468.333 183.664L467.192 183.466C465.675 183.167 464.135 183.011 462.603 182.816L462.029 182.746L461.447 182.698L460.286 182.606C459.513 182.554 458.739 182.462 457.966 182.441C456.416 182.394 454.867 182.299 453.317 182.343C450.217 182.327 447.127 182.573 444.055 182.93L441.757 183.245C440.992 183.349 440.236 183.513 439.473 183.642L438.332 183.848C437.953 183.917 437.576 184.011 437.201 184.092L434.939 184.597C431.942 185.36 428.975 186.242 426.07 187.3C425.339 187.556 424.625 187.855 423.903 188.127L422.822 188.548C422.462 188.693 422.108 188.851 421.753 189.001L419.618 189.919L417.512 190.902C414.72 192.245 411.965 193.677 409.286 195.25L408.276 195.83L407.28 196.436L405.29 197.652C403.983 198.492 402.66 199.317 401.374 200.195C391.02 207.136 381.396 215.178 371.813 223.313L357.405 235.527C352.575 239.578 347.707 243.622 342.567 247.397C337.432 251.169 331.97 254.597 326.243 257.487C320.523 260.39 314.589 262.795 308.615 265C307.129 265.573 305.621 266.08 304.125 266.618L301.878 267.416L299.525 268.131C299.131 268.244 298.738 268.379 298.344 268.475L294.787 269.302L292.404 269.738C291.61 269.875 290.817 270.044 290.02 270.145C283.657 271.112 277.274 271.634 270.893 272.003C264.511 272.354 258.128 272.516 251.748 272.59C250.151 272.602 248.557 272.626 246.963 272.625L242.18 272.621C238.992 272.59 235.802 272.566 232.615 272.498C226.237 272.384 219.862 272.193 213.492 271.945C207.119 271.703 200.751 271.403 194.386 271.044C181.655 270.337 168.938 269.448 156.232 268.335L156.27 267.845Z" fill="#27292A" fill-opacity="0.6"/>
<path d="M164.968 289.2C189.148 289.851 213.327 290.56 237.508 291.14C249.598 291.416 261.688 291.745 273.769 291.913C285.865 292.079 297.947 292.356 309.978 291.828C321.994 291.298 334 289.991 345.549 286.95C348.43 286.182 351.29 285.333 354.091 284.343C356.895 283.347 359.648 282.237 362.344 281.003C367.739 278.497 372.999 275.648 378.238 272.753C388.709 266.951 399.107 260.929 409.871 255.521C415.252 252.819 420.716 250.252 426.301 247.933C431.885 245.617 437.587 243.536 443.44 241.87C449.291 240.222 455.294 238.983 461.402 238.394C461.781 238.356 462.162 238.305 462.545 238.28L465.996 238.081C466.765 238.056 467.534 238.065 468.302 238.053L469.456 238.044L470.032 238.041L470.61 238.067C472.149 238.149 473.697 238.177 475.216 238.358L477.506 238.584L480.928 239.049L482.063 239.245L484.33 239.642C485.084 239.79 485.833 239.962 486.584 240.119L487.708 240.36C488.082 240.441 488.453 240.544 488.824 240.638L491.056 241.203L493.269 241.842L494.374 242.165L495.468 242.523C496.195 242.764 496.927 242.993 497.654 243.245C500.546 244.265 503.393 245.403 506.194 246.643C508.983 247.908 511.723 249.261 514.417 250.702C519.793 253.601 524.967 256.818 530.051 260.105C532.597 261.744 535.124 263.394 537.678 264.984C540.23 266.569 542.805 268.102 545.454 269.426C546.112 269.775 546.789 270.061 547.454 270.373C548.127 270.675 548.809 270.937 549.489 271.212L550.519 271.571L551.034 271.748L551.556 271.893L552.6 272.186L553.684 272.428C556.578 273.07 559.538 273.494 562.514 273.808C568.475 274.425 574.504 274.624 580.541 274.819C586.58 275.011 592.639 275.182 598.695 275.52C604.754 275.862 610.816 276.363 616.848 277.17C619.864 277.574 622.872 278.038 625.865 278.606C628.861 279.15 631.836 279.818 634.793 280.543C636.268 280.927 637.747 281.291 639.209 281.727C639.941 281.942 640.676 282.137 641.404 282.365L643.584 283.05C644.314 283.271 645.032 283.52 645.751 283.766L650.062 285.246L652.2 286.041C657.909 288.134 663.508 290.511 669.022 293.04C674.539 295.563 679.978 298.226 685.472 300.742C690.964 303.26 696.521 305.634 702.201 307.697C707.873 309.775 713.64 311.585 719.466 313.214L719.283 313.902C713.414 312.365 707.588 310.649 701.858 308.644C696.123 306.641 690.506 304.321 684.962 301.863C679.418 299.405 673.945 296.812 668.419 294.367C662.898 291.913 657.306 289.64 651.632 287.593L649.505 286.819L647.361 286.1L645.216 285.384C644.502 285.144 643.786 284.902 643.067 284.691L640.911 284.031C640.19 283.813 639.464 283.625 638.74 283.419C637.293 283.002 635.831 282.654 634.372 282.285C631.445 281.591 628.503 280.954 625.54 280.438C622.581 279.899 619.601 279.461 616.615 279.084C610.641 278.331 604.631 277.881 598.611 277.586C592.589 277.298 586.554 277.174 580.502 277.026C574.455 276.873 568.383 276.685 562.299 276.086C559.26 275.776 556.213 275.356 553.192 274.698L552.06 274.448L550.341 273.976L548.669 273.403C547.943 273.113 547.212 272.835 546.502 272.518C545.799 272.19 545.08 271.888 544.396 271.531C541.627 270.157 538.991 268.602 536.401 267.004C533.811 265.404 531.268 263.758 528.721 262.133C523.642 258.865 518.532 255.693 513.244 252.854C510.597 251.446 507.91 250.119 505.181 248.888C502.442 247.679 499.664 246.572 496.841 245.581C496.136 245.336 495.421 245.113 494.712 244.881L493.647 244.532L490.416 243.601L488.246 243.056C487.884 242.969 487.522 242.868 487.159 242.788L486.064 242.556C485.333 242.404 484.606 242.24 483.873 242.095L481.669 241.711L480.568 241.523L479.457 241.374L477.241 241.073L475.016 240.857C473.527 240.683 472.052 240.66 470.571 240.575L470.014 240.549L469.456 240.551L468.343 240.559C467.6 240.568 466.86 240.558 466.117 240.581L462.779 240.773C462.41 240.8 462.041 240.848 461.669 240.884C455.751 241.449 449.896 242.647 444.158 244.258C438.421 245.883 432.806 247.926 427.29 250.207C421.774 252.491 416.36 255.025 411.015 257.701C400.327 263.062 389.933 269.005 379.417 274.8C374.152 277.687 368.848 280.54 363.344 283.077C360.577 284.33 357.749 285.462 354.881 286.47C352.011 287.473 349.094 288.335 346.149 289.101C334.355 292.127 322.195 293.368 310.082 293.828C297.957 294.284 285.838 293.932 273.758 293.694C267.709 293.569 261.658 293.415 255.612 293.238C249.566 293.068 243.519 292.87 237.475 292.662L201.209 291.355C189.119 290.911 177.036 290.423 164.947 289.919L164.968 289.2Z" fill="#27292A" fill-opacity="0.6"/>
<path d="M174.266 312.295C197.947 312.387 221.629 312.501 245.31 312.495L280.83 312.485L298.589 312.415L303.028 312.39L316.325 312.159C317.804 312.149 319.278 312.076 320.757 312.02L331.829 311.584L342.886 310.925L345.1 310.797L351.724 310.291C357.617 309.883 363.493 309.291 369.375 308.76C375.251 308.147 381.128 307.555 386.993 306.861C398.735 305.533 410.457 304.027 422.219 302.701C433.979 301.382 445.785 300.243 457.65 299.718C460.617 299.612 463.581 299.427 466.555 299.446L471.014 299.414L473.244 299.403C473.986 299.404 474.731 299.444 475.472 299.461C478.442 299.56 481.422 299.639 484.386 299.802L488.824 300.072L493.26 300.382C505.086 301.216 516.891 302.31 528.717 302.923C534.626 303.239 540.545 303.424 546.451 303.392C552.358 303.367 558.263 303.113 564.111 302.463C569.963 301.825 575.786 300.861 581.622 299.934C587.457 298.999 593.305 298.068 599.19 297.282C610.943 295.702 622.879 294.751 634.884 295.259L640.505 295.62L641.627 295.742L643.873 295.995C646.873 296.268 649.84 296.862 652.819 297.349C658.718 298.52 664.534 300.052 670.246 301.882C675.951 303.729 681.557 305.859 687.041 308.235C692.532 310.591 697.898 313.193 703.203 315.873C708.493 318.58 713.739 321.336 719.007 324.011C724.293 326.639 729.616 329.209 735.279 330.933L735.181 331.341C732.253 330.772 729.375 329.922 726.558 328.936C723.735 327.959 720.966 326.845 718.227 325.681C715.482 324.522 712.764 323.316 710.064 322.083L701.967 318.419C696.578 315.978 691.169 313.612 685.698 311.441C682.967 310.342 680.209 309.327 677.446 308.33C674.68 307.34 671.889 306.44 669.091 305.565C666.283 304.719 663.465 303.916 660.622 303.213C657.788 302.485 654.927 301.861 652.058 301.297C649.186 300.824 646.333 300.254 643.429 299.971L641.258 299.706L640.174 299.575L639.081 299.495L634.715 299.157C633.988 299.084 633.255 299.086 632.526 299.051L630.333 298.969L628.139 298.879C627.408 298.864 626.674 298.869 625.944 298.862L621.547 298.844L617.147 298.941C615.677 298.954 614.212 299.057 612.745 299.121C611.278 299.195 609.809 299.251 608.344 299.364L603.94 299.663L599.539 300.044C593.669 300.582 587.804 301.227 581.934 301.933C579 302.285 576.062 302.636 573.117 302.966C570.173 303.29 567.228 303.621 564.263 303.854C552.401 304.787 540.522 304.353 528.682 303.887L493.17 302.352L484.299 301.99C483.561 301.952 482.822 301.939 482.086 301.926L479.877 301.884L475.457 301.771C474.722 301.758 473.983 301.72 473.246 301.725L471.035 301.745L466.613 301.775C463.666 301.748 460.72 301.923 457.774 302.019C434.194 303 410.773 306.353 387.251 308.92C381.376 309.597 375.481 310.169 369.593 310.765C363.694 311.28 357.803 311.853 351.89 312.245L345.244 312.729L343.026 312.849L331.932 313.433L320.824 313.791C319.343 313.84 317.864 313.896 316.381 313.898L303.045 314.037L298.602 314.029L280.84 313.975C268.996 313.914 257.153 313.842 245.311 313.719L209.786 313.285L192.024 313.024L174.262 312.711L174.266 312.295Z" fill="#27292A" fill-opacity="0.6"/>
<path d="M183.799 335.489C195.792 335.878 207.792 336.178 219.788 336.4C231.786 336.602 243.783 336.708 255.777 336.655L264.772 336.573L273.76 336.386C279.744 336.176 285.741 335.993 291.686 335.444L293.915 335.254L296.146 335.012L300.609 334.515L309.532 333.477L327.382 331.356C339.284 329.96 351.186 328.553 363.103 327.221C369.063 326.557 375.031 325.959 381.009 325.406C383.999 325.138 386.99 324.889 389.986 324.648L396.734 324.192L398.986 324.076C404.988 323.717 411.026 323.642 417.051 323.683L418.184 323.685L419.314 323.714L426.093 323.903C427.598 323.956 429.101 324.051 430.606 324.126L435.117 324.369C447.138 325.132 459.107 326.453 471.045 327.834C482.985 329.223 494.897 330.733 506.832 331.879C518.766 332.992 530.734 333.71 542.671 333.362C548.643 333.179 554.616 332.8 560.579 332.316C566.545 331.836 572.504 331.277 578.466 330.674C590.384 329.475 602.307 328.183 614.273 327.182C626.239 326.181 638.258 325.429 650.345 325.623C656.384 325.735 662.446 326.057 668.478 326.909C669.229 327.018 669.988 327.115 670.736 327.237L677.436 328.417L684.094 329.795C684.834 329.953 685.565 330.136 686.302 330.303L690.708 331.348C692.175 331.702 693.632 332.101 695.093 332.473C698.018 333.209 700.917 334.049 703.821 334.862C709.607 336.556 715.367 338.335 721.075 340.253C726.786 342.164 732.466 344.16 738.109 346.25C740.932 347.283 743.749 348.338 746.561 349.396C749.374 350.429 752.186 351.553 755.002 352.43L754.747 353.401C751.786 352.611 748.963 351.631 746.101 350.687L737.551 347.826C731.853 345.932 726.148 344.061 720.412 342.307C718.977 341.876 717.55 341.409 716.11 340.99L711.8 339.71C710.366 339.275 708.917 338.889 707.475 338.477C706.03 338.078 704.594 337.65 703.143 337.277C700.25 336.509 697.361 335.715 694.448 335.021C692.995 334.668 691.546 334.293 690.085 333.962L685.708 332.986C684.976 332.824 684.249 332.649 683.519 332.498L676.926 331.183L670.305 330.067C669.57 329.952 668.837 329.863 668.104 329.764C665.169 329.362 662.208 329.112 659.244 328.893C657.759 328.822 656.274 328.715 654.788 328.667C653.301 328.626 651.812 328.554 650.321 328.547C644.363 328.45 638.391 328.556 632.422 328.81C626.453 329.051 620.481 329.406 614.511 329.842C602.576 330.712 590.644 331.84 578.697 332.882C572.724 333.398 566.746 333.916 560.757 334.346C554.767 334.766 548.769 335.155 542.747 335.308C530.693 335.628 518.641 334.93 506.658 333.889C494.672 332.825 482.732 331.439 470.795 330.153C458.861 328.857 446.923 327.7 434.976 326.965L426.014 326.528L419.292 326.34L418.172 326.31L417.05 326.309C411.074 326.28 405.111 326.312 399.138 326.624C387.193 327.131 375.246 328.029 363.311 329.064C351.374 330.088 339.46 331.352 327.556 332.698L309.695 334.72L300.759 335.709L296.289 336.183L294.051 336.412L291.8 336.592C285.803 337.114 279.8 337.259 273.797 337.44L264.794 337.593L255.792 337.656C243.786 337.69 231.782 337.54 219.78 337.334C207.778 337.131 195.775 336.855 183.772 336.484L183.799 335.489Z" fill="#27292A" fill-opacity="0.6"/>
<path d="M193.514 359.709C199.595 360.083 205.68 360.353 211.769 360.554C217.858 360.766 223.945 360.928 230.039 361.036C242.221 361.236 254.401 361.246 266.574 361.001C278.743 360.745 290.912 360.187 303.004 359.015C309.05 358.439 315.07 357.619 321.092 356.795C327.112 355.965 333.127 355.091 339.144 354.214L375.244 348.911C387.286 347.163 399.352 345.524 411.463 344.155C412.975 343.973 414.491 343.823 416.01 343.664C417.528 343.511 419.04 343.339 420.559 343.201L425.113 342.767C426.631 342.625 428.156 342.513 429.676 342.385C435.762 341.909 441.856 341.487 447.975 341.291C449.501 341.222 451.032 341.192 452.564 341.153C454.094 341.116 455.624 341.069 457.159 341.072C458.691 341.075 460.225 341.05 461.76 341.078L466.361 341.158L470.971 341.338C472.507 341.405 474.043 341.531 475.579 341.633C478.652 341.88 481.734 342.202 484.756 342.608C487.795 342.987 490.832 343.38 493.855 343.863L498.395 344.554C499.911 344.776 501.414 345.063 502.923 345.318L507.443 346.104C508.947 346.375 510.447 346.669 511.952 346.95L516.457 347.806L520.951 348.71C523.95 349.304 526.937 349.934 529.925 350.563L538.879 352.463C544.853 353.704 550.815 354.979 556.801 356.123L563.538 357.392L565.786 357.783L570.286 358.556C571.787 358.801 573.295 359.013 574.798 359.245C580.813 360.184 586.856 360.868 592.909 361.408C594.422 361.538 595.939 361.609 597.453 361.715L600.863 361.935C601.242 361.957 601.621 361.958 602.003 361.971L608.831 362.14L611.115 362.146C617.204 362.179 623.291 362.152 629.378 362.11L647.646 361.911C653.739 361.843 659.836 361.794 665.936 361.848C678.139 361.946 690.36 362.495 702.525 363.626L707.085 364.061C708.605 364.203 710.121 364.379 711.638 364.542C714.673 364.864 717.704 365.233 720.735 365.6C726.797 366.35 732.844 367.176 738.881 368.104C744.916 369.027 750.941 370.028 756.944 371.142C759.946 371.702 762.944 372.275 765.934 372.885C768.927 373.484 771.911 374.126 774.889 374.819L774.788 375.282C768.804 374.143 762.791 373.117 756.771 372.181C750.749 371.24 744.719 370.367 738.68 369.561C732.644 368.742 726.594 368.035 720.541 367.347C717.515 367.021 714.487 366.688 711.457 366.406C709.941 366.264 708.43 366.093 706.913 365.966L702.366 365.567C700.85 365.422 699.336 365.331 697.818 365.214C696.302 365.104 694.787 364.981 693.27 364.899L688.718 364.618L684.165 364.396C678.09 364.126 672.015 363.971 665.932 363.887C659.848 363.825 653.763 363.814 647.674 363.817L629.397 363.841C623.304 363.832 617.207 363.803 611.113 363.72L608.827 363.692L601.951 363.462C601.187 363.447 600.425 363.395 599.66 363.341L597.371 363.189C595.847 363.081 594.317 363.005 592.794 362.873C586.708 362.304 580.624 361.645 574.582 360.733C573.071 360.509 571.557 360.302 570.047 360.062L565.525 359.324L563.265 358.96L556.498 357.776L547.488 356.139L538.488 354.471L529.485 352.846C526.485 352.315 523.483 351.775 520.482 351.278C508.475 349.237 496.434 347.49 484.36 346.22C481.336 345.863 478.346 345.601 475.339 345.407L473.08 345.285C472.326 345.25 471.576 345.183 470.82 345.167L466.292 345.01L461.759 344.952C460.247 344.931 458.733 344.963 457.223 344.967C455.71 344.96 454.196 344.991 452.682 345.023C451.169 345.051 449.655 345.071 448.142 345.131C436.032 345.515 423.914 346.31 411.808 347.312C399.7 348.299 387.607 349.541 375.524 350.9C369.486 351.606 363.448 352.326 357.418 353.097C351.388 353.879 345.358 354.654 339.333 355.476C333.308 356.288 327.279 357.101 321.243 357.871C315.206 358.633 309.166 359.391 303.092 359.906L298.538 360.284C297.02 360.408 295.499 360.483 293.977 360.582C292.456 360.67 290.939 360.788 289.416 360.848L284.852 361.054L282.569 361.153L280.285 361.224L275.72 361.377C272.677 361.463 269.629 361.519 266.586 361.583C254.402 361.772 242.217 361.687 230.03 361.446C223.936 361.339 217.846 361.176 211.757 360.964C205.664 360.751 199.575 360.505 193.488 360.164L193.514 359.709Z" fill="#27292A" fill-opacity="0.6"/>
<path d="M203.821 385.127C216.183 385.626 228.553 385.963 240.919 386.19C253.288 386.396 265.656 386.459 278.02 386.366C302.744 386.159 327.48 385.348 351.98 382.401C376.501 379.569 400.863 375.54 425.334 372.1C431.457 371.26 437.576 370.398 443.72 369.662C446.788 369.283 449.856 368.883 452.935 368.57C456.014 368.247 459.087 367.886 462.172 367.59C474.501 366.378 486.9 365.567 499.354 365.527L504.024 365.53L513.376 365.898L518.041 366.306C519.597 366.446 521.15 366.574 522.702 366.727L527.344 367.334L529.662 367.643C530.436 367.748 531.208 367.835 531.973 367.98L536.582 368.77C539.662 369.254 542.7 369.927 545.75 370.538L548.035 371.007L554.849 372.571C557.874 373.272 560.877 374.054 563.897 374.774L572.914 377.041C578.922 378.555 584.934 380.022 590.962 381.417L595.492 382.421C597.003 382.75 598.508 383.108 600.027 383.398L606.848 384.771C607.607 384.924 608.365 385.08 609.125 385.206C621.273 387.527 633.55 389.139 645.861 390.246C658.172 391.412 670.539 391.77 682.909 392.254L757.11 394.995L794.21 396.286L794.199 396.774L757.096 395.467L668.973 392.573C667.427 392.524 665.88 392.489 664.333 392.401L652.732 391.845L645.781 391.297C633.43 390.293 621.096 388.782 608.886 386.557C608.12 386.437 607.36 386.287 606.596 386.139L599.741 384.818C598.214 384.54 596.702 384.193 595.184 383.876L590.632 382.908C587.6 382.261 584.578 381.561 581.551 380.887L572.49 378.803C560.419 376.015 548.33 373.352 536.14 371.593L531.57 370.952C530.81 370.833 530.044 370.772 529.278 370.687L526.984 370.449L522.402 369.969C520.87 369.855 519.339 369.768 517.806 369.667L513.214 369.377L504.015 369.16L499.409 369.226L494.802 369.275C494.035 369.273 493.266 369.309 492.498 369.343L483.283 369.734L480.979 369.879C477.91 370.083 474.836 370.253 471.766 370.481L462.557 371.239C450.283 372.342 438.022 373.688 425.762 375.107C413.504 376.556 401.25 378.089 388.99 379.611C376.733 381.147 364.464 382.662 352.165 383.946L347.552 384.431L337.155 385.362L333.683 385.596C327.51 386.055 321.327 386.329 315.145 386.59L305.868 386.884L294.271 387.105L291.951 387.122L282.67 387.205L278.028 387.207C265.654 387.22 253.277 387.059 240.906 386.782C228.533 386.51 216.164 386.135 203.794 385.595L203.821 385.127Z" fill="#27292A" fill-opacity="0.6"/>
<path d="M214.845 412.066C227.382 412.305 239.918 412.481 252.457 412.626C264.995 412.749 277.534 412.824 290.07 412.867C302.607 412.903 315.144 412.893 327.68 412.844L346.484 412.713C352.755 412.667 359.008 412.587 365.263 412.357C377.769 411.871 390.251 410.946 402.705 409.76C415.158 408.563 427.586 407.099 440.012 405.616C452.443 404.142 464.87 402.59 477.345 401.326C489.816 400.04 502.334 399.011 514.907 398.574C521.192 398.392 527.49 398.341 533.792 398.56C535.367 398.618 536.94 398.659 538.515 398.763L540.877 398.899L542.056 398.965L543.238 399.059C544.807 399.193 546.384 399.301 547.949 399.458L552.641 399.941C565.148 401.233 577.602 402.936 590.034 404.723C614.895 408.282 639.697 412.215 664.67 414.579C677.153 415.765 689.665 416.6 702.192 417.008L711.586 417.252L739.8 417.78L815.033 419.103L815.022 420.106L739.792 418.707L711.581 418.214L702.169 417.979C689.624 417.575 677.082 416.82 664.576 415.672C652.069 414.541 639.595 413.01 627.15 411.335C614.703 409.662 602.283 407.816 589.846 406.16C577.408 404.505 564.948 403.066 552.464 402.006C540 400.773 527.522 400.718 515.038 401.189C502.558 401.691 490.097 402.699 477.65 403.919C465.201 405.135 452.761 406.515 440.311 407.86C434.087 408.535 427.855 409.189 421.62 409.808C415.386 410.434 409.146 411.013 402.898 411.536C390.407 412.616 377.885 413.419 365.338 413.808C359.066 414.015 352.782 414.068 346.518 414.092L327.709 414.147C315.167 414.149 302.628 414.108 290.088 414.023C277.547 413.933 265.007 413.802 252.467 413.639C239.927 413.49 227.388 413.313 214.846 413.065L214.845 412.066Z" fill="#27292A" fill-opacity="0.6"/>
<path d="M225.96 440.489L225.964 439.484C227.063 439.5 336.842 440.98 412.37 439.616C438.82 439.139 463.936 438.091 488.224 437.083C534.598 435.151 578.401 433.329 626.341 435.534C691.567 438.532 767.356 441.549 834.939 441.197L834.956 442.202C767.351 442.554 691.544 439.538 626.306 436.536C578.41 434.335 534.629 436.157 488.278 438.085C463.982 439.095 438.858 440.144 412.398 440.621C336.852 441.983 227.06 440.501 225.96 440.489Z" fill="#27292A" fill-opacity="0.6"/>
<path d="M589.692 250.106C588.007 249.571 586.351 249.014 584.721 248.43C548.442 235.446 514.603 202.477 514.265 202.145L514.983 201.437C515.317 201.768 549.003 234.579 585.065 247.483C621.151 260.399 671.925 261.004 672.432 261.007L672.435 262.01C671.94 262.015 625.452 261.459 589.692 250.106Z" fill="#27292A" fill-opacity="0.6"/>
<path d="M593.411 263.026C593.048 262.91 592.687 262.796 592.325 262.677C566.656 254.437 549.4 244.2 539.443 237.063C528.632 229.315 523.829 223.421 523.779 223.363L524.576 222.743C524.623 222.8 529.366 228.612 540.083 236.284C549.973 243.365 567.12 253.529 592.632 261.723C646.356 278.968 686.946 277.595 687.351 277.58L687.404 278.582C686.994 278.603 646.774 279.967 593.411 263.026Z" fill="#27292A" fill-opacity="0.6"/>
<path d="M602.687 236.094C600.343 235.35 598.01 234.55 595.691 233.698C579.725 227.826 564.526 219.515 547.855 207.55C519.038 186.862 504.774 180.595 504.632 180.536L505.034 179.618C505.175 179.681 519.524 185.975 548.45 206.743C572.102 223.723 605.706 243.174 656.062 242.882L656.078 243.887C637.068 243.994 619.524 241.439 602.687 236.094Z" fill="#27292A" fill-opacity="0.6"/>
<path d="M583.345 203.997C575 201.348 566.732 198.004 558.582 193.975C535.418 182.529 511.057 172.79 510.814 172.691L511.187 171.762C511.431 171.86 535.826 181.614 559.032 193.077C581.029 203.945 603.843 209.796 626.849 210.466L626.83 211.47C612.205 211.045 597.657 208.541 583.345 203.997Z" fill="#27292A" fill-opacity="0.6"/>
<path d="M531.674 181.491L531.941 180.524C584.92 195.198 613.335 195.801 613.616 195.806L613.611 196.811C613.327 196.805 584.8 196.209 531.674 181.491Z" fill="#27292A" fill-opacity="0.6"/>
<path d="M600.923 181.544L511.077 171.636L510.975 172.634L600.821 182.542L600.923 181.544Z" fill="#27292A" fill-opacity="0.6"/>
<path d="M264.171 146.149L264.461 145.189C264.653 145.247 284.075 151.073 306.715 153.793C329.388 156.521 373.631 159.67 374.075 159.703L374.014 160.704C373.571 160.671 329.3 157.521 306.602 154.789C283.866 152.055 264.363 146.206 264.171 146.149Z" fill="#27292A" fill-opacity="0.6"/>
<path d="M298.516 163.806C288.398 160.594 280.312 157.094 280.183 157.039L280.585 156.122C280.796 156.213 301.705 165.263 318.334 167.559C336.449 170.06 357.962 170.151 358.177 170.149L358.186 171.155C357.969 171.153 336.39 171.065 318.203 168.556C311.797 167.665 304.767 165.791 298.516 163.806Z" fill="#27292A" fill-opacity="0.6"/>
<path d="M138.129 223.356C141.706 222.332 145.301 221.373 148.91 220.461L151.615 219.773L154.329 219.113C156.138 218.671 157.948 218.239 159.763 217.823C167.016 216.136 174.304 214.575 181.625 213.179C196.262 210.351 211.024 208.039 225.896 206.516L231.475 205.949C233.337 205.779 235.204 205.65 237.067 205.498L242.658 205.085L251.015 204.523L259.363 203.902L264.921 203.423L267.7 203.19L270.473 202.917C277.874 202.216 285.257 201.348 292.574 200.169L295.322 199.73L300.784 198.708C301.689 198.525 302.591 198.317 303.496 198.124L306.206 197.533L308.893 196.858C309.788 196.626 310.688 196.414 311.573 196.159L315.551 194.974C315.992 194.844 316.423 194.68 316.862 194.535L319.476 193.64C319.914 193.498 320.342 193.333 320.768 193.16L322.051 192.655L323.973 191.891L324.601 191.61L327.108 190.478L327.735 190.193L328.345 189.878L329.569 189.253C331.22 188.455 332.783 187.504 334.374 186.599C337.483 184.697 340.456 182.524 343.422 180.342L352.301 173.722C358.251 169.331 364.274 165.002 370.577 161.053C373.723 159.076 376.918 157.162 380.197 155.388C383.469 153.6 386.791 151.892 390.204 150.36L391.479 149.776L392.769 149.225C393.632 148.861 394.49 148.488 395.356 148.132C397.104 147.456 398.84 146.749 400.621 146.147C402.382 145.496 404.18 144.952 405.975 144.386C406.872 144.106 407.785 143.874 408.692 143.618L410.052 143.24C410.504 143.11 410.966 143.015 411.423 142.904L414.174 142.252L416.951 141.699L418.342 141.426L419.741 141.204L422.542 140.768L425.363 140.447L426.775 140.288L431.029 139.988L433.875 139.892C441.463 139.749 449.114 140.491 456.55 142.291C463.984 144.072 471.185 146.927 477.821 150.762C484.453 154.6 490.527 159.396 495.789 164.924C498.415 167.693 500.841 170.644 503.074 173.716L503.904 174.873C504.182 175.256 504.456 175.645 504.714 176.046L506.282 178.423L507.763 180.849C508.261 181.656 508.698 182.496 509.17 183.316C509.4 183.729 509.638 184.137 509.858 184.558L510.508 185.82C510.938 186.661 511.388 187.494 511.779 188.355L512.984 190.918C513.359 191.798 513.741 192.677 514.077 193.565C514.764 195.34 515.369 197.138 515.894 198.949C516.435 200.758 516.882 202.58 517.295 204.408C518.901 211.727 519.709 219.108 520.469 226.45C520.843 230.124 521.211 233.792 521.558 237.461C521.904 241.13 522.204 244.801 522.474 248.474C523.016 255.816 523.446 263.162 523.881 270.501C524.32 277.842 524.764 285.178 525.377 292.497C525.691 296.156 526.039 299.811 526.489 303.457C526.937 307.098 527.478 310.73 528.207 314.321C528.569 316.115 528.996 317.899 529.496 319.657C529.999 321.415 530.581 323.149 531.314 324.813C531.674 325.649 532.091 326.451 532.545 327.262L533.884 329.685C534.315 330.499 534.806 331.282 535.283 332.075L536.716 334.448C540.638 340.722 545.053 346.692 549.533 352.612C554.018 358.531 558.579 364.401 562.938 370.423C567.298 376.439 571.452 382.614 575.181 389.033C576.111 390.639 576.99 392.272 577.897 393.892C578.789 395.518 579.639 397.163 580.51 398.796L585.686 408.626L595.991 428.31L616.443 467.759L616.163 467.898C609.392 454.728 602.556 441.587 595.693 428.461L585.354 408.794L580.127 398.99C579.247 397.361 578.385 395.72 577.487 394.102C576.576 392.494 575.691 390.871 574.755 389.273C571.004 382.889 566.832 376.75 562.447 370.765C558.067 364.775 553.48 358.932 548.961 353.03C544.451 347.125 539.997 341.156 535.988 334.887C534.029 331.716 532.086 328.571 530.447 325.183C529.676 323.469 529.065 321.701 528.538 319.917C528.015 318.131 527.565 316.33 527.184 314.515C526.412 310.89 525.839 307.237 525.356 303.581C524.874 299.922 524.491 296.255 524.145 292.587C523.465 285.25 522.959 277.908 522.456 270.568C521.955 263.232 521.462 255.894 520.86 248.572C520.558 244.91 520.229 241.254 519.852 237.6C519.479 233.947 519.032 230.302 518.457 226.677C517.292 219.431 515.695 212.248 513.643 205.275C513.124 203.533 512.595 201.801 512.008 200.093C511.731 199.233 511.408 198.391 511.114 197.541C510.794 196.703 510.488 195.855 510.142 195.03C509.818 194.194 509.456 193.378 509.101 192.561L507.952 190.099C507.582 189.274 507.15 188.474 506.741 187.667L506.122 186.457C505.914 186.055 505.684 185.663 505.467 185.268C505.02 184.48 504.6 183.674 504.127 182.903L502.722 180.578L501.231 178.306C500.988 177.924 500.727 177.553 500.461 177.185L499.674 176.076C497.556 173.135 495.248 170.33 492.773 167.683C487.82 162.383 482.103 157.791 475.843 154.089C469.582 150.39 462.785 147.556 455.698 145.761C448.618 143.955 441.29 143.087 433.962 143.107L431.214 143.153L428.466 143.301L427.091 143.376L425.723 143.51L422.985 143.773L420.261 144.149L418.896 144.34L417.543 144.584L414.836 145.074L412.147 145.665C411.7 145.768 411.248 145.853 410.804 145.968L409.472 146.313C408.586 146.551 407.691 146.757 406.812 147.018C405.052 147.543 403.284 148.044 401.553 148.648C399.804 149.204 398.092 149.87 396.366 150.5C395.51 150.832 394.662 151.186 393.811 151.526L392.534 152.047L391.273 152.6C384.526 155.517 378.033 159.006 371.766 162.855C365.484 166.684 359.436 170.889 353.479 175.235L344.548 181.79C341.551 183.959 338.536 186.129 335.323 188.068C333.698 188.99 332.099 189.962 330.41 190.779L328.534 191.737L325.336 193.179L324.694 193.466L324.04 193.725L322.736 194.244L321.434 194.766C321.002 194.945 320.565 195.118 320.121 195.265L317.474 196.198C317.033 196.349 316.593 196.518 316.147 196.654L314.805 197.065C307.659 199.292 300.35 200.954 292.99 202.268C285.627 203.57 278.222 204.633 270.793 205.423L268.006 205.738L265.217 206.013L259.637 206.538L251.257 207.216L242.873 207.762L237.31 208.155C235.456 208.289 233.603 208.395 231.751 208.547L226.198 209.053C218.795 209.728 211.419 210.644 204.043 211.591C196.683 212.637 189.324 213.702 181.994 214.966C178.326 215.568 174.671 216.245 171.008 216.888C167.352 217.575 163.698 218.259 160.052 218.984C152.759 220.435 145.474 221.954 138.231 223.641L138.129 223.356Z" fill="#27292A" fill-opacity="0.6"/>
<path d="M133.648 123.226C133.57 124.134 133.642 125.146 133.826 126.098C133.863 126.342 133.916 126.579 133.98 126.817C134.04 127.054 134.088 127.297 134.164 127.531L134.398 128.233L134.519 128.584L134.665 128.924C135.417 130.755 136.55 132.44 137.948 133.866C138.624 134.606 139.433 135.21 140.214 135.833L141.474 136.661C141.881 136.955 142.351 137.15 142.789 137.391C143.671 137.867 144.593 138.282 145.531 138.671C146.462 139.069 147.405 139.442 148.357 139.807C150.259 140.537 152.167 141.29 154.049 142.172C155.919 143.067 157.748 144.128 159.416 145.422C161.085 146.716 162.6 148.214 163.939 149.838C165.272 151.467 166.43 153.223 167.454 155.039C168.466 156.861 169.367 158.728 170.136 160.638C170.929 162.541 171.587 164.485 172.204 166.434C172.798 168.39 173.355 170.351 173.843 172.326C174.355 174.302 174.765 176.265 175.218 178.236C176.104 182.174 176.867 186.13 177.626 190.077C178.385 194.023 179.103 197.972 179.825 201.911C181.276 209.79 182.858 217.624 184.713 225.4C185.175 227.342 185.621 229.293 186.141 231.222C186.653 233.155 187.134 235.096 187.666 237.021L189.728 244.233L191.072 248.53C192.228 252.362 193.585 256.137 194.867 259.931C195.179 260.882 195.543 261.819 195.888 262.759L198.491 269.809C198.667 270.279 198.859 270.743 199.043 271.211L201.261 276.807L202.374 279.604L203.551 282.379C205.133 286.072 206.66 289.783 208.323 293.459L286.704 470.219L285.773 470.618L206.097 294.393C204.413 290.738 202.846 287.008 201.229 283.311L200.029 280.532L196.596 272.121C196.405 271.653 196.21 271.188 196.027 270.717L193.331 263.644C192.973 262.699 192.6 261.761 192.274 260.805C190.94 256.995 189.537 253.208 188.327 249.356L186.91 245.039L186.47 243.591L184.724 237.791C184.16 235.852 183.642 233.903 183.102 231.958C182.547 230.014 182.073 228.055 181.579 226.099C179.616 218.271 177.981 210.375 176.463 202.484L175.333 196.568L174.233 190.658C173.492 186.723 172.715 182.799 171.889 178.897C171.46 176.952 171.065 174.986 170.585 173.066C170.126 171.136 169.603 169.227 169.047 167.332C168.757 166.388 168.466 165.447 168.157 164.508C167.83 163.58 167.531 162.64 167.175 161.724C166.841 160.798 166.47 159.894 166.11 158.981C165.719 158.085 165.334 157.181 164.892 156.312C163.198 152.801 161.055 149.501 158.173 146.85C156.736 145.525 155.119 144.384 153.396 143.374C151.674 142.361 149.835 141.511 147.989 140.651L145.214 139.353C144.288 138.915 143.375 138.45 142.49 137.916C141.58 137.431 140.755 136.808 139.907 136.227C139.506 135.903 139.121 135.563 138.728 135.235L138.435 134.988C138.341 134.902 138.254 134.804 138.164 134.716L137.619 134.172C136.194 132.695 135.013 130.991 134.157 129.128L133.992 128.781L133.852 128.424L133.575 127.709C133.491 127.468 133.416 127.22 133.336 126.977C133.252 126.733 133.181 126.486 133.124 126.237C132.864 125.232 132.678 124.244 132.635 123.151L133.648 123.226Z" fill="#27292A" fill-opacity="0.6"/>
<path d="M503.954 157.667L503.23 158.367L522.14 177.303L522.863 176.603L503.954 157.667Z" fill="#27292A" fill-opacity="0.6"/>
<path d="M531.453 160.5C534.128 163.779 536.955 166.948 539.845 170.057C542.741 173.158 545.697 176.207 548.743 179.158C551.805 182.097 554.904 184.999 558.135 187.753C559.725 189.159 561.379 190.488 563.02 191.836C563.831 192.521 564.686 193.15 565.521 193.805C566.363 194.451 567.194 195.11 568.043 195.745L573.215 199.487C574.969 200.738 576.624 202.119 578.259 203.518C581.48 206.374 584.467 209.479 587.196 212.779C592.679 219.379 597.153 226.683 601.409 234.009C603.54 237.673 605.627 241.351 607.841 244.925C610.054 248.499 612.411 251.968 615.163 255.083C620.785 261.426 626.46 267.726 633.133 272.818C636.472 275.357 640.028 277.615 643.712 279.686C647.395 281.76 651.197 283.64 655.027 285.508C658.853 287.379 662.722 289.193 666.543 291.194C670.363 293.185 674.101 295.477 677.501 298.229C680.911 300.97 683.867 304.219 686.483 307.651L687.455 308.945C687.788 309.37 688.063 309.832 688.373 310.274L690.172 312.949C690.482 313.391 690.75 313.851 691.027 314.307L691.856 315.679C692.405 316.596 692.974 317.503 693.502 318.428C697.719 325.843 701.419 333.479 705.026 341.139C708.628 348.801 712.091 356.509 715.637 364.167L718.325 369.894L721.082 375.583L723.948 381.209L725.451 383.98C725.955 384.904 726.442 385.833 726.991 386.726L728.589 389.436C728.725 389.661 728.852 389.891 728.993 390.111L730.29 392.069C731.401 393.827 732.706 395.5 733.943 397.208C735.211 398.897 736.509 400.572 737.791 402.252L741.713 407.252C746.986 413.894 752.321 420.49 757.7 427.057C763.079 433.624 768.46 440.189 773.885 446.722L790.175 466.304L789.768 466.641L781.361 457.061L773.018 447.428C767.472 440.993 761.926 434.556 756.454 428.057C750.982 421.555 745.524 415.046 740.175 408.439L736.188 403.464C734.88 401.787 733.559 400.119 732.263 398.428C730.992 396.713 729.665 395.051 728.489 393.24L727.584 391.904L727.132 391.235C726.986 391.009 726.855 390.778 726.713 390.551L725.055 387.805C724.489 386.896 723.991 385.956 723.473 385.024L721.931 382.227L719.004 376.568L716.195 370.862L713.459 365.131C709.843 357.478 706.363 349.778 702.762 342.145C699.152 334.52 695.454 326.933 691.288 319.639C690.763 318.729 690.213 317.839 689.673 316.938L688.861 315.59C688.593 315.14 688.326 314.687 688.026 314.259L686.283 311.658C685.986 311.231 685.716 310.777 685.395 310.37L684.459 309.119C681.942 305.806 679.138 302.717 675.909 300.114C672.687 297.5 669.123 295.299 665.381 293.343C661.644 291.375 657.786 289.557 653.946 287.675C650.109 285.795 646.27 283.864 642.522 281.735C638.778 279.606 635.13 277.266 631.698 274.627C628.271 271.982 625.101 269.037 622.111 265.963C619.121 262.885 616.285 259.699 613.495 256.488C610.647 253.204 608.261 249.61 606.052 245.967C603.841 242.319 601.787 238.613 599.694 234.941C595.526 227.597 591.18 220.355 585.859 213.827C583.209 210.559 580.313 207.494 577.192 204.673C575.61 203.287 573.998 201.927 572.3 200.68L567.175 196.847C566.328 196.193 565.5 195.516 564.664 194.851C563.835 194.177 562.982 193.531 562.176 192.83C560.549 191.448 558.902 190.087 557.326 188.647C554.119 185.826 551.052 182.861 548.023 179.862C542.013 173.82 536.292 167.506 531.027 160.817L531.453 160.5Z" fill="#27292A" fill-opacity="0.6"/>
<path d="M821.75 466.553C821.28 466.022 774.465 413.193 760.702 395.735C752.95 385.904 744.794 372.663 736.908 359.858C728.017 345.423 719.618 331.789 712.465 324.02C699.159 309.568 687.792 300.917 674.814 292.376C663.732 285.078 652.715 271.812 636.045 251.727C633.398 248.541 630.665 245.243 627.759 241.768C606.992 216.929 558.124 164.041 557.631 163.509L558.381 162.836C558.873 163.367 607.757 216.274 628.543 241.133C631.451 244.612 634.185 247.907 636.833 251.093C653.444 271.103 664.418 284.324 675.374 291.537C688.416 300.123 699.841 308.817 713.215 323.347C720.433 331.189 728.859 344.863 737.777 359.338C745.65 372.118 753.789 385.333 761.505 395.117C775.251 412.552 822.044 465.36 822.514 465.891L821.75 466.553Z" fill="#27292A" fill-opacity="0.6"/>
<path d="M546.623 187.356C548.278 188.355 549.778 189.508 551.246 190.713L552.335 191.627L553.39 192.579C554.107 193.203 554.769 193.876 555.453 194.535C558.139 197.204 560.598 200.085 562.911 203.074C567.463 209.105 571.34 215.613 574.587 222.401L579.397 232.529C581.029 235.883 582.665 239.239 584.413 242.525C586.165 245.806 587.984 249.048 590.061 252.092C592.136 255.135 594.491 257.958 597.272 260.352L598.312 261.254L599.397 262.111C600.109 262.694 600.88 263.216 601.624 263.764C603.071 264.809 604.687 265.641 606.368 266.424C609.731 267.975 613.259 269.309 616.778 270.672C620.301 272.033 623.837 273.411 627.335 274.907C630.833 276.407 634.288 278.026 637.658 279.836C641.029 281.643 644.305 283.661 647.393 285.953C650.483 288.241 653.391 290.798 655.984 293.659C656.321 294.004 656.626 294.382 656.935 294.75L657.865 295.859C658.464 296.617 659.036 297.394 659.612 298.17C660.142 298.976 660.7 299.77 661.204 300.582C661.69 301.403 662.199 302.21 662.665 303.038C664.549 306.343 666.208 309.748 667.732 313.198C670.746 320.112 673.253 327.184 675.658 334.263C678.051 341.347 680.336 348.443 682.753 355.483C685.175 362.518 687.727 369.506 690.788 376.26C692.318 379.635 693.978 382.949 695.818 386.156C696.734 387.762 697.707 389.333 698.732 390.868L699.512 392.01C699.77 392.393 700.035 392.772 700.312 393.147L701.96 395.42C706.362 401.474 710.896 407.45 715.459 413.404C720.025 419.359 724.625 425.287 729.257 431.193C733.873 437.111 738.513 443.016 743.176 448.9L757.189 466.54L756.702 466.925L749.448 458.293L742.256 449.615C737.471 443.821 732.709 438.011 727.967 432.182C718.526 420.493 709.129 408.765 700.142 396.701L698.46 394.435C698.179 394.062 697.901 393.675 697.633 393.282L696.815 392.11C695.742 390.539 694.723 388.932 693.766 387.296C691.846 384.025 690.139 380.647 688.559 377.228C685.398 370.38 682.78 363.343 680.297 356.285C677.823 349.223 675.541 342.118 673.134 335.067C670.725 328.023 668.219 321.017 665.246 314.232C663.755 310.845 662.144 307.515 660.324 304.311C659.875 303.509 659.386 302.73 658.919 301.936C658.438 301.156 657.919 300.416 657.421 299.655C656.878 298.925 656.339 298.19 655.777 297.474L654.899 296.424C654.606 296.075 654.319 295.718 654.002 295.389C649.088 289.955 642.964 285.623 636.425 282.078C633.154 280.293 629.777 278.684 626.345 277.184C622.907 275.689 619.414 274.3 615.897 272.917C612.387 271.526 608.846 270.177 605.363 268.531C604.931 268.317 604.494 268.115 604.062 267.89C603.632 267.659 603.2 267.441 602.773 267.2C602.35 266.947 601.92 266.712 601.502 266.443L600.564 265.819L600.275 265.604C599.508 265.024 598.724 264.481 597.98 263.863L596.857 262.955L595.771 261.997C595.033 261.374 594.37 260.669 593.676 259.996C593.33 259.658 593.022 259.287 592.692 258.933C592.374 258.573 592.029 258.229 591.731 257.85C591.131 257.098 590.492 256.373 589.944 255.589L589.094 254.432C588.813 254.045 588.558 253.642 588.291 253.245C586.173 250.069 584.356 246.754 582.639 243.407C579.232 236.705 576.176 229.865 573.085 223.067C570.02 216.302 566.327 209.803 561.958 203.757C559.736 200.762 557.367 197.87 554.773 195.178C554.12 194.512 553.484 193.826 552.795 193.193L551.78 192.226L550.732 191.297C549.327 190.073 547.857 188.884 546.308 187.887L546.623 187.356Z" fill="#27292A" fill-opacity="0.6"/>
<path d="M528.15 178.973C529.763 180.015 531.227 181.178 532.645 182.417C533.007 182.717 533.347 183.043 533.693 183.359C534.033 183.682 534.39 183.988 534.72 184.32C535.38 184.989 536.07 185.629 536.695 186.329C539.258 189.071 541.562 192.043 543.612 195.176L545.104 197.554L546.812 200.617L547.123 201.245L547.739 202.503L548.353 203.764C548.567 204.182 548.724 204.621 548.914 205.046L550.002 207.629L551.002 210.218C551.662 211.946 552.312 213.678 552.952 215.41C555.512 222.337 557.957 229.302 560.902 236.029C562.377 239.386 563.993 242.68 565.878 245.792C567.764 248.898 569.955 251.824 572.598 254.247C575.215 256.674 578.419 258.466 581.7 260.142C584.991 261.804 588.407 263.313 591.803 264.896C598.592 268.047 605.386 271.529 611.377 276.24C614.378 278.57 617.148 281.21 619.647 284.076C620.864 285.531 622.073 287.016 623.12 288.579C624.175 290.141 625.274 291.675 626.209 293.301C630.122 299.715 633.275 306.505 636.047 313.398C638.82 320.295 641.211 327.306 643.532 334.322C645.849 341.338 648.069 348.371 650.444 355.338L651.337 357.95L652.268 360.545C652.867 362.292 653.553 363.969 654.222 365.657C654.975 367.323 655.682 369.003 656.513 370.641C656.92 371.461 657.303 372.294 657.735 373.105L659.014 375.548C662.473 382.039 666.312 388.359 670.291 394.59C678.274 407.044 686.88 419.127 695.696 431.053C704.506 442.987 713.589 454.735 722.87 466.324L722.227 466.839C719.829 463.994 717.461 461.132 715.105 458.256C712.753 455.377 710.425 452.478 708.105 449.578C703.472 443.767 698.896 437.91 694.383 432.003C689.874 426.094 685.467 420.109 681.139 414.072C676.815 408.029 672.584 401.917 668.514 395.695L666.99 393.36L665.493 391.009C664.484 389.447 663.525 387.853 662.548 386.273C661.57 384.694 660.644 383.074 659.69 381.477L658.318 379.044C657.866 378.23 657.399 377.426 656.97 376.596L655.66 374.125C655.217 373.304 654.825 372.458 654.404 371.623C653.551 369.964 652.814 368.243 652.036 366.541C651.335 364.8 650.612 363.059 650.007 361.318L649.057 358.705L648.142 356.083C643.276 342.105 639.183 327.931 633.685 314.296C630.925 307.494 627.842 300.818 624.045 294.567C623.138 292.978 622.074 291.49 621.058 289.976C620.044 288.454 618.905 287.055 617.745 285.656C615.363 282.919 612.724 280.391 609.843 278.144L608.759 277.305C608.392 277.031 608.018 276.769 607.65 276.498C606.917 275.949 606.145 275.452 605.393 274.929C603.857 273.926 602.296 272.957 600.691 272.048C597.491 270.222 594.171 268.579 590.804 266.994C587.44 265.404 584.024 263.874 580.658 262.15C578.978 261.287 577.306 260.374 575.693 259.343C574.082 258.316 572.508 257.143 571.103 255.817C568.281 253.168 566.018 250.055 564.098 246.819C562.181 243.57 560.572 240.188 559.111 236.765C556.202 229.912 553.832 222.904 551.35 215.956L549.495 210.746L548.547 208.149L547.529 205.606C547.352 205.185 547.204 204.749 547.006 204.339L545.844 201.852L545.552 201.23L543.934 198.202L542.513 195.844C540.562 192.739 538.353 189.783 535.885 187.043C535.29 186.342 534.625 185.7 533.996 185.027C533.681 184.691 533.336 184.382 533.01 184.058C532.679 183.739 532.351 183.41 532.004 183.107C530.652 181.861 529.211 180.671 527.713 179.652L528.15 178.973Z" fill="#27292A" fill-opacity="0.6"/>
<path d="M507.459 171.745C508.249 169.907 507.724 171.258 507.922 170.858L508.003 170.898L508.164 170.974L508.482 171.134C508.694 171.243 508.902 171.352 509.105 171.465C509.52 171.691 509.923 171.928 510.325 172.171C511.124 172.66 511.903 173.177 512.662 173.723C514.181 174.812 515.621 176.006 516.985 177.28C519.7 179.839 522.095 182.728 524.115 185.852C526.139 188.966 527.789 192.333 529.068 195.787C530.382 199.201 531.625 202.636 532.86 206.071C535.311 212.947 537.661 219.85 540.389 226.575C541.76 229.934 543.23 233.248 544.933 236.425C545.378 237.208 545.805 238.003 546.259 238.778L546.967 239.925C547.203 240.305 547.431 240.7 547.685 241.051C548.67 242.506 549.816 243.88 551.035 245.207C553.472 247.863 556.183 250.33 558.876 252.822C561.581 255.308 564.308 257.794 566.979 260.353C569.647 262.911 572.255 265.548 574.75 268.289C577.239 271.04 579.613 273.894 581.83 276.873C584.051 279.847 586.092 282.952 587.945 286.163C589.801 289.379 591.444 292.688 592.981 296.03C596.04 302.723 598.704 309.55 601.241 316.404C606.324 330.104 610.992 343.921 616.682 357.308C619.529 363.994 622.633 370.582 626.375 376.781C626.83 377.563 627.323 378.319 627.814 379.078C628.294 379.841 628.808 380.596 629.321 381.355C630.344 382.872 631.349 384.401 632.381 385.91L635.469 390.453L638.58 394.982C646.885 407.054 655.328 419.04 663.766 431.031L689.104 466.988L688.274 467.563L681.76 458.696L675.279 449.805L662.356 431.996C653.786 420.093 645.25 408.165 636.821 396.155L633.664 391.647L630.53 387.125C629.483 385.618 628.455 384.096 627.424 382.58C626.908 381.82 626.394 381.064 625.894 380.278C625.39 379.501 624.88 378.722 624.411 377.924C620.562 371.59 617.408 364.926 614.512 358.19C608.736 344.702 604.016 330.868 598.908 317.224C596.341 310.409 593.753 303.603 590.747 297C589.243 293.7 587.642 290.45 585.848 287.321C584.052 284.188 582.075 281.154 579.912 278.241C577.757 275.327 575.442 272.524 573.007 269.819C570.566 267.119 568.006 264.514 565.375 261.975C562.74 259.434 560.036 256.956 557.333 254.453C554.631 251.944 551.929 249.414 549.417 246.635C548.165 245.242 546.964 243.781 545.911 242.191C545.635 241.799 545.406 241.396 545.165 240.997L544.441 239.8C543.975 238.993 543.543 238.172 543.093 237.359C541.371 234.074 539.909 230.686 538.556 227.273C535.866 220.44 533.58 213.505 531.196 206.619C530.014 203.173 528.831 199.729 527.576 196.312C526.373 192.908 524.836 189.646 522.917 186.586C521.004 183.528 518.726 180.687 516.127 178.161C514.831 176.898 513.454 175.707 511.999 174.617C511.271 174.074 510.529 173.555 509.762 173.066C509.379 172.821 508.992 172.586 508.6 172.36C508.403 172.249 508.206 172.137 508.007 172.032L507.711 171.874L507.489 171.762C507.634 171.338 507.06 172.664 507.798 170.801L507.459 171.745Z" fill="#27292A" fill-opacity="0.6"/>
<path d="M534.724 237.633C536.156 239.975 537.478 242.351 538.763 244.753C540.056 247.152 541.269 249.588 542.466 252.03C544.845 256.926 547.016 261.918 548.988 266.983C549.5 268.242 549.963 269.518 550.433 270.793C550.904 272.068 551.382 273.342 551.806 274.63C552.237 275.917 552.695 277.198 553.11 278.491L554.318 282.384C554.526 283.032 554.709 283.683 554.887 284.339L555.428 286.302L556.496 290.221L557.55 294.128L558.669 298.018C561.7 308.381 565.255 318.601 569.291 328.634C571.324 333.644 573.478 338.609 575.804 343.492C578.131 348.375 580.645 353.174 583.425 357.808C584.141 358.954 584.852 360.102 585.58 361.241C586.333 362.371 587.068 363.509 587.834 364.632C589.353 366.881 590.894 369.117 592.465 371.337C595.596 375.781 598.801 380.179 602 384.589C608.396 393.4 614.734 402.295 620.502 411.542C626.294 420.761 631.967 430.037 637.595 439.342C643.228 448.644 648.835 457.962 654.42 467.291L653.545 467.795C647.907 458.499 642.246 449.216 636.56 439.946C630.861 430.686 625.188 421.406 619.384 412.218C613.619 403.014 607.29 394.171 600.876 385.371C597.671 380.97 594.455 376.573 591.305 372.122C589.727 369.9 588.174 367.657 586.643 365.4C585.871 364.275 585.13 363.132 584.372 361.997C583.633 360.847 582.908 359.685 582.183 358.525C579.362 353.839 576.818 349.01 574.467 344.102C572.117 339.191 569.938 334.204 567.887 329.173C565.821 324.145 563.957 319.044 562.176 313.917C560.387 308.791 558.777 303.61 557.253 298.406L556.136 294.497L555.085 290.569L554.026 286.657L553.495 284.707C553.322 284.056 553.143 283.406 552.94 282.763L551.766 278.895C551.363 277.61 550.919 276.333 550.496 275.052C550.082 273.767 549.616 272.501 549.154 271.232C548.696 269.965 548.242 268.692 547.741 267.435C545.808 262.393 543.682 257.416 541.378 252.519C540.213 250.077 539.032 247.641 537.774 245.246C536.524 242.847 535.228 240.458 533.849 238.148L534.724 237.633Z" fill="#27292A" fill-opacity="0.6"/>
<path d="M458.088 144.332C458.971 144.735 459.788 145.212 460.595 145.721C461.398 146.232 462.189 146.767 462.947 147.34C464.466 148.485 465.925 149.72 467.3 151.037C470.022 153.696 472.539 156.585 474.717 159.706C475.814 161.26 476.86 162.851 477.839 164.481C478.828 166.106 479.717 167.783 480.581 169.474C482.3 172.86 483.793 176.353 485.054 179.919C485.721 181.691 486.265 183.501 486.839 185.304L487.604 188.029C487.727 188.485 487.866 188.936 487.977 189.396L488.313 190.768C488.529 191.685 488.761 192.6 488.965 193.52L489.534 196.285L489.817 197.669L490.058 199.06L490.525 201.842C490.67 202.771 490.785 203.702 490.914 204.633C491.033 205.565 491.182 206.492 491.278 207.428L491.558 210.227C491.651 211.161 491.748 212.093 491.81 213.021C492.106 216.737 492.359 220.453 492.537 224.17C492.856 231.606 493.001 239.04 492.925 246.459C492.881 253.878 492.656 261.286 492.459 268.681C492.266 276.074 492.061 283.46 492.122 290.831C492.149 294.518 492.266 298.201 492.52 301.869C492.771 305.535 493.141 309.198 493.781 312.809C494.414 316.418 495.288 319.991 496.593 323.4L497.114 324.663C497.295 325.082 497.452 325.51 497.668 325.912L498.583 327.745L498.933 328.329C499.4 329.109 499.84 329.908 500.393 330.63L501.181 331.739L502.054 332.826C504.358 335.756 506.794 338.57 509.333 341.287C511.878 343.999 514.566 346.56 517.341 349.064C520.115 351.569 522.959 354.102 525.555 356.897C528.152 359.691 530.516 362.679 532.707 365.759L534.311 368.091C534.576 368.484 534.853 368.859 535.106 369.266L535.871 370.48C536.133 370.882 536.37 371.294 536.608 371.703L537.325 372.936C537.783 373.766 538.233 374.599 538.68 375.432C540.425 378.78 541.991 382.198 543.477 385.633C544.962 389.07 546.356 392.535 547.707 396.011C549.061 399.488 550.378 402.971 551.687 406.457C552.996 409.941 554.29 413.43 555.58 416.918C556.874 420.404 558.181 423.884 559.509 427.355C560.841 430.825 562.201 434.283 563.598 437.728C564.307 439.443 565.003 441.168 565.736 442.877C566.449 444.593 567.186 446.3 567.92 448.006C569.416 451.409 570.958 454.791 572.589 458.138C574.235 461.476 575.931 464.788 577.736 468.05L577.353 468.265C575.412 465.072 573.561 461.819 571.812 458.515C570.067 455.212 568.406 451.866 566.793 448.496C563.572 441.759 560.667 434.883 557.828 427.99C555.01 421.089 552.263 414.165 549.557 407.236C546.834 400.313 544.085 393.41 541.095 386.63C539.59 383.245 538.016 379.898 536.281 376.651C535.84 375.845 535.395 375.041 534.941 374.242L534.237 373.061C534.005 372.668 533.77 372.271 533.518 371.893C532.559 370.357 531.465 368.839 530.427 367.314C528.266 364.317 526.031 361.385 523.569 358.65C521.132 355.895 518.454 353.334 515.736 350.732C513.021 348.128 510.352 345.429 507.853 342.595C506.621 341.166 505.373 339.75 504.201 338.276C503.607 337.548 502.994 336.831 502.415 336.09L500.679 333.87L499.814 332.757L498.98 331.58C498.395 330.813 497.932 329.975 497.439 329.152L497.071 328.534L496.111 326.616C495.884 326.194 495.719 325.749 495.531 325.314L494.972 324.004C493.565 320.479 492.617 316.812 491.913 313.131C490.536 305.755 489.987 298.299 489.682 290.877C489.361 283.447 489.307 276.032 489.245 268.628C489.137 253.822 489.065 239.056 488.236 224.347C488.057 220.668 487.808 216.995 487.515 213.326C487.454 212.405 487.359 211.499 487.267 210.586L486.994 207.856C486.911 206.946 486.777 206.041 486.668 205.133C486.552 204.227 486.451 203.318 486.32 202.414C485.759 198.803 485.198 195.189 484.367 191.629L484.081 190.29C483.983 189.842 483.862 189.404 483.756 188.96L483.092 186.302C482.58 184.551 482.128 182.777 481.548 181.047C480.434 177.569 479.202 174.121 477.7 170.783C476.201 167.446 474.534 164.178 472.615 161.048C470.696 157.921 468.533 154.931 466.105 152.147C464.887 150.761 463.604 149.422 462.236 148.17C460.871 146.923 459.431 145.719 457.872 144.73L458.088 144.332Z" fill="#27292A" fill-opacity="0.6"/>
<path d="M538.363 469C534.76 462.453 531.297 455.859 527.942 449.195C524.607 442.526 521.377 435.796 518.6 428.841L517.594 426.215L516.665 423.571C516.068 421.803 515.476 420.034 514.924 418.26C513.795 414.715 512.718 411.164 511.636 407.616C509.472 400.523 507.299 393.445 504.785 386.497C504.178 384.751 503.489 383.039 502.836 381.313L501.783 378.756L501.252 377.479L500.683 376.222C500.297 375.388 499.939 374.534 499.531 373.714L498.298 371.251C498.102 370.834 497.865 370.443 497.642 370.043L496.969 368.844C496.738 368.445 496.53 368.042 496.283 367.648L494.09 364.101C493.599 363.318 493.08 362.546 492.576 361.769C491.579 360.205 490.507 358.697 489.454 357.174C487.298 354.161 485.05 351.214 482.637 348.404C480.224 345.594 477.67 342.904 475.011 340.306C472.353 337.702 469.59 335.188 466.872 332.582C465.518 331.265 464.176 329.977 462.862 328.567C461.495 327.145 460.433 325.503 459.435 323.854C457.54 320.493 456.244 316.911 455.183 313.307L454.442 310.589L453.805 307.856C453.704 307.399 453.587 306.945 453.496 306.488L453.229 305.113L452.698 302.364L452.247 299.609C452.095 298.691 451.94 297.772 451.823 296.848C451.583 295.005 451.291 293.166 451.101 291.321C450.657 287.632 450.311 283.939 449.998 280.245L449.575 274.701L449.238 269.156C449.011 265.458 448.83 261.761 448.667 258.067L448.127 246.994C447.922 243.307 447.693 239.627 447.446 235.948C447.177 232.272 446.907 228.599 446.551 224.934C445.128 210.296 442.988 195.722 438.675 181.765L437.837 179.161C437.559 178.294 437.233 177.44 436.934 176.581C436.351 174.849 435.636 173.174 434.971 171.476C434.624 170.634 434.235 169.809 433.876 168.969L433.331 167.716C433.149 167.297 432.938 166.894 432.74 166.484L431.541 164.024C431.119 163.217 430.675 162.42 430.245 161.614L429.599 160.406C429.375 160.009 429.134 159.62 428.901 159.227L427.502 156.872L425.991 154.583L425.242 153.434L424.437 152.323L422.82 150.098L420.246 146.873L419.335 145.836L417.52 143.756L419.21 142.122L421.25 144.116L422.268 145.12L423.231 146.172L425.15 148.286L426.949 150.498L427.848 151.607L428.691 152.755L430.365 155.067L431.926 157.453C432.186 157.851 432.45 158.247 432.704 158.65L433.425 159.878C433.901 160.699 434.388 161.516 434.854 162.344L436.178 164.861C436.394 165.284 436.627 165.698 436.831 166.124L437.438 167.407C437.841 168.265 438.253 169.118 438.631 169.985C439.352 171.732 440.129 173.461 440.766 175.238C441.092 176.123 441.446 177 441.752 177.893L442.647 180.576C444.976 187.749 446.594 195.1 447.789 202.477C448.056 204.326 448.349 206.172 448.569 208.023L448.917 210.798L449.206 213.579C449.305 214.505 449.386 215.431 449.463 216.36L449.698 219.142C449.824 220.995 449.979 222.849 450.076 224.704C450.531 232.116 450.731 239.522 450.885 246.916C451.075 254.308 451.226 261.688 451.623 269.047L451.936 274.567L452.334 280.079C452.63 283.749 452.958 287.419 453.383 291.078C453.566 292.91 453.846 294.728 454.078 296.554C454.188 297.466 454.34 298.373 454.484 299.281L454.92 302.004L455.43 304.708L455.687 306.059C455.773 306.51 455.886 306.953 455.983 307.401L456.597 310.081L457.31 312.731C458.323 316.236 459.566 319.681 461.324 322.823C462.245 324.357 463.213 325.874 464.446 327.156C465.678 328.487 467.029 329.803 468.352 331.095C471.029 333.681 473.793 336.217 476.473 338.863C479.158 341.504 481.747 344.254 484.192 347.12C486.631 349.994 488.909 352.993 491.103 356.043C492.171 357.584 493.26 359.119 494.27 360.698C494.781 361.484 495.307 362.261 495.804 363.057L498.021 366.643C498.27 367.041 498.49 367.462 498.725 367.869L499.423 369.104C499.653 369.517 499.898 369.925 500.099 370.35L501.364 372.873C501.783 373.714 502.147 374.58 502.538 375.43L503.118 376.711L503.657 378.008L504.727 380.602C505.387 382.348 506.088 384.081 506.701 385.84C509.245 392.853 511.427 399.959 513.598 407.054C514.687 410.601 515.755 414.148 516.892 417.668C518.037 421.184 519.184 424.696 520.569 428.099C523.335 434.93 526.579 441.616 529.93 448.234C533.285 454.853 536.815 461.405 540.445 467.876L538.363 469Z" fill="#27292A" fill-opacity="0.6"/>
<path d="M298.182 138.623C300.437 143.459 302.962 148.181 305.858 152.676C308.752 157.168 312.023 161.439 315.757 165.289C319.484 169.137 323.678 172.559 328.293 175.321C332.9 178.088 337.919 180.183 343.126 181.542L344.037 181.778L343.118 181.939C340.673 182.47 338.177 182.782 335.67 182.88C333.159 182.977 330.636 182.843 328.135 182.539C323.13 181.929 318.229 180.607 313.489 178.913C308.745 177.221 304.169 175.127 299.67 172.92C295.169 170.713 290.762 168.342 286.368 165.976C281.975 163.607 277.585 161.249 273.159 158.985C268.734 156.714 264.262 154.561 259.7 152.633C255.143 150.702 250.494 149.005 245.761 147.639C243.394 146.958 241.002 146.363 238.594 145.869C236.186 145.385 233.757 144.999 231.321 144.727C228.884 144.455 226.437 144.285 223.989 144.254C221.538 144.265 219.084 144.261 216.639 144.466L214.801 144.584L212.972 144.785L211.142 144.99C210.838 145.026 210.532 145.055 210.226 145.095L209.316 145.237C208.101 145.43 206.886 145.609 205.676 145.81L202.056 146.519C197.247 147.552 192.482 148.799 187.784 150.28C183.086 151.766 178.474 153.495 173.899 155.325C169.324 157.161 164.825 159.179 160.388 161.326C155.944 163.46 151.558 165.717 147.238 168.094C142.913 170.462 138.647 172.936 134.444 175.515C132.339 176.8 130.251 178.111 128.187 179.457C126.118 180.796 124.057 182.157 122.049 183.575L121.794 183.252C125.693 180.212 129.728 177.359 133.845 174.613C137.963 171.871 142.157 169.24 146.429 166.726C154.982 161.72 163.816 157.134 172.993 153.249C174.132 152.744 175.289 152.284 176.445 151.817C177.6 151.353 178.757 150.882 179.931 150.459C181.104 150.028 182.264 149.572 183.443 149.165L186.988 147.948C191.741 146.404 196.567 145.036 201.479 143.98L205.176 143.243C206.415 143.03 207.661 142.843 208.904 142.642L209.837 142.493C210.151 142.452 210.465 142.418 210.777 142.381L212.657 142.164L214.536 141.951L216.428 141.822C218.945 141.604 221.482 141.593 224.016 141.58C226.555 141.619 229.089 141.806 231.61 142.094C234.129 142.386 236.637 142.793 239.12 143.301C241.601 143.815 244.058 144.437 246.488 145.146C248.918 145.854 251.318 146.644 253.689 147.516C256.055 148.393 258.393 149.346 260.701 150.349C265.32 152.355 269.826 154.582 274.259 156.915C278.692 159.248 283.05 161.704 287.405 164.139C296.118 168.984 304.781 173.929 314.013 177.558C318.619 179.367 323.383 180.817 328.273 181.574C333.155 182.324 338.161 182.381 343.045 181.54L343.036 181.937C337.793 180.571 332.735 178.46 328.096 175.672C323.449 172.889 319.221 169.447 315.473 165.575C311.719 161.7 308.432 157.41 305.523 152.9C302.614 148.386 300.081 143.648 297.819 138.799L298.182 138.623Z" fill="#27292A" fill-opacity="0.6"/>
<path d="M354.687 172.59C344.284 169.287 336.086 155.626 328.569 141.861L329.468 141.393C337.104 155.381 345.45 169.261 355.895 171.89L355.655 172.862C355.33 172.78 355.005 172.691 354.687 172.59Z" fill="#27292A" fill-opacity="0.6"/>
<path d="M360.386 144.303L359.528 144.837L370.813 162.25L371.671 161.716L360.386 144.303Z" fill="#27292A" fill-opacity="0.6"/>
<path d="M389.322 147.035L388.506 147.63L391.377 151.42L392.192 150.825L389.322 147.035Z" fill="#27292A" fill-opacity="0.6"/>
<path d="M287.917 162.243C278.138 152.81 272.311 146.472 265.649 135.966L266.512 135.441C273.117 145.858 278.905 152.152 288.626 161.529L287.917 162.243Z" fill="#27292A" fill-opacity="0.6"/>
<path d="M363.333 166.727C364.223 166.343 365.142 166.197 366.088 166.143C367.032 166.095 367.986 166.209 368.915 166.423C369.845 166.645 370.751 166.975 371.609 167.401C372.466 167.831 373.259 168.36 374.026 168.926C374.392 169.225 374.778 169.508 375.121 169.835L375.648 170.311L376.148 170.809C376.486 171.138 376.787 171.496 377.096 171.85C377.414 172.2 377.689 172.571 377.98 172.937C379.12 174.414 380.108 175.983 380.993 177.596C381.877 179.209 382.625 180.884 383.319 182.56C383.975 184.216 384.664 185.862 385.276 187.536L386.219 190.037L387.113 192.554C387.717 194.229 388.271 195.92 388.831 197.609C389.377 199.3 389.923 200.992 390.439 202.695C390.942 204.397 391.472 206.094 391.947 207.805C392.91 211.221 393.842 214.645 394.733 218.073C395.643 221.499 396.484 224.936 397.303 228.38L398.525 233.543C398.926 235.266 399.33 236.986 399.707 238.715C400.476 242.167 401.232 245.615 401.975 249.07L404.143 259.439L408.375 280.186L409.452 285.359C409.811 287.086 410.216 288.793 410.596 290.512C410.788 291.369 411.004 292.22 411.209 293.073C411.42 293.926 411.608 294.785 411.845 295.628L412.521 298.167C412.754 299.009 413.022 299.841 413.276 300.675C414.328 304 415.582 307.253 417.224 310.309C418.852 313.375 420.89 316.227 423.134 318.942C423.689 319.623 424.284 320.281 424.854 320.95C425.423 321.625 426.031 322.263 426.629 322.912C427.807 324.222 429.073 325.455 430.343 326.689C432.889 329.149 435.582 331.491 438.149 334.031C440.726 336.56 443.12 339.319 445.221 342.265L446.01 343.371C446.141 343.556 446.28 343.737 446.399 343.925L446.76 344.499L448.197 346.793C448.663 347.565 449.082 348.361 449.523 349.142C449.956 349.928 450.416 350.709 450.791 351.519C452.404 354.723 453.869 357.987 455.182 361.3L456.158 363.787C456.485 364.613 456.811 365.443 457.098 366.284L458.888 371.305C461.183 377.987 463.529 384.654 465.952 391.292C468.391 397.926 470.877 404.546 473.445 411.133C476.012 417.722 478.641 424.286 481.418 430.791C484.186 437.298 487.039 443.775 490.136 450.137C490.885 451.742 491.71 453.305 492.506 454.883C492.914 455.668 493.293 456.469 493.727 457.241L495.003 459.568C496.688 462.679 498.568 465.682 500.597 468.577L500.142 468.906C498.027 466.025 496.067 463.036 494.308 459.946L492.977 457.634C492.524 456.866 492.129 456.071 491.701 455.293C490.866 453.724 490.002 452.17 489.217 450.578C488.421 448.989 487.599 447.413 486.828 445.815L484.521 441.015C483.039 437.793 481.538 434.578 480.122 431.327C474.375 418.356 469.094 405.2 464.09 391.946C461.592 385.319 459.172 378.66 456.806 371.987C454.441 365.356 451.834 358.803 448.678 352.548C448.305 351.753 447.858 351.001 447.448 350.233C447.022 349.47 446.622 348.691 446.175 347.939C445.256 346.455 444.369 344.95 443.349 343.536C441.371 340.664 439.124 337.983 436.655 335.474C434.191 332.96 431.532 330.573 428.986 328.036C426.439 325.503 423.985 322.855 421.688 320.095C419.375 317.342 417.256 314.383 415.485 311.219C413.713 308.055 412.35 304.694 411.21 301.306C408.936 294.515 407.351 287.61 405.645 280.75L400.666 260.158L395.623 239.603L393.066 229.345C392.64 227.636 392.199 225.932 391.754 224.227L390.44 219.115C389.56 215.708 388.64 212.313 387.69 208.926C387.228 207.229 386.738 205.542 386.263 203.852L384.793 198.792C383.782 195.427 382.774 192.064 381.69 188.725C381.164 187.051 380.595 185.387 380.05 183.717C379.481 182.088 378.92 180.466 378.209 178.914C377.518 177.352 376.748 175.828 375.84 174.4C375.384 173.687 374.9 172.994 374.372 172.339L373.979 171.842L373.565 171.371C373.293 171.046 372.985 170.766 372.695 170.463C371.481 169.314 370.092 168.343 368.525 167.74C367.742 167.439 366.918 167.241 366.075 167.141C365.239 167.051 364.349 167.074 363.553 167.252L363.333 166.727Z" fill="#27292A" fill-opacity="0.6"/>
<path d="M458.67 469.329C454.871 463.39 451.25 457.352 447.723 451.254C445.961 448.205 444.226 445.14 442.521 442.057C441.684 440.508 440.833 438.965 440.01 437.406L437.558 432.726C434.33 426.462 431.298 420.086 428.672 413.513C428.027 411.867 427.437 410.189 426.818 408.527L425.139 403.541L421.835 393.565C419.628 386.922 417.394 380.294 415.032 373.724C412.661 367.158 410.128 360.649 407.248 354.325C406.558 352.728 405.778 351.179 405.023 349.618C404.655 348.831 404.241 348.072 403.834 347.308L402.632 345.005L400.678 341.65C400.451 341.283 400.205 340.932 399.969 340.573L398.557 338.414L397.017 336.322C392.863 330.757 387.926 325.723 383.092 320.555C378.27 315.385 373.519 310.034 369.766 303.997L369.045 302.877L368.387 301.722C367.95 300.948 367.507 300.183 367.078 299.406L365.32 295.829L364.812 294.605L363.792 292.156C363.458 291.339 363.166 290.513 362.852 289.691C362.538 288.869 362.246 288.044 361.948 287.216C361.653 286.39 361.35 285.564 361.067 284.735C358.751 278.109 356.527 271.46 354.317 264.815C352.103 258.169 349.873 251.532 347.586 244.916L344.143 234.994L340.647 225.094C340.071 223.442 339.463 221.801 338.875 220.152L337.984 217.682C337.683 216.864 337.363 216.057 337.056 215.248C335.857 211.989 334.47 208.807 332.984 205.677L331.239 202.192C331.052 201.803 330.814 201.437 330.606 201.058C329.729 199.567 328.928 198.026 327.934 196.609L326.511 194.439L324.959 192.362C324.696 192.019 324.453 191.661 324.175 191.331L322.071 188.864L321.623 188.396C319.301 185.829 316.642 183.582 313.829 181.5C313.122 180.981 312.402 180.483 311.684 179.974L309.502 178.461C308.037 177.46 306.592 176.373 305.243 175.163L305.917 174.416C308.634 176.548 311.802 178.174 314.768 180.186C317.752 182.167 320.603 184.419 323.121 186.999L323.608 187.469L325.867 189.975C326.164 190.311 326.427 190.675 326.713 191.025L328.382 193.14L329.911 195.347C330.963 196.803 331.817 198.368 332.748 199.894C332.972 200.281 333.221 200.654 333.42 201.051L335.274 204.598C336.824 207.797 338.258 211.044 339.504 214.356C339.822 215.179 340.16 216.006 340.462 216.831L341.344 219.309C341.93 220.964 342.529 222.613 343.099 224.27L344.83 229.241L346.506 234.226C347.615 237.552 348.716 240.881 349.77 244.224C351.899 250.903 353.964 257.599 356.019 264.293C358.086 270.984 360.095 277.691 362.316 284.321C362.589 285.151 362.881 285.977 363.165 286.803C363.449 287.63 363.73 288.455 364.034 289.277C364.335 290.095 364.617 290.928 364.932 291.737L365.921 294.147L366.418 295.353L368.13 298.874C368.548 299.638 368.985 300.39 369.412 301.149L370.055 302.286L370.763 303.388C371.235 304.119 371.709 304.852 372.198 305.575L373.746 307.69C374.247 308.407 374.814 309.074 375.358 309.759C375.911 310.436 376.436 311.135 377.031 311.78L378.775 313.75L380.576 315.672C381.173 316.314 381.788 316.944 382.413 317.563C383.037 318.185 383.65 318.811 384.288 319.424C386.802 321.891 389.364 324.335 391.864 326.857C394.381 329.364 396.814 331.987 399.083 334.755L400.76 336.855L402.327 339.057C402.58 339.428 402.85 339.794 403.096 340.167L405.212 343.598C406.983 346.695 408.597 349.872 410.065 353.094C413.002 359.542 415.515 366.136 417.884 372.754C420.255 379.376 422.428 386.047 424.568 392.722L427.773 402.726L429.386 407.719C429.966 409.348 430.514 410.987 431.123 412.615C431.768 414.229 432.385 415.852 433.054 417.46C433.746 419.061 434.422 420.668 435.127 422.263L437.305 427.028L439.569 431.761L441.906 436.465C442.687 438.032 443.507 439.582 444.301 441.142C445.906 444.257 447.544 447.361 449.215 450.448C452.554 456.62 456.007 462.74 459.532 468.81L458.67 469.329Z" fill="#27292A" fill-opacity="0.6"/>
<path d="M270.302 149.053C273.048 151.702 275.3 154.703 277.398 157.81L278.917 160.171C279.407 160.968 279.863 161.783 280.34 162.587C280.825 163.389 281.252 164.219 281.699 165.037L282.353 166.276L282.678 166.894L282.982 167.524C286.275 174.225 288.903 181.209 291.043 188.312C291.307 189.202 291.595 190.083 291.84 190.977L293.255 196.356L296.534 209.753C298.298 216.891 300.126 224.01 302.072 231.094C304.002 238.182 306.128 245.217 308.407 252.196L310.161 257.42L312.496 263.897L312.992 265.18L314.994 270.311C315.333 271.165 315.707 272.003 316.061 272.848L317.139 275.382C317.505 276.223 317.844 277.078 318.243 277.902L320.572 282.891C320.76 283.312 320.971 283.716 321.182 284.123L323.071 287.794C323.88 289.443 324.833 291.011 325.734 292.608L327.102 294.996C327.579 295.778 328.087 296.539 328.58 297.316L330.069 299.63C330.318 300.014 330.559 300.402 330.816 300.786L331.599 301.932L337.877 311.095C342.07 317.198 346.298 323.284 350.41 329.467C352.451 332.569 354.466 335.688 356.388 338.875C358.302 342.063 360.136 345.3 361.86 348.593C363.564 351.893 365.195 355.23 366.715 358.612C367.487 360.298 368.204 362.002 368.952 363.698L371.104 368.806L379.517 389.282C385.131 402.922 390.793 416.543 396.936 429.955L399.245 434.983L402.817 442.473L406.53 449.897C409.93 456.443 413.482 462.914 417.452 469.135L416.598 469.674C412.536 463.451 408.896 456.987 405.415 450.451L401.627 443.035L400.41 440.542L397.985 435.554L395.631 430.533C389.372 417.136 383.574 403.549 377.875 389.931L369.364 369.502L367.194 364.42C366.444 362.741 365.723 361.05 364.949 359.38C363.424 356.035 361.794 352.741 360.091 349.483C358.37 346.237 356.539 343.047 354.63 339.898C352.712 336.755 350.695 333.667 348.652 330.592C344.536 324.457 340.279 318.397 336.052 312.307L329.729 303.165L328.941 302.021C328.68 301.64 328.432 301.238 328.177 300.849L326.659 298.495C326.159 297.708 325.638 296.929 325.151 296.133L323.758 293.71C322.837 292.088 321.867 290.494 321.047 288.824L319.765 286.345L319.126 285.104C318.911 284.692 318.695 284.28 318.505 283.855L316.14 278.809C315.733 277.975 315.389 277.112 315.02 276.262L313.928 273.703C313.566 272.848 313.188 272.002 312.844 271.139L310.814 265.965L310.31 264.669L307.947 258.147L306.174 252.893C303.869 245.871 301.718 238.804 299.771 231.688C297.809 224.579 295.962 217.443 294.183 210.294L290.88 196.893L289.476 191.594C289.233 190.714 288.948 189.845 288.687 188.97L287.886 186.349C287.757 185.908 287.612 185.477 287.459 185.049L286.108 181.167C285.811 180.301 285.452 179.461 285.131 178.606L284.137 176.053L283.049 173.537C282.345 171.848 281.545 170.206 280.777 168.549L280.488 167.928L280.175 167.317L279.552 166.095C279.143 165.278 278.751 164.452 278.301 163.654L276.998 161.241L275.635 158.859C273.787 155.713 271.795 152.598 269.564 149.734L270.302 149.053Z" fill="#27292A" fill-opacity="0.6"/>
<path d="M234.446 129.931C234.621 129.997 234.734 130.061 234.857 130.121C234.984 130.182 235.103 130.248 235.207 130.323C235.422 130.469 235.666 130.602 235.856 130.768L236.461 131.247C236.663 131.41 236.834 131.593 237.019 131.764L237.569 132.293C237.748 132.473 237.906 132.663 238.078 132.851L238.578 133.416C238.743 133.605 238.912 133.792 239.058 133.997C239.648 134.794 240.294 135.574 240.809 136.414L241.617 137.663L241.818 137.976L242.002 138.297L243.097 140.226L243.456 140.873L245.072 144.181C245.491 145.067 245.845 145.976 246.231 146.877C246.605 147.781 247.004 148.675 247.326 149.595C248.725 153.236 249.906 156.946 250.964 160.679L252.484 166.291L253.837 171.935C254.313 173.811 254.668 175.708 255.068 177.599C255.45 179.491 255.872 181.381 256.223 183.27C256.946 187.048 257.673 190.824 258.343 194.609L262.38 217.3C263.715 224.859 265.07 232.407 266.667 239.891C268.264 247.376 270.15 254.794 272.583 262.032L273.53 264.734C273.843 265.637 274.15 266.54 274.516 267.424L276.086 271.426L276.663 272.738C277.442 274.482 278.171 276.249 279.048 277.955C279.896 279.672 280.718 281.392 281.636 283.093C285.208 289.917 288.988 296.636 292.883 303.3C296.776 309.967 300.784 316.576 304.699 323.254C308.623 329.927 312.409 336.694 315.919 343.6C316.364 344.46 316.797 345.327 317.216 346.2L318.493 348.807L320.98 354.039L325.904 364.519L335.689 385.5C348.699 413.49 361.65 441.507 374.581 469.532L373.654 469.942C360.544 441.998 347.417 414.062 334.232 386.152L324.315 365.234L319.327 354.791L316.81 349.584L315.525 347.002C315.098 346.141 314.668 345.279 314.22 344.428C307.193 330.728 298.881 317.687 290.985 304.37C287.036 297.71 283.194 290.982 279.56 284.141C278.629 282.447 277.775 280.692 276.905 278.954C275.998 277.229 275.255 275.429 274.439 273.665L273.836 272.335L273.285 270.985L272.188 268.284C271.808 267.389 271.487 266.473 271.156 265.558L270.164 262.82C267.6 255.488 265.63 247.987 263.902 240.465C262.178 232.94 260.7 225.385 259.245 217.833L254.976 195.188L252.802 183.881C252.447 181.994 252.034 180.135 251.65 178.26L251.066 175.452C250.967 174.985 250.881 174.513 250.772 174.047L249.141 167.074L247.679 161.54C246.655 157.866 245.555 154.218 244.353 150.611C244.078 149.696 243.73 148.814 243.409 147.923C243.076 147.036 242.761 146.136 242.428 145.249L241.359 142.616L241.09 141.956L240.79 141.314L240.203 140.023L239.912 139.376L239.765 139.053L239.599 138.741L238.943 137.487C238.528 136.633 238.027 135.847 237.551 135.029C237.317 134.618 237.024 134.259 236.771 133.863C236.639 133.67 236.513 133.469 236.372 133.284L235.941 132.74C235.793 132.564 235.656 132.366 235.5 132.204L235.032 131.698C234.879 131.516 234.704 131.391 234.54 131.233C234.454 131.154 234.372 131.086 234.287 131.027C234.204 130.962 234.112 130.894 234.062 130.857L234.446 129.931Z" fill="#27292A" fill-opacity="0.6"/>
<path d="M189.545 126.142C191.777 125.809 193.844 126.469 195.739 127.396C196.675 127.883 197.551 128.466 198.388 129.093C199.204 129.741 199.999 130.421 200.707 131.175C202.145 132.666 203.407 134.294 204.519 136.004C205.638 137.713 206.584 139.507 207.473 141.318C207.907 142.227 208.322 143.147 208.698 144.077C209.099 145 209.447 145.941 209.796 146.876C210.164 147.81 210.459 148.763 210.787 149.709C211.108 150.655 211.372 151.616 211.666 152.568C212.78 156.396 213.613 160.279 214.388 164.13C215.163 167.991 215.865 171.856 216.52 175.725C217.17 179.595 217.774 183.469 218.368 187.338C218.969 191.207 219.529 195.081 220.099 198.947C220.672 202.814 221.254 206.676 221.862 210.534C224.322 225.949 227.146 241.33 231.726 256.266C234.005 263.728 236.736 271.064 240.019 278.155C243.355 285.262 246.757 292.362 250.122 299.468L290.643 384.701L310.954 427.295L331.32 469.864L330.397 470.283L310.006 427.727L289.561 385.196L238.323 278.917C234.914 271.772 232.106 264.377 229.658 256.882C224.805 241.87 221.513 226.446 218.804 211.004C217.455 203.279 216.179 195.549 214.947 187.827C214.329 183.966 213.687 180.113 213.025 176.267C212.375 172.417 211.681 168.582 210.92 164.764C210.151 160.94 209.352 157.156 208.351 153.433C207.84 151.574 207.306 149.722 206.707 147.898C206.402 146.988 206.099 146.074 205.75 145.182C205.578 144.734 205.422 144.278 205.237 143.837L204.69 142.51C203.944 140.751 203.144 139.007 202.191 137.362C201.249 135.713 200.217 134.112 199.005 132.665C198.404 131.934 197.758 131.256 197.079 130.606C196.385 129.975 195.652 129.392 194.871 128.881C194.089 128.373 193.257 127.944 192.384 127.632C191.947 127.49 191.501 127.341 191.048 127.26C190.823 127.217 190.595 127.18 190.369 127.16C190.151 127.137 189.897 127.126 189.727 127.132L189.545 126.142Z" fill="#27292A" fill-opacity="0.6"/>
<g filter="url(#filter0_f_5624_1656)">
<rect x="94.8315" y="120.586" width="15" height="380.336" transform="rotate(-19.6337 94.8315 120.586)" fill="black"/>
</g>
<g filter="url(#filter1_f_5624_1656)">
<rect x="597.891" y="168.586" width="15" height="380.336" transform="rotate(-39.5731 597.891 168.586)" fill="black"/>
</g>
<g filter="url(#filter2_f_5624_1656)">
<rect x="845.544" y="455.367" width="15" height="628.943" transform="rotate(88.3758 845.544 455.367)" fill="black"/>
</g>
<g filter="url(#filter3_f_5624_1656)">
<rect x="404.57" y="130.605" width="15" height="306.147" transform="rotate(94.5709 404.57 130.605)" fill="black"/>
</g>
<g filter="url(#filter4_f_5624_1656)">
<rect x="613.591" y="153.004" width="15" height="116.525" transform="rotate(94.5709 613.591 153.004)" fill="black"/>
</g>
<defs>
<filter id="filter0_f_5624_1656" x="61.8315" y="82.5469" width="207.923" height="429.262" filterUnits="userSpaceOnUse" color-interpolation-filters="sRGB">
<feFlood flood-opacity="0" result="BackgroundImageFix"/>
<feBlend mode="normal" in="SourceGraphic" in2="BackgroundImageFix" result="shape"/>
<feGaussianBlur stdDeviation="16.5" result="effect1_foregroundBlur_5624_1656"/>
</filter>
<filter id="filter1_f_5624_1656" x="564.891" y="126.031" width="319.86" height="368.723" filterUnits="userSpaceOnUse" color-interpolation-filters="sRGB">
<feFlood flood-opacity="0" result="BackgroundImageFix"/>
<feBlend mode="normal" in="SourceGraphic" in2="BackgroundImageFix" result="shape"/>
<feGaussianBlur stdDeviation="16.5" result="effect1_foregroundBlur_5624_1656"/>
</filter>
<filter id="filter2_f_5624_1656" x="183.854" y="422.367" width="695.116" height="98.8203" filterUnits="userSpaceOnUse" color-interpolation-filters="sRGB">
<feFlood flood-opacity="0" result="BackgroundImageFix"/>
<feBlend mode="normal" in="SourceGraphic" in2="BackgroundImageFix" result="shape"/>
<feGaussianBlur stdDeviation="16.5" result="effect1_foregroundBlur_5624_1656"/>
</filter>
<filter id="filter3_f_5624_1656" x="65.2012" y="73.207" width="372.369" height="105.352" filterUnits="userSpaceOnUse" color-interpolation-filters="sRGB">
<feFlood flood-opacity="0" result="BackgroundImageFix"/>
<feBlend mode="normal" in="SourceGraphic" in2="BackgroundImageFix" result="shape"/>
<feGaussianBlur stdDeviation="16.5" result="effect1_foregroundBlur_5624_1656"/>
</filter>
<filter id="filter4_f_5624_1656" x="463.242" y="110.719" width="183.35" height="90.2383" filterUnits="userSpaceOnUse" color-interpolation-filters="sRGB">
<feFlood flood-opacity="0" result="BackgroundImageFix"/>
<feBlend mode="normal" in="SourceGraphic" in2="BackgroundImageFix" result="shape"/>
<feGaussianBlur stdDeviation="16.5" result="effect1_foregroundBlur_5624_1656"/>
</filter>
</defs>
</svg>
